%TF.GenerationSoftware,KiCad,Pcbnew,(6.0.4)*%
%TF.CreationDate,2023-05-23T16:29:30+02:00*%
%TF.ProjectId,OpenDTU_9400_NRF24_DM4DS_v1,4f70656e-4454-4555-9f39-3430305f4e52,rev?*%
%TF.SameCoordinates,Original*%
%TF.FileFunction,Soldermask,Top*%
%TF.FilePolarity,Negative*%
%FSLAX46Y46*%
G04 Gerber Fmt 4.6, Leading zero omitted, Abs format (unit mm)*
G04 Created by KiCad (PCBNEW (6.0.4)) date 2023-05-23 16:29:30*
%MOMM*%
%LPD*%
G01*
G04 APERTURE LIST*
%ADD10C,4.300000*%
%ADD11R,1.980000X3.960000*%
%ADD12O,1.980000X3.960000*%
%ADD13O,0.850000X0.850000*%
%ADD14R,0.850000X0.850000*%
%ADD15R,1.530000X1.530000*%
%ADD16C,1.530000*%
%ADD17R,1.524000X1.524000*%
%ADD18C,1.524000*%
%ADD19R,2.000000X0.800000*%
G04 APERTURE END LIST*
D10*
%TO.C,REF\u002A\u002A*%
X180340000Y-50800000D03*
%TD*%
%TO.C,REF\u002A\u002A*%
X180340000Y-109220000D03*
%TD*%
%TO.C,REF\u002A\u002A*%
X58420000Y-109220000D03*
%TD*%
%TO.C,REF\u002A\u002A*%
X58420000Y-50800000D03*
%TD*%
D11*
%TO.C,REF\u002A\u002A*%
X160020000Y-101600000D03*
D12*
X165020000Y-101600000D03*
%TD*%
D13*
%TO.C,REF\u002A\u002A*%
X172720000Y-61420000D03*
X172720000Y-60420000D03*
X172720000Y-59420000D03*
D14*
X172720000Y-58420000D03*
%TD*%
D15*
%TO.C,REF\u002A\u002A*%
X104140000Y-58430000D03*
D16*
X104140000Y-60970000D03*
X104140000Y-63510000D03*
X104140000Y-66050000D03*
X104140000Y-68590000D03*
X104140000Y-71130000D03*
X104140000Y-73670000D03*
X104140000Y-76210000D03*
X104140000Y-78750000D03*
X104140000Y-81290000D03*
X104140000Y-83830000D03*
X104140000Y-86370000D03*
X104140000Y-88910000D03*
X104140000Y-91450000D03*
X104140000Y-93990000D03*
X104140000Y-96530000D03*
X104140000Y-99070000D03*
X104140000Y-101610000D03*
X104140000Y-104150000D03*
X129540000Y-104150000D03*
X129540000Y-101610000D03*
X129540000Y-99070000D03*
X129540000Y-96530000D03*
X129540000Y-93990000D03*
X129540000Y-91450000D03*
X129540000Y-88910000D03*
X129540000Y-86370000D03*
X129540000Y-83830000D03*
X129540000Y-81290000D03*
X129540000Y-78750000D03*
X129540000Y-76210000D03*
X129540000Y-73670000D03*
X129540000Y-71130000D03*
X129540000Y-68590000D03*
X129540000Y-66050000D03*
X129540000Y-63510000D03*
X129540000Y-60970000D03*
X129540000Y-58430000D03*
%TD*%
D17*
%TO.C,REF\u002A\u002A*%
X149560000Y-75655000D03*
D18*
X152100000Y-75655000D03*
X149560000Y-78195000D03*
X152100000Y-78195000D03*
X149560000Y-80735000D03*
X152100000Y-80735000D03*
X149560000Y-83275000D03*
X152100000Y-83275000D03*
%TD*%
D19*
%TO.C,REF\u002A\u002A*%
X69200000Y-90280000D03*
X69200000Y-89010000D03*
X69200000Y-87740000D03*
X69200000Y-79630000D03*
X69200000Y-78360000D03*
X69200000Y-77090000D03*
X69200000Y-75820000D03*
X69200000Y-74550000D03*
X69200000Y-73280000D03*
X83200000Y-73280000D03*
X83200000Y-74550000D03*
X83200000Y-75820000D03*
X83200000Y-77090000D03*
X83200000Y-78360000D03*
X83200000Y-79630000D03*
X83200000Y-87740000D03*
X83200000Y-89010000D03*
X83200000Y-90280000D03*
X69200000Y-82170000D03*
X83200000Y-82170000D03*
X83200000Y-80900000D03*
X69200000Y-80900000D03*
%TD*%
M02*
