%TF.GenerationSoftware,KiCad,Pcbnew,(6.0.4)*%
%TF.CreationDate,2023-05-23T16:29:30+02:00*%
%TF.ProjectId,OpenDTU_9400_NRF24_DM4DS_v1,4f70656e-4454-4555-9f39-3430305f4e52,rev?*%
%TF.SameCoordinates,Original*%
%TF.FileFunction,Copper,L1,Top*%
%TF.FilePolarity,Positive*%
%FSLAX46Y46*%
G04 Gerber Fmt 4.6, Leading zero omitted, Abs format (unit mm)*
G04 Created by KiCad (PCBNEW (6.0.4)) date 2023-05-23 16:29:30*
%MOMM*%
%LPD*%
G01*
G04 APERTURE LIST*
%TA.AperFunction,ComponentPad*%
%ADD10R,1.980000X3.960000*%
%TD*%
%TA.AperFunction,ComponentPad*%
%ADD11O,1.980000X3.960000*%
%TD*%
%TA.AperFunction,ComponentPad*%
%ADD12O,0.850000X0.850000*%
%TD*%
%TA.AperFunction,ComponentPad*%
%ADD13R,0.850000X0.850000*%
%TD*%
%TA.AperFunction,ComponentPad*%
%ADD14R,1.530000X1.530000*%
%TD*%
%TA.AperFunction,ComponentPad*%
%ADD15C,1.530000*%
%TD*%
%TA.AperFunction,ComponentPad*%
%ADD16R,1.524000X1.524000*%
%TD*%
%TA.AperFunction,ComponentPad*%
%ADD17C,1.524000*%
%TD*%
%TA.AperFunction,SMDPad,CuDef*%
%ADD18R,2.000000X0.800000*%
%TD*%
%TA.AperFunction,ViaPad*%
%ADD19C,0.800000*%
%TD*%
%TA.AperFunction,Conductor*%
%ADD20C,1.000000*%
%TD*%
%TA.AperFunction,Conductor*%
%ADD21C,0.250000*%
%TD*%
%TA.AperFunction,Conductor*%
%ADD22C,0.750000*%
%TD*%
%TA.AperFunction,Conductor*%
%ADD23C,0.500000*%
%TD*%
G04 APERTURE END LIST*
D10*
%TO.P,REF\u002A\u002A,1*%
%TO.N,GND*%
X160020000Y-101600000D03*
D11*
%TO.P,REF\u002A\u002A,2*%
%TO.N,5V*%
X165020000Y-101600000D03*
%TD*%
D12*
%TO.P,REF\u002A\u002A,4*%
%TO.N,N/C*%
X172720000Y-61420000D03*
%TO.P,REF\u002A\u002A,3*%
X172720000Y-60420000D03*
%TO.P,REF\u002A\u002A,2*%
%TO.N,3v3*%
X172720000Y-59420000D03*
D13*
%TO.P,REF\u002A\u002A,1*%
%TO.N,GND*%
X172720000Y-58420000D03*
%TD*%
D14*
%TO.P,REF\u002A\u002A,1*%
%TO.N,3v3*%
X104140000Y-58430000D03*
D15*
%TO.P,REF\u002A\u002A,2*%
%TO.N,N/C*%
X104140000Y-60970000D03*
%TO.P,REF\u002A\u002A,3*%
X104140000Y-63510000D03*
%TO.P,REF\u002A\u002A,4*%
X104140000Y-66050000D03*
%TO.P,REF\u002A\u002A,5*%
X104140000Y-68590000D03*
%TO.P,REF\u002A\u002A,6*%
X104140000Y-71130000D03*
%TO.P,REF\u002A\u002A,7*%
X104140000Y-73670000D03*
%TO.P,REF\u002A\u002A,8*%
X104140000Y-76210000D03*
%TO.P,REF\u002A\u002A,9*%
X104140000Y-78750000D03*
%TO.P,REF\u002A\u002A,10*%
X104140000Y-81290000D03*
%TO.P,REF\u002A\u002A,11*%
X104140000Y-83830000D03*
%TO.P,REF\u002A\u002A,12*%
X104140000Y-86370000D03*
%TO.P,REF\u002A\u002A,13*%
X104140000Y-88910000D03*
%TO.P,REF\u002A\u002A,14*%
%TO.N,GND*%
X104140000Y-91450000D03*
%TO.P,REF\u002A\u002A,15*%
%TO.N,N/C*%
X104140000Y-93990000D03*
%TO.P,REF\u002A\u002A,16*%
X104140000Y-96530000D03*
%TO.P,REF\u002A\u002A,17*%
X104140000Y-99070000D03*
%TO.P,REF\u002A\u002A,18*%
%TO.N,GND*%
X104140000Y-101610000D03*
%TO.P,REF\u002A\u002A,19*%
%TO.N,5V*%
X104140000Y-104150000D03*
%TO.P,REF\u002A\u002A,20*%
%TO.N,N/C*%
X129540000Y-104150000D03*
%TO.P,REF\u002A\u002A,21*%
X129540000Y-101610000D03*
%TO.P,REF\u002A\u002A,22*%
X129540000Y-99070000D03*
%TO.P,REF\u002A\u002A,23*%
X129540000Y-96530000D03*
%TO.P,REF\u002A\u002A,24*%
X129540000Y-93990000D03*
%TO.P,REF\u002A\u002A,25*%
X129540000Y-91450000D03*
%TO.P,REF\u002A\u002A,26*%
X129540000Y-88910000D03*
%TO.P,REF\u002A\u002A,27*%
X129540000Y-86370000D03*
%TO.P,REF\u002A\u002A,28*%
X129540000Y-83830000D03*
%TO.P,REF\u002A\u002A,29*%
X129540000Y-81290000D03*
%TO.P,REF\u002A\u002A,30*%
X129540000Y-78750000D03*
%TO.P,REF\u002A\u002A,31*%
X129540000Y-76210000D03*
%TO.P,REF\u002A\u002A,32*%
%TO.N,GND*%
X129540000Y-73670000D03*
%TO.P,REF\u002A\u002A,33*%
%TO.N,N/C*%
X129540000Y-71130000D03*
%TO.P,REF\u002A\u002A,34*%
X129540000Y-68590000D03*
%TO.P,REF\u002A\u002A,35*%
X129540000Y-66050000D03*
%TO.P,REF\u002A\u002A,36*%
X129540000Y-63510000D03*
%TO.P,REF\u002A\u002A,37*%
X129540000Y-60970000D03*
%TO.P,REF\u002A\u002A,38*%
%TO.N,GND*%
X129540000Y-58430000D03*
%TD*%
D16*
%TO.P,REF\u002A\u002A,1*%
%TO.N,GND*%
X149560000Y-75655000D03*
D17*
%TO.P,REF\u002A\u002A,2*%
%TO.N,3v3*%
X152100000Y-75655000D03*
%TO.P,REF\u002A\u002A,3*%
%TO.N,N/C*%
X149560000Y-78195000D03*
%TO.P,REF\u002A\u002A,4*%
X152100000Y-78195000D03*
%TO.P,REF\u002A\u002A,5*%
X149560000Y-80735000D03*
%TO.P,REF\u002A\u002A,6*%
X152100000Y-80735000D03*
%TO.P,REF\u002A\u002A,7*%
X149560000Y-83275000D03*
%TO.P,REF\u002A\u002A,8*%
X152100000Y-83275000D03*
%TD*%
D18*
%TO.P,REF\u002A\u002A,18*%
%TO.N,GND*%
X69200000Y-90280000D03*
%TO.P,REF\u002A\u002A,17*%
%TO.N,N/C*%
X69200000Y-89010000D03*
%TO.P,REF\u002A\u002A,16*%
%TO.N,GND*%
X69200000Y-87740000D03*
%TO.P,REF\u002A\u002A,15*%
X69200000Y-79630000D03*
%TO.P,REF\u002A\u002A,14*%
%TO.N,N/C*%
X69200000Y-78360000D03*
%TO.P,REF\u002A\u002A,13*%
X69200000Y-77090000D03*
%TO.P,REF\u002A\u002A,12*%
X69200000Y-75820000D03*
%TO.P,REF\u002A\u002A,11*%
X69200000Y-74550000D03*
%TO.P,REF\u002A\u002A,10*%
%TO.N,GND*%
X69200000Y-73280000D03*
%TO.P,REF\u002A\u002A,9*%
X83200000Y-73280000D03*
%TO.P,REF\u002A\u002A,8*%
%TO.N,3v3*%
X83200000Y-74550000D03*
%TO.P,REF\u002A\u002A,7*%
%TO.N,N/C*%
X83200000Y-75820000D03*
%TO.P,REF\u002A\u002A,6*%
X83200000Y-77090000D03*
%TO.P,REF\u002A\u002A,5*%
X83200000Y-78360000D03*
%TO.P,REF\u002A\u002A,4*%
%TO.N,GND*%
X83200000Y-79630000D03*
%TO.P,REF\u002A\u002A,3*%
X83200000Y-87740000D03*
%TO.P,REF\u002A\u002A,2*%
X83200000Y-89010000D03*
%TO.P,REF\u002A\u002A,1*%
X83200000Y-90280000D03*
%TO.P,REF\u002A\u002A,0*%
%TO.N,N/C*%
X69200000Y-82170000D03*
X83200000Y-82170000D03*
X83200000Y-80900000D03*
X69200000Y-80900000D03*
%TD*%
D19*
%TO.N,GND*%
X144780000Y-71120000D03*
X132080000Y-73660000D03*
%TO.N,3v3*%
X152400000Y-53340000D03*
X152400000Y-68580000D03*
X96520000Y-66040000D03*
X85900092Y-74545950D03*
%TO.N,*%
X165100000Y-73660000D03*
X137160000Y-73660000D03*
X139700000Y-63500000D03*
X162560000Y-71120000D03*
X147320000Y-83820000D03*
X134620000Y-76200000D03*
X144780000Y-81280000D03*
X132080000Y-78740000D03*
X152400000Y-86360000D03*
X134620000Y-86360000D03*
%TD*%
D20*
%TO.N,5V*%
X104140000Y-106680000D02*
X104140000Y-104150000D01*
X108690480Y-111230480D02*
X104140000Y-106680000D01*
X165206198Y-111230480D02*
X108690480Y-111230480D01*
D21*
X165417859Y-111442141D02*
X165206198Y-111230480D01*
D20*
X165549520Y-111310480D02*
X165417859Y-111442141D01*
X165549520Y-102129520D02*
X165549520Y-111310480D01*
D21*
X165020000Y-101600000D02*
X165549520Y-102129520D01*
D22*
%TO.N,3v3*%
X168640000Y-59420000D02*
X167640000Y-58420000D01*
D23*
X172720000Y-59420000D02*
X168640000Y-59420000D01*
D20*
X162560000Y-53340000D02*
X167640000Y-58420000D01*
X152400000Y-53340000D02*
X162560000Y-53340000D01*
X109230000Y-53340000D02*
X104140000Y-58430000D01*
X152400000Y-53340000D02*
X109230000Y-53340000D01*
X152100000Y-68880000D02*
X152400000Y-68580000D01*
X152100000Y-75655000D02*
X152100000Y-68880000D01*
X99050000Y-58430000D02*
X104140000Y-58430000D01*
X96520000Y-60960000D02*
X99050000Y-58430000D01*
X96520000Y-66040000D02*
X96520000Y-60960000D01*
D21*
X85896042Y-74550000D02*
X85900092Y-74545950D01*
D22*
X83200000Y-74550000D02*
X85896042Y-74550000D01*
D21*
%TO.N,GND*%
X116830000Y-104150000D02*
X116840000Y-104140000D01*
D20*
%TO.N,5V*%
X165020000Y-111680000D02*
X165100000Y-111760000D01*
D21*
X165020000Y-109140000D02*
X165100000Y-109220000D01*
D22*
%TO.N,*%
X165100000Y-63500000D02*
X165100000Y-73660000D01*
D23*
X167180000Y-61420000D02*
X165100000Y-63500000D01*
X172720000Y-61420000D02*
X167180000Y-61420000D01*
D22*
X134630000Y-71130000D02*
X137160000Y-73660000D01*
X129540000Y-71130000D02*
X134630000Y-71130000D01*
D20*
X139690000Y-63510000D02*
X129540000Y-63510000D01*
D21*
X139700000Y-63500000D02*
X139690000Y-63510000D01*
D22*
X162560000Y-63500000D02*
X162560000Y-71120000D01*
D23*
X165100000Y-60960000D02*
X162560000Y-63500000D01*
X165640000Y-60420000D02*
X165100000Y-60960000D01*
X172720000Y-60420000D02*
X165640000Y-60420000D01*
D20*
X152400000Y-83575000D02*
X152100000Y-83275000D01*
X152400000Y-86360000D02*
X152400000Y-83575000D01*
X149015000Y-83820000D02*
X149560000Y-83275000D01*
X147320000Y-83820000D02*
X149015000Y-83820000D01*
X157470000Y-60970000D02*
X129540000Y-60970000D01*
D21*
X157480000Y-60960000D02*
X157470000Y-60970000D01*
D20*
X160020000Y-63500000D02*
X157480000Y-60960000D01*
X160020000Y-81280000D02*
X160020000Y-63500000D01*
D21*
X159475000Y-80735000D02*
X160020000Y-81280000D01*
D20*
X152100000Y-80735000D02*
X159475000Y-80735000D01*
D21*
X134610000Y-76210000D02*
X134620000Y-76200000D01*
D20*
X129540000Y-76210000D02*
X134610000Y-76210000D01*
X145325000Y-80735000D02*
X149560000Y-80735000D01*
D21*
X144780000Y-81280000D02*
X145325000Y-80735000D01*
X132070000Y-78750000D02*
X132080000Y-78740000D01*
D20*
X129540000Y-78750000D02*
X132070000Y-78750000D01*
X157480000Y-63500000D02*
X157480000Y-78740000D01*
X149860000Y-63500000D02*
X157480000Y-63500000D01*
X132070000Y-81290000D02*
X149860000Y-63500000D01*
X156935000Y-78195000D02*
X152100000Y-78195000D01*
X129540000Y-81290000D02*
X132070000Y-81290000D01*
X157480000Y-78740000D02*
X156935000Y-78195000D01*
D21*
X134610000Y-86370000D02*
X134620000Y-86360000D01*
D20*
X129540000Y-86370000D02*
X134610000Y-86370000D01*
X145325000Y-78195000D02*
X149560000Y-78195000D01*
X129540000Y-88910000D02*
X134610000Y-88910000D01*
X134610000Y-88910000D02*
X145325000Y-78195000D01*
D21*
%TO.N,GND*%
X96520000Y-58420000D02*
X96530000Y-58430000D01*
%TO.N,3v3*%
X99060000Y-58420000D02*
X99070000Y-58430000D01*
%TO.N,GND*%
X93980000Y-58420000D02*
X93990000Y-58430000D01*
%TO.N,*%
X96520000Y-81280000D02*
X96530000Y-81290000D01*
D20*
X58420000Y-60960000D02*
X83820000Y-60960000D01*
X58420000Y-73660000D02*
X58420000Y-60960000D01*
X96520000Y-73660000D02*
X96520000Y-81280000D01*
X63120000Y-78360000D02*
X58420000Y-73660000D01*
X83820000Y-60960000D02*
X96520000Y-73660000D01*
X96530000Y-81290000D02*
X104140000Y-81290000D01*
D22*
X69200000Y-78360000D02*
X63120000Y-78360000D01*
D20*
X93980000Y-73660000D02*
X93980000Y-83820000D01*
X93990000Y-83830000D02*
X104140000Y-83830000D01*
X60960000Y-63500000D02*
X83820000Y-63500000D01*
D21*
X93980000Y-83820000D02*
X93990000Y-83830000D01*
D20*
X60960000Y-73660000D02*
X60960000Y-63500000D01*
X83820000Y-63500000D02*
X93980000Y-73660000D01*
X64390000Y-77090000D02*
X60960000Y-73660000D01*
D22*
X69200000Y-77090000D02*
X64390000Y-77090000D01*
D21*
X91440000Y-86360000D02*
X91450000Y-86370000D01*
D20*
X91440000Y-73660000D02*
X91440000Y-86360000D01*
X91450000Y-86370000D02*
X104140000Y-86370000D01*
X63500000Y-66040000D02*
X83820000Y-66040000D01*
X63500000Y-73660000D02*
X63500000Y-66040000D01*
X83820000Y-66040000D02*
X91440000Y-73660000D01*
D22*
X69200000Y-75820000D02*
X65660000Y-75820000D01*
D20*
X65660000Y-75820000D02*
X63500000Y-73660000D01*
X91450000Y-88910000D02*
X104140000Y-88910000D01*
X66040000Y-68580000D02*
X83820000Y-68580000D01*
X83820000Y-68580000D02*
X88900000Y-73660000D01*
X66040000Y-73660000D02*
X66040000Y-68580000D01*
X88900000Y-73660000D02*
X88900000Y-86360000D01*
X66930000Y-74550000D02*
X66040000Y-73660000D01*
D22*
X69200000Y-74550000D02*
X66930000Y-74550000D01*
D20*
X88900000Y-86360000D02*
X91450000Y-88910000D01*
%TD*%
%TA.AperFunction,Conductor*%
%TO.N,GND*%
G36*
X187902121Y-43200002D02*
G01*
X187948614Y-43253658D01*
X187960000Y-43306000D01*
X187960000Y-116714000D01*
X187939998Y-116782121D01*
X187886342Y-116828614D01*
X187834000Y-116840000D01*
X50926000Y-116840000D01*
X50857879Y-116819998D01*
X50811386Y-116766342D01*
X50800000Y-116714000D01*
X50800000Y-109266485D01*
X55756854Y-109266485D01*
X55757156Y-109270320D01*
X55775108Y-109498417D01*
X55782370Y-109590695D01*
X55847206Y-109909378D01*
X55950398Y-110217784D01*
X56090405Y-110511316D01*
X56265141Y-110785597D01*
X56267584Y-110788560D01*
X56267585Y-110788562D01*
X56417308Y-110970190D01*
X56472001Y-111036538D01*
X56707902Y-111260399D01*
X56969326Y-111453843D01*
X57059118Y-111504645D01*
X57249019Y-111612086D01*
X57249023Y-111612088D01*
X57252376Y-111613985D01*
X57552832Y-111738438D01*
X57656288Y-111767129D01*
X57862500Y-111824317D01*
X57862508Y-111824319D01*
X57866216Y-111825347D01*
X58187856Y-111873416D01*
X58191154Y-111873560D01*
X58302918Y-111878440D01*
X58302922Y-111878440D01*
X58304294Y-111878500D01*
X58502598Y-111878500D01*
X58744605Y-111863698D01*
X58748388Y-111862997D01*
X58748395Y-111862996D01*
X58948459Y-111825916D01*
X59064372Y-111804433D01*
X59273682Y-111738438D01*
X59370860Y-111707798D01*
X59370863Y-111707797D01*
X59374532Y-111706640D01*
X59378029Y-111705046D01*
X59378035Y-111705044D01*
X59666954Y-111573376D01*
X59666958Y-111573374D01*
X59670462Y-111571777D01*
X59743450Y-111527050D01*
X59944473Y-111403863D01*
X59944476Y-111403861D01*
X59947751Y-111401854D01*
X59950755Y-111399464D01*
X59950760Y-111399461D01*
X60115566Y-111268368D01*
X60202264Y-111199405D01*
X60204958Y-111196664D01*
X60204962Y-111196660D01*
X60427513Y-110970190D01*
X60427517Y-110970185D01*
X60430208Y-110967447D01*
X60628185Y-110709439D01*
X60793242Y-110429227D01*
X60922920Y-110130988D01*
X61015285Y-109819169D01*
X61068961Y-109498417D01*
X61083146Y-109173515D01*
X61070388Y-109011410D01*
X61057932Y-108853140D01*
X61057932Y-108853137D01*
X61057630Y-108849305D01*
X60992794Y-108530622D01*
X60889602Y-108222216D01*
X60749595Y-107928684D01*
X60574859Y-107654403D01*
X60427470Y-107475606D01*
X60370442Y-107406425D01*
X60370438Y-107406420D01*
X60367999Y-107403462D01*
X60132098Y-107179601D01*
X59870674Y-106986157D01*
X59668075Y-106871532D01*
X59590981Y-106827914D01*
X59590977Y-106827912D01*
X59587624Y-106826015D01*
X59287168Y-106701562D01*
X59149063Y-106663262D01*
X58977500Y-106615683D01*
X58977492Y-106615681D01*
X58973784Y-106614653D01*
X58652144Y-106566584D01*
X58648846Y-106566440D01*
X58537082Y-106561560D01*
X58537078Y-106561560D01*
X58535706Y-106561500D01*
X58337402Y-106561500D01*
X58095395Y-106576302D01*
X58091612Y-106577003D01*
X58091605Y-106577004D01*
X57935511Y-106605935D01*
X57775628Y-106635567D01*
X57648904Y-106675523D01*
X57469140Y-106732202D01*
X57469137Y-106732203D01*
X57465468Y-106733360D01*
X57461971Y-106734954D01*
X57461965Y-106734956D01*
X57173046Y-106866624D01*
X57173042Y-106866626D01*
X57169538Y-106868223D01*
X57166259Y-106870233D01*
X57166256Y-106870234D01*
X57008403Y-106966967D01*
X56892249Y-107038146D01*
X56889245Y-107040536D01*
X56889240Y-107040539D01*
X56764992Y-107139371D01*
X56637736Y-107240595D01*
X56635042Y-107243336D01*
X56635038Y-107243340D01*
X56412487Y-107469810D01*
X56412483Y-107469815D01*
X56409792Y-107472553D01*
X56211815Y-107730561D01*
X56046758Y-108010773D01*
X55917080Y-108309012D01*
X55824715Y-108620831D01*
X55771039Y-108941583D01*
X55756854Y-109266485D01*
X50800000Y-109266485D01*
X50800000Y-104150000D01*
X102861635Y-104150000D01*
X102881056Y-104371986D01*
X102938730Y-104587227D01*
X102941052Y-104592208D01*
X102941053Y-104592209D01*
X103030577Y-104784195D01*
X103030580Y-104784200D01*
X103032903Y-104789182D01*
X103036060Y-104793690D01*
X103108713Y-104897449D01*
X103131500Y-104969720D01*
X103131500Y-106618157D01*
X103130763Y-106631764D01*
X103126676Y-106669388D01*
X103127213Y-106675523D01*
X103131050Y-106719388D01*
X103131379Y-106724214D01*
X103131500Y-106726686D01*
X103131500Y-106729769D01*
X103131801Y-106732837D01*
X103135690Y-106772506D01*
X103135812Y-106773819D01*
X103143913Y-106866413D01*
X103145400Y-106871532D01*
X103145920Y-106876833D01*
X103172791Y-106965834D01*
X103173126Y-106966967D01*
X103179368Y-106988450D01*
X103199091Y-107056336D01*
X103201544Y-107061068D01*
X103203084Y-107066169D01*
X103205978Y-107071612D01*
X103246731Y-107148260D01*
X103247343Y-107149426D01*
X103290108Y-107231926D01*
X103293431Y-107236089D01*
X103295934Y-107240796D01*
X103354755Y-107312918D01*
X103355446Y-107313774D01*
X103386738Y-107352973D01*
X103389242Y-107355477D01*
X103389884Y-107356195D01*
X103393585Y-107360528D01*
X103420935Y-107394062D01*
X103425682Y-107397989D01*
X103425684Y-107397991D01*
X103456262Y-107423287D01*
X103465042Y-107431277D01*
X107933629Y-111899864D01*
X107942731Y-111910007D01*
X107966448Y-111939505D01*
X108004930Y-111971795D01*
X108008542Y-111974947D01*
X108010368Y-111976603D01*
X108012555Y-111978790D01*
X108014938Y-111980747D01*
X108014943Y-111980752D01*
X108045748Y-112006056D01*
X108046732Y-112006873D01*
X108117954Y-112066634D01*
X108122627Y-112069203D01*
X108126742Y-112072583D01*
X108132171Y-112075494D01*
X108132174Y-112075496D01*
X108208660Y-112116508D01*
X108209818Y-112117137D01*
X108285868Y-112158945D01*
X108291267Y-112161913D01*
X108296345Y-112163524D01*
X108301043Y-112166043D01*
X108389978Y-112193233D01*
X108391182Y-112193608D01*
X108479786Y-112221715D01*
X108485077Y-112222308D01*
X108490178Y-112223868D01*
X108582791Y-112233275D01*
X108583911Y-112233395D01*
X108633707Y-112238980D01*
X108637236Y-112238980D01*
X108638219Y-112239035D01*
X108643906Y-112239483D01*
X108664163Y-112241540D01*
X108680816Y-112243232D01*
X108680819Y-112243232D01*
X108686943Y-112243854D01*
X108732592Y-112239539D01*
X108744449Y-112238980D01*
X164115099Y-112238980D01*
X164183220Y-112258982D01*
X164213571Y-112286372D01*
X164240181Y-112319706D01*
X164266738Y-112352973D01*
X164422075Y-112508309D01*
X164536261Y-112602103D01*
X164710563Y-112695562D01*
X164819219Y-112728782D01*
X164893800Y-112751584D01*
X164893802Y-112751584D01*
X164899698Y-112753387D01*
X164957551Y-112759264D01*
X165090334Y-112772752D01*
X165090339Y-112772752D01*
X165096462Y-112773374D01*
X165220525Y-112761646D01*
X165287229Y-112755341D01*
X165287231Y-112755341D01*
X165293362Y-112754761D01*
X165388129Y-112726510D01*
X165476993Y-112700019D01*
X165476995Y-112700018D01*
X165482896Y-112698259D01*
X165657846Y-112606018D01*
X165811547Y-112481553D01*
X165938146Y-112329604D01*
X165941094Y-112324197D01*
X165944146Y-112319706D01*
X165970793Y-112293296D01*
X165969785Y-112292033D01*
X166088082Y-112197599D01*
X166088089Y-112197592D01*
X166090832Y-112195403D01*
X166218902Y-112067333D01*
X166229044Y-112058232D01*
X166253738Y-112038377D01*
X166258545Y-112034512D01*
X166290812Y-111996058D01*
X166293992Y-111992411D01*
X166295635Y-111990599D01*
X166297829Y-111988405D01*
X166325162Y-111955131D01*
X166325868Y-111954280D01*
X166334942Y-111943467D01*
X166385674Y-111883006D01*
X166388242Y-111878336D01*
X166391623Y-111874219D01*
X166435535Y-111792322D01*
X166436144Y-111791200D01*
X166477986Y-111715091D01*
X166477988Y-111715086D01*
X166480953Y-111709693D01*
X166482564Y-111704615D01*
X166485083Y-111699917D01*
X166512273Y-111610982D01*
X166512656Y-111609752D01*
X166525341Y-111569766D01*
X166540755Y-111521174D01*
X166541348Y-111515883D01*
X166542908Y-111510782D01*
X166552315Y-111418169D01*
X166552435Y-111417049D01*
X166558020Y-111367253D01*
X166558020Y-111363724D01*
X166558075Y-111362741D01*
X166558524Y-111357036D01*
X166562272Y-111320144D01*
X166562272Y-111320141D01*
X166562894Y-111314017D01*
X166558579Y-111268368D01*
X166558020Y-111256511D01*
X166558020Y-109266485D01*
X177676854Y-109266485D01*
X177677156Y-109270320D01*
X177695108Y-109498417D01*
X177702370Y-109590695D01*
X177767206Y-109909378D01*
X177870398Y-110217784D01*
X178010405Y-110511316D01*
X178185141Y-110785597D01*
X178187584Y-110788560D01*
X178187585Y-110788562D01*
X178337308Y-110970190D01*
X178392001Y-111036538D01*
X178627902Y-111260399D01*
X178889326Y-111453843D01*
X178979118Y-111504645D01*
X179169019Y-111612086D01*
X179169023Y-111612088D01*
X179172376Y-111613985D01*
X179472832Y-111738438D01*
X179576288Y-111767129D01*
X179782500Y-111824317D01*
X179782508Y-111824319D01*
X179786216Y-111825347D01*
X180107856Y-111873416D01*
X180111154Y-111873560D01*
X180222918Y-111878440D01*
X180222922Y-111878440D01*
X180224294Y-111878500D01*
X180422598Y-111878500D01*
X180664605Y-111863698D01*
X180668388Y-111862997D01*
X180668395Y-111862996D01*
X180868459Y-111825916D01*
X180984372Y-111804433D01*
X181193682Y-111738438D01*
X181290860Y-111707798D01*
X181290863Y-111707797D01*
X181294532Y-111706640D01*
X181298029Y-111705046D01*
X181298035Y-111705044D01*
X181586954Y-111573376D01*
X181586958Y-111573374D01*
X181590462Y-111571777D01*
X181663450Y-111527050D01*
X181864473Y-111403863D01*
X181864476Y-111403861D01*
X181867751Y-111401854D01*
X181870755Y-111399464D01*
X181870760Y-111399461D01*
X182035566Y-111268368D01*
X182122264Y-111199405D01*
X182124958Y-111196664D01*
X182124962Y-111196660D01*
X182347513Y-110970190D01*
X182347517Y-110970185D01*
X182350208Y-110967447D01*
X182548185Y-110709439D01*
X182713242Y-110429227D01*
X182842920Y-110130988D01*
X182935285Y-109819169D01*
X182988961Y-109498417D01*
X183003146Y-109173515D01*
X182990388Y-109011410D01*
X182977932Y-108853140D01*
X182977932Y-108853137D01*
X182977630Y-108849305D01*
X182912794Y-108530622D01*
X182809602Y-108222216D01*
X182669595Y-107928684D01*
X182494859Y-107654403D01*
X182347470Y-107475606D01*
X182290442Y-107406425D01*
X182290438Y-107406420D01*
X182287999Y-107403462D01*
X182052098Y-107179601D01*
X181790674Y-106986157D01*
X181588075Y-106871532D01*
X181510981Y-106827914D01*
X181510977Y-106827912D01*
X181507624Y-106826015D01*
X181207168Y-106701562D01*
X181069063Y-106663262D01*
X180897500Y-106615683D01*
X180897492Y-106615681D01*
X180893784Y-106614653D01*
X180572144Y-106566584D01*
X180568846Y-106566440D01*
X180457082Y-106561560D01*
X180457078Y-106561560D01*
X180455706Y-106561500D01*
X180257402Y-106561500D01*
X180015395Y-106576302D01*
X180011612Y-106577003D01*
X180011605Y-106577004D01*
X179855511Y-106605935D01*
X179695628Y-106635567D01*
X179568904Y-106675523D01*
X179389140Y-106732202D01*
X179389137Y-106732203D01*
X179385468Y-106733360D01*
X179381971Y-106734954D01*
X179381965Y-106734956D01*
X179093046Y-106866624D01*
X179093042Y-106866626D01*
X179089538Y-106868223D01*
X179086259Y-106870233D01*
X179086256Y-106870234D01*
X178928403Y-106966967D01*
X178812249Y-107038146D01*
X178809245Y-107040536D01*
X178809240Y-107040539D01*
X178684993Y-107139370D01*
X178557736Y-107240595D01*
X178555042Y-107243336D01*
X178555038Y-107243340D01*
X178332487Y-107469810D01*
X178332483Y-107469815D01*
X178329792Y-107472553D01*
X178131815Y-107730561D01*
X177966758Y-108010773D01*
X177837080Y-108309012D01*
X177744715Y-108620831D01*
X177691039Y-108941583D01*
X177676854Y-109266485D01*
X166558020Y-109266485D01*
X166558020Y-102079751D01*
X166555320Y-102052209D01*
X166548437Y-101982022D01*
X166543600Y-101932687D01*
X166523878Y-101867365D01*
X166518500Y-101830947D01*
X166518500Y-100547531D01*
X166516736Y-100526071D01*
X166503869Y-100369568D01*
X166503868Y-100369562D01*
X166503445Y-100364417D01*
X166443416Y-100125430D01*
X166441357Y-100120694D01*
X166347220Y-99904193D01*
X166347218Y-99904190D01*
X166345160Y-99899456D01*
X166342354Y-99895118D01*
X166214126Y-99696908D01*
X166214121Y-99696902D01*
X166211315Y-99692564D01*
X166045477Y-99510310D01*
X166041426Y-99507111D01*
X166041422Y-99507107D01*
X165856157Y-99360795D01*
X165852099Y-99357590D01*
X165723332Y-99286506D01*
X165640906Y-99241004D01*
X165640903Y-99241003D01*
X165636375Y-99238503D01*
X165404097Y-99156250D01*
X165349457Y-99146517D01*
X165166593Y-99113943D01*
X165166589Y-99113943D01*
X165161505Y-99113037D01*
X165076700Y-99112001D01*
X164920282Y-99110090D01*
X164920280Y-99110090D01*
X164915112Y-99110027D01*
X164671536Y-99147299D01*
X164437318Y-99223853D01*
X164432730Y-99226241D01*
X164432726Y-99226243D01*
X164316962Y-99286506D01*
X164218748Y-99337633D01*
X164214615Y-99340736D01*
X164214612Y-99340738D01*
X164025832Y-99482479D01*
X164021697Y-99485584D01*
X163851455Y-99663731D01*
X163848541Y-99668003D01*
X163848540Y-99668004D01*
X163715515Y-99863011D01*
X163715512Y-99863016D01*
X163712596Y-99867291D01*
X163710420Y-99871980D01*
X163710416Y-99871986D01*
X163626651Y-100052443D01*
X163608848Y-100090797D01*
X163607468Y-100095775D01*
X163607466Y-100095779D01*
X163571407Y-100225805D01*
X163542998Y-100328247D01*
X163534397Y-100408730D01*
X163523949Y-100506495D01*
X163521500Y-100529406D01*
X163521500Y-102652469D01*
X163521712Y-102655042D01*
X163521712Y-102655053D01*
X163536131Y-102830432D01*
X163536132Y-102830438D01*
X163536555Y-102835583D01*
X163547963Y-102880999D01*
X163588046Y-103040577D01*
X163596584Y-103074570D01*
X163598642Y-103079303D01*
X163598643Y-103079306D01*
X163637016Y-103167557D01*
X163694840Y-103300544D01*
X163697644Y-103304878D01*
X163697646Y-103304882D01*
X163825874Y-103503092D01*
X163825879Y-103503098D01*
X163828685Y-103507436D01*
X163994523Y-103689690D01*
X163998574Y-103692889D01*
X163998578Y-103692893D01*
X164135643Y-103801139D01*
X164187901Y-103842410D01*
X164403625Y-103961497D01*
X164408500Y-103963223D01*
X164408506Y-103963226D01*
X164457079Y-103980426D01*
X164514616Y-104022019D01*
X164540532Y-104088117D01*
X164541020Y-104099199D01*
X164541020Y-108677740D01*
X164521018Y-108745861D01*
X164509533Y-108761067D01*
X164497118Y-108775148D01*
X164497116Y-108775151D01*
X164491880Y-108781090D01*
X164419215Y-108923704D01*
X164417485Y-108931443D01*
X164417484Y-108931446D01*
X164386028Y-109072168D01*
X164384298Y-109079909D01*
X164389327Y-109239889D01*
X164391539Y-109247501D01*
X164391539Y-109247504D01*
X164398168Y-109270320D01*
X164433982Y-109393593D01*
X164515458Y-109531362D01*
X164515791Y-109531695D01*
X164540526Y-109594693D01*
X164541020Y-109605835D01*
X164541020Y-110095980D01*
X164521018Y-110164101D01*
X164467362Y-110210594D01*
X164415020Y-110221980D01*
X109160404Y-110221980D01*
X109092283Y-110201978D01*
X109071309Y-110185075D01*
X105185405Y-106299171D01*
X105151379Y-106236859D01*
X105148500Y-106210076D01*
X105148500Y-104969720D01*
X105171287Y-104897449D01*
X105243940Y-104793690D01*
X105247097Y-104789182D01*
X105249420Y-104784200D01*
X105249423Y-104784195D01*
X105338947Y-104592209D01*
X105338948Y-104592208D01*
X105341270Y-104587227D01*
X105398944Y-104371986D01*
X105418365Y-104150000D01*
X128261635Y-104150000D01*
X128281056Y-104371986D01*
X128338730Y-104587227D01*
X128341052Y-104592208D01*
X128341053Y-104592209D01*
X128430577Y-104784195D01*
X128430580Y-104784200D01*
X128432903Y-104789182D01*
X128560716Y-104971717D01*
X128718283Y-105129284D01*
X128900817Y-105257097D01*
X128905799Y-105259420D01*
X128905804Y-105259423D01*
X129097791Y-105348947D01*
X129102773Y-105351270D01*
X129108081Y-105352692D01*
X129108083Y-105352693D01*
X129174464Y-105370480D01*
X129318014Y-105408944D01*
X129540000Y-105428365D01*
X129761986Y-105408944D01*
X129905536Y-105370480D01*
X129971917Y-105352693D01*
X129971919Y-105352692D01*
X129977227Y-105351270D01*
X129982209Y-105348947D01*
X130174196Y-105259423D01*
X130174201Y-105259420D01*
X130179183Y-105257097D01*
X130361717Y-105129284D01*
X130519284Y-104971717D01*
X130647097Y-104789182D01*
X130649420Y-104784200D01*
X130649423Y-104784195D01*
X130738947Y-104592209D01*
X130738948Y-104592208D01*
X130741270Y-104587227D01*
X130798944Y-104371986D01*
X130818365Y-104150000D01*
X130798944Y-103928014D01*
X130741270Y-103712773D01*
X130728724Y-103685867D01*
X130700187Y-103624669D01*
X158522001Y-103624669D01*
X158522371Y-103631490D01*
X158527895Y-103682352D01*
X158531521Y-103697604D01*
X158576676Y-103818054D01*
X158585214Y-103833649D01*
X158661715Y-103935724D01*
X158674276Y-103948285D01*
X158776351Y-104024786D01*
X158791946Y-104033324D01*
X158912394Y-104078478D01*
X158927649Y-104082105D01*
X158978514Y-104087631D01*
X158985328Y-104088000D01*
X159747885Y-104088000D01*
X159763124Y-104083525D01*
X159764329Y-104082135D01*
X159766000Y-104074452D01*
X159766000Y-104069884D01*
X160274000Y-104069884D01*
X160278475Y-104085123D01*
X160279865Y-104086328D01*
X160287548Y-104087999D01*
X161054669Y-104087999D01*
X161061490Y-104087629D01*
X161112352Y-104082105D01*
X161127604Y-104078479D01*
X161248054Y-104033324D01*
X161263649Y-104024786D01*
X161365724Y-103948285D01*
X161378285Y-103935724D01*
X161454786Y-103833649D01*
X161463324Y-103818054D01*
X161508478Y-103697606D01*
X161512105Y-103682351D01*
X161517631Y-103631486D01*
X161518000Y-103624672D01*
X161518000Y-101872115D01*
X161513525Y-101856876D01*
X161512135Y-101855671D01*
X161504452Y-101854000D01*
X160292115Y-101854000D01*
X160276876Y-101858475D01*
X160275671Y-101859865D01*
X160274000Y-101867548D01*
X160274000Y-104069884D01*
X159766000Y-104069884D01*
X159766000Y-101872115D01*
X159761525Y-101856876D01*
X159760135Y-101855671D01*
X159752452Y-101854000D01*
X158540116Y-101854000D01*
X158524877Y-101858475D01*
X158523672Y-101859865D01*
X158522001Y-101867548D01*
X158522001Y-103624669D01*
X130700187Y-103624669D01*
X130649423Y-103515805D01*
X130649420Y-103515800D01*
X130647097Y-103510818D01*
X130519284Y-103328283D01*
X130361717Y-103170716D01*
X130179183Y-103042903D01*
X130174201Y-103040580D01*
X130174196Y-103040577D01*
X130074728Y-102994195D01*
X130021443Y-102947278D01*
X130001982Y-102879001D01*
X130022524Y-102811041D01*
X130074728Y-102765805D01*
X130174196Y-102719423D01*
X130174201Y-102719420D01*
X130179183Y-102717097D01*
X130361717Y-102589284D01*
X130519284Y-102431717D01*
X130647097Y-102249182D01*
X130649420Y-102244200D01*
X130649423Y-102244195D01*
X130738947Y-102052209D01*
X130738948Y-102052208D01*
X130741270Y-102047227D01*
X130798944Y-101831986D01*
X130818365Y-101610000D01*
X130798944Y-101388014D01*
X130782832Y-101327885D01*
X158522000Y-101327885D01*
X158526475Y-101343124D01*
X158527865Y-101344329D01*
X158535548Y-101346000D01*
X159747885Y-101346000D01*
X159763124Y-101341525D01*
X159764329Y-101340135D01*
X159766000Y-101332452D01*
X159766000Y-101327885D01*
X160274000Y-101327885D01*
X160278475Y-101343124D01*
X160279865Y-101344329D01*
X160287548Y-101346000D01*
X161499884Y-101346000D01*
X161515123Y-101341525D01*
X161516328Y-101340135D01*
X161517999Y-101332452D01*
X161517999Y-99575331D01*
X161517629Y-99568510D01*
X161512105Y-99517648D01*
X161508479Y-99502396D01*
X161463324Y-99381946D01*
X161454786Y-99366351D01*
X161378285Y-99264276D01*
X161365724Y-99251715D01*
X161263649Y-99175214D01*
X161248054Y-99166676D01*
X161127606Y-99121522D01*
X161112351Y-99117895D01*
X161061486Y-99112369D01*
X161054672Y-99112000D01*
X160292115Y-99112000D01*
X160276876Y-99116475D01*
X160275671Y-99117865D01*
X160274000Y-99125548D01*
X160274000Y-101327885D01*
X159766000Y-101327885D01*
X159766000Y-99130116D01*
X159761525Y-99114877D01*
X159760135Y-99113672D01*
X159752452Y-99112001D01*
X158985331Y-99112001D01*
X158978510Y-99112371D01*
X158927648Y-99117895D01*
X158912396Y-99121521D01*
X158791946Y-99166676D01*
X158776351Y-99175214D01*
X158674276Y-99251715D01*
X158661715Y-99264276D01*
X158585214Y-99366351D01*
X158576676Y-99381946D01*
X158531522Y-99502394D01*
X158527895Y-99517649D01*
X158522369Y-99568514D01*
X158522000Y-99575328D01*
X158522000Y-101327885D01*
X130782832Y-101327885D01*
X130741270Y-101172773D01*
X130649540Y-100976056D01*
X130649423Y-100975805D01*
X130649420Y-100975800D01*
X130647097Y-100970818D01*
X130519284Y-100788283D01*
X130361717Y-100630716D01*
X130179183Y-100502903D01*
X130174201Y-100500580D01*
X130174196Y-100500577D01*
X130074728Y-100454195D01*
X130021443Y-100407278D01*
X130001982Y-100339001D01*
X130022524Y-100271041D01*
X130074728Y-100225805D01*
X130174196Y-100179423D01*
X130174201Y-100179420D01*
X130179183Y-100177097D01*
X130361717Y-100049284D01*
X130519284Y-99891717D01*
X130536388Y-99867291D01*
X130643940Y-99713690D01*
X130647097Y-99709182D01*
X130649420Y-99704200D01*
X130649423Y-99704195D01*
X130738947Y-99512209D01*
X130738948Y-99512208D01*
X130741270Y-99507227D01*
X130798944Y-99291986D01*
X130818365Y-99070000D01*
X130798944Y-98848014D01*
X130741270Y-98632773D01*
X130738947Y-98627791D01*
X130649423Y-98435805D01*
X130649420Y-98435800D01*
X130647097Y-98430818D01*
X130519284Y-98248283D01*
X130361717Y-98090716D01*
X130179183Y-97962903D01*
X130174201Y-97960580D01*
X130174196Y-97960577D01*
X130074728Y-97914195D01*
X130021443Y-97867278D01*
X130001982Y-97799001D01*
X130022524Y-97731041D01*
X130074728Y-97685805D01*
X130174196Y-97639423D01*
X130174201Y-97639420D01*
X130179183Y-97637097D01*
X130361717Y-97509284D01*
X130519284Y-97351717D01*
X130647097Y-97169182D01*
X130649420Y-97164200D01*
X130649423Y-97164195D01*
X130738947Y-96972209D01*
X130738948Y-96972208D01*
X130741270Y-96967227D01*
X130798944Y-96751986D01*
X130818365Y-96530000D01*
X130798944Y-96308014D01*
X130741270Y-96092773D01*
X130738947Y-96087791D01*
X130649423Y-95895805D01*
X130649420Y-95895800D01*
X130647097Y-95890818D01*
X130519284Y-95708283D01*
X130361717Y-95550716D01*
X130179183Y-95422903D01*
X130174201Y-95420580D01*
X130174196Y-95420577D01*
X130074728Y-95374195D01*
X130021443Y-95327278D01*
X130001982Y-95259001D01*
X130022524Y-95191041D01*
X130074728Y-95145805D01*
X130174196Y-95099423D01*
X130174201Y-95099420D01*
X130179183Y-95097097D01*
X130361717Y-94969284D01*
X130519284Y-94811717D01*
X130647097Y-94629182D01*
X130649420Y-94624200D01*
X130649423Y-94624195D01*
X130738947Y-94432209D01*
X130738948Y-94432208D01*
X130741270Y-94427227D01*
X130798944Y-94211986D01*
X130818365Y-93990000D01*
X130798944Y-93768014D01*
X130741270Y-93552773D01*
X130738947Y-93547791D01*
X130649423Y-93355805D01*
X130649420Y-93355800D01*
X130647097Y-93350818D01*
X130519284Y-93168283D01*
X130361717Y-93010716D01*
X130179183Y-92882903D01*
X130174201Y-92880580D01*
X130174196Y-92880577D01*
X130074728Y-92834195D01*
X130021443Y-92787278D01*
X130001982Y-92719001D01*
X130022524Y-92651041D01*
X130074728Y-92605805D01*
X130174196Y-92559423D01*
X130174201Y-92559420D01*
X130179183Y-92557097D01*
X130361717Y-92429284D01*
X130519284Y-92271717D01*
X130647097Y-92089182D01*
X130649420Y-92084200D01*
X130649423Y-92084195D01*
X130738947Y-91892209D01*
X130738948Y-91892208D01*
X130741270Y-91887227D01*
X130798944Y-91671986D01*
X130818365Y-91450000D01*
X130798944Y-91228014D01*
X130758742Y-91077978D01*
X130742693Y-91018083D01*
X130742692Y-91018081D01*
X130741270Y-91012773D01*
X130649540Y-90816056D01*
X130649423Y-90815805D01*
X130649420Y-90815800D01*
X130647097Y-90810818D01*
X130519284Y-90628283D01*
X130361717Y-90470716D01*
X130179183Y-90342903D01*
X130174201Y-90340580D01*
X130174196Y-90340577D01*
X130074728Y-90294195D01*
X130021443Y-90247278D01*
X130001982Y-90179001D01*
X130022524Y-90111041D01*
X130074728Y-90065805D01*
X130174196Y-90019423D01*
X130174201Y-90019420D01*
X130179183Y-90017097D01*
X130287450Y-89941287D01*
X130359721Y-89918500D01*
X134548157Y-89918500D01*
X134561764Y-89919237D01*
X134593262Y-89922659D01*
X134593267Y-89922659D01*
X134599388Y-89923324D01*
X134625638Y-89921027D01*
X134649388Y-89918950D01*
X134654214Y-89918621D01*
X134656686Y-89918500D01*
X134659769Y-89918500D01*
X134671738Y-89917326D01*
X134702506Y-89914310D01*
X134703819Y-89914188D01*
X134748084Y-89910315D01*
X134796413Y-89906087D01*
X134801532Y-89904600D01*
X134806833Y-89904080D01*
X134895834Y-89877209D01*
X134896967Y-89876874D01*
X134980414Y-89852630D01*
X134980418Y-89852628D01*
X134986336Y-89850909D01*
X134991068Y-89848456D01*
X134996169Y-89846916D01*
X135008360Y-89840434D01*
X135078260Y-89803269D01*
X135079426Y-89802657D01*
X135156453Y-89762729D01*
X135161926Y-89759892D01*
X135166089Y-89756569D01*
X135170796Y-89754066D01*
X135176997Y-89749009D01*
X135203729Y-89727206D01*
X135242918Y-89695245D01*
X135243774Y-89694554D01*
X135282973Y-89663262D01*
X135285477Y-89660758D01*
X135286195Y-89660116D01*
X135290528Y-89656415D01*
X135324062Y-89629065D01*
X135353288Y-89593737D01*
X135361277Y-89584958D01*
X139509530Y-85436705D01*
X143660657Y-81285577D01*
X143722969Y-81251551D01*
X143793784Y-81256616D01*
X143850620Y-81299163D01*
X143875062Y-81361501D01*
X143880193Y-81410316D01*
X143886458Y-81469928D01*
X143945473Y-81651556D01*
X144040960Y-81816944D01*
X144168747Y-81958866D01*
X144323248Y-82071118D01*
X144329276Y-82073802D01*
X144329278Y-82073803D01*
X144491681Y-82146109D01*
X144497712Y-82148794D01*
X144588944Y-82168186D01*
X144678056Y-82187128D01*
X144678061Y-82187128D01*
X144684513Y-82188500D01*
X144875487Y-82188500D01*
X144881939Y-82187128D01*
X144881944Y-82187128D01*
X144971056Y-82168186D01*
X145062288Y-82148794D01*
X145068319Y-82146109D01*
X145230722Y-82073803D01*
X145230724Y-82073802D01*
X145236752Y-82071118D01*
X145391253Y-81958866D01*
X145519040Y-81816944D01*
X145525071Y-81806498D01*
X145576454Y-81757506D01*
X145634189Y-81743500D01*
X148745510Y-81743500D01*
X148817781Y-81766287D01*
X148881961Y-81811226D01*
X148922323Y-81839488D01*
X148927305Y-81841811D01*
X148927310Y-81841814D01*
X149032373Y-81890805D01*
X149085658Y-81937722D01*
X149105119Y-82005999D01*
X149084577Y-82073959D01*
X149032373Y-82119195D01*
X148927311Y-82168186D01*
X148927306Y-82168189D01*
X148922324Y-82170512D01*
X148917817Y-82173668D01*
X148917815Y-82173669D01*
X148744730Y-82294864D01*
X148744727Y-82294866D01*
X148740219Y-82298023D01*
X148583023Y-82455219D01*
X148579866Y-82459727D01*
X148579864Y-82459730D01*
X148461369Y-82628959D01*
X148455512Y-82637324D01*
X148453189Y-82642306D01*
X148453186Y-82642311D01*
X148408216Y-82738750D01*
X148361298Y-82792035D01*
X148294021Y-82811500D01*
X147270231Y-82811500D01*
X147267175Y-82811800D01*
X147267168Y-82811800D01*
X147217147Y-82816705D01*
X147123167Y-82825920D01*
X147117266Y-82827702D01*
X147117264Y-82827702D01*
X147051502Y-82847557D01*
X146933831Y-82883084D01*
X146759204Y-82975934D01*
X146711024Y-83015229D01*
X146610713Y-83097040D01*
X146610710Y-83097043D01*
X146605938Y-83100935D01*
X146602011Y-83105682D01*
X146602009Y-83105684D01*
X146483799Y-83248575D01*
X146483797Y-83248579D01*
X146479870Y-83253325D01*
X146385802Y-83427299D01*
X146327318Y-83616232D01*
X146306645Y-83812925D01*
X146324570Y-84009888D01*
X146326308Y-84015794D01*
X146326309Y-84015798D01*
X146348227Y-84090270D01*
X146380410Y-84199619D01*
X146383263Y-84205077D01*
X146383265Y-84205081D01*
X146405745Y-84248080D01*
X146472040Y-84374890D01*
X146595968Y-84529025D01*
X146600692Y-84532989D01*
X146607933Y-84539065D01*
X146747474Y-84656154D01*
X146752872Y-84659121D01*
X146752877Y-84659125D01*
X146850253Y-84712657D01*
X146920787Y-84751433D01*
X146926654Y-84753294D01*
X146926656Y-84753295D01*
X147103436Y-84809373D01*
X147109306Y-84811235D01*
X147263227Y-84828500D01*
X148953157Y-84828500D01*
X148966764Y-84829237D01*
X148998262Y-84832659D01*
X148998267Y-84832659D01*
X149004388Y-84833324D01*
X149030638Y-84831027D01*
X149054388Y-84828950D01*
X149059214Y-84828621D01*
X149061686Y-84828500D01*
X149064769Y-84828500D01*
X149076738Y-84827326D01*
X149107506Y-84824310D01*
X149108819Y-84824188D01*
X149153084Y-84820315D01*
X149201413Y-84816087D01*
X149206532Y-84814600D01*
X149211833Y-84814080D01*
X149300834Y-84787209D01*
X149301967Y-84786874D01*
X149385414Y-84762630D01*
X149385418Y-84762628D01*
X149391336Y-84760909D01*
X149396068Y-84758456D01*
X149401169Y-84756916D01*
X149417060Y-84748467D01*
X149483260Y-84713269D01*
X149484426Y-84712657D01*
X149561453Y-84672729D01*
X149566926Y-84669892D01*
X149571089Y-84666569D01*
X149575796Y-84664066D01*
X149647918Y-84605245D01*
X149648774Y-84604554D01*
X149687973Y-84573262D01*
X149690477Y-84570758D01*
X149691195Y-84570116D01*
X149695524Y-84566418D01*
X149703837Y-84559638D01*
X149770586Y-84532536D01*
X149770564Y-84532413D01*
X149771139Y-84532312D01*
X149772490Y-84531763D01*
X149781463Y-84530978D01*
X149925051Y-84492503D01*
X149990886Y-84474863D01*
X149990888Y-84474862D01*
X149996196Y-84473440D01*
X150001178Y-84471117D01*
X150192690Y-84381814D01*
X150192695Y-84381811D01*
X150197677Y-84379488D01*
X150358002Y-84267227D01*
X150375270Y-84255136D01*
X150375273Y-84255134D01*
X150379781Y-84251977D01*
X150536977Y-84094781D01*
X150566943Y-84051986D01*
X150661331Y-83917185D01*
X150661332Y-83917183D01*
X150664488Y-83912676D01*
X150666811Y-83907694D01*
X150666814Y-83907689D01*
X150715805Y-83802627D01*
X150762723Y-83749342D01*
X150831000Y-83729881D01*
X150898960Y-83750423D01*
X150944195Y-83802627D01*
X150993186Y-83907689D01*
X150993189Y-83907694D01*
X150995512Y-83912676D01*
X150998668Y-83917183D01*
X150998669Y-83917185D01*
X151093058Y-84051986D01*
X151123023Y-84094781D01*
X151280219Y-84251977D01*
X151284729Y-84255135D01*
X151284735Y-84255140D01*
X151337770Y-84292275D01*
X151382099Y-84347732D01*
X151391500Y-84395488D01*
X151391500Y-86409769D01*
X151391800Y-86412825D01*
X151391800Y-86412832D01*
X151392530Y-86420273D01*
X151405920Y-86556833D01*
X151463084Y-86746169D01*
X151555934Y-86920796D01*
X151597463Y-86971715D01*
X151677040Y-87069287D01*
X151677041Y-87069288D01*
X151680935Y-87074062D01*
X151685682Y-87077989D01*
X151685684Y-87077991D01*
X151828575Y-87196201D01*
X151828579Y-87196203D01*
X151833325Y-87200130D01*
X152007299Y-87294198D01*
X152196232Y-87352682D01*
X152202357Y-87353326D01*
X152202358Y-87353326D01*
X152386796Y-87372711D01*
X152386798Y-87372711D01*
X152392925Y-87373355D01*
X152475424Y-87365847D01*
X152583749Y-87355989D01*
X152583752Y-87355988D01*
X152589888Y-87355430D01*
X152595794Y-87353692D01*
X152595798Y-87353691D01*
X152700924Y-87322751D01*
X152779619Y-87299590D01*
X152785077Y-87296737D01*
X152785081Y-87296735D01*
X152875853Y-87249280D01*
X152954890Y-87207960D01*
X153109025Y-87084032D01*
X153236154Y-86932526D01*
X153239121Y-86927128D01*
X153239125Y-86927123D01*
X153328467Y-86764608D01*
X153331433Y-86759213D01*
X153333846Y-86751608D01*
X153389373Y-86576564D01*
X153389373Y-86576563D01*
X153391235Y-86570694D01*
X153408500Y-86416773D01*
X153408500Y-83636843D01*
X153409237Y-83623236D01*
X153412659Y-83591738D01*
X153412659Y-83591733D01*
X153413324Y-83585612D01*
X153408950Y-83535612D01*
X153408621Y-83530786D01*
X153408500Y-83528314D01*
X153408500Y-83525231D01*
X153405679Y-83496463D01*
X153404310Y-83482494D01*
X153404188Y-83481181D01*
X153399000Y-83421881D01*
X153396087Y-83388587D01*
X153394600Y-83383468D01*
X153394080Y-83378167D01*
X153379575Y-83330125D01*
X153375014Y-83285977D01*
X153374873Y-83285977D01*
X153374873Y-83284617D01*
X153374677Y-83282722D01*
X153375353Y-83275000D01*
X153355978Y-83053537D01*
X153301632Y-82850716D01*
X153299863Y-82844114D01*
X153299862Y-82844112D01*
X153298440Y-82838804D01*
X153285708Y-82811500D01*
X153206814Y-82642311D01*
X153206811Y-82642306D01*
X153204488Y-82637324D01*
X153198631Y-82628959D01*
X153080136Y-82459730D01*
X153080134Y-82459727D01*
X153076977Y-82455219D01*
X152919781Y-82298023D01*
X152915273Y-82294866D01*
X152915270Y-82294864D01*
X152826390Y-82232630D01*
X152737677Y-82170512D01*
X152732695Y-82168189D01*
X152732690Y-82168186D01*
X152635918Y-82123061D01*
X152627627Y-82119195D01*
X152574342Y-82072278D01*
X152554881Y-82004001D01*
X152575423Y-81936041D01*
X152627627Y-81890805D01*
X152732690Y-81841814D01*
X152732695Y-81841811D01*
X152737677Y-81839488D01*
X152778040Y-81811226D01*
X152842219Y-81766287D01*
X152914490Y-81743500D01*
X159048493Y-81743500D01*
X159116614Y-81763502D01*
X159159744Y-81810347D01*
X159175934Y-81840796D01*
X159179824Y-81845566D01*
X159179827Y-81845570D01*
X159297040Y-81989287D01*
X159297043Y-81989290D01*
X159300935Y-81994062D01*
X159305682Y-81997989D01*
X159305684Y-81997991D01*
X159448575Y-82116201D01*
X159448579Y-82116203D01*
X159453325Y-82120130D01*
X159627299Y-82214198D01*
X159816232Y-82272682D01*
X159822357Y-82273326D01*
X159822358Y-82273326D01*
X160006796Y-82292711D01*
X160006798Y-82292711D01*
X160012925Y-82293355D01*
X160095424Y-82285847D01*
X160203749Y-82275989D01*
X160203752Y-82275988D01*
X160209888Y-82275430D01*
X160215794Y-82273692D01*
X160215798Y-82273691D01*
X160355312Y-82232630D01*
X160399619Y-82219590D01*
X160405077Y-82216737D01*
X160405081Y-82216735D01*
X160540174Y-82146109D01*
X160574890Y-82127960D01*
X160729025Y-82004032D01*
X160856154Y-81852526D01*
X160859121Y-81847128D01*
X160859125Y-81847123D01*
X160948467Y-81684608D01*
X160951433Y-81679213D01*
X160953846Y-81671608D01*
X161009373Y-81496564D01*
X161009373Y-81496563D01*
X161011235Y-81490694D01*
X161028500Y-81336773D01*
X161028500Y-63561840D01*
X161029237Y-63548232D01*
X161032659Y-63516736D01*
X161032659Y-63516732D01*
X161033324Y-63510611D01*
X161028950Y-63460609D01*
X161028621Y-63455784D01*
X161028500Y-63453313D01*
X161028500Y-63450231D01*
X161024309Y-63407489D01*
X161024187Y-63406174D01*
X161021364Y-63373913D01*
X161016087Y-63313587D01*
X161014600Y-63308468D01*
X161014080Y-63303167D01*
X160987199Y-63214133D01*
X160986864Y-63213000D01*
X160962627Y-63129578D01*
X160962625Y-63129574D01*
X160960908Y-63123663D01*
X160958457Y-63118934D01*
X160956916Y-63113831D01*
X160913230Y-63031669D01*
X160912683Y-63030627D01*
X160872728Y-62953545D01*
X160872727Y-62953544D01*
X160869892Y-62948074D01*
X160866569Y-62943911D01*
X160864066Y-62939204D01*
X160805263Y-62867105D01*
X160804500Y-62866160D01*
X160773261Y-62827027D01*
X160770770Y-62824536D01*
X160770120Y-62823809D01*
X160766408Y-62819463D01*
X160742955Y-62790708D01*
X160739065Y-62785938D01*
X160734323Y-62782015D01*
X160734321Y-62782013D01*
X160703727Y-62756703D01*
X160694947Y-62748713D01*
X158157925Y-60211691D01*
X158153403Y-60207976D01*
X158075987Y-60144386D01*
X158043739Y-60117897D01*
X157869437Y-60024438D01*
X157733901Y-59983000D01*
X157686200Y-59968416D01*
X157686198Y-59968416D01*
X157680302Y-59966613D01*
X157622449Y-59960736D01*
X157489666Y-59947248D01*
X157489661Y-59947248D01*
X157483538Y-59946626D01*
X157345548Y-59959670D01*
X157332104Y-59960941D01*
X157320246Y-59961500D01*
X130359721Y-59961500D01*
X130287450Y-59938713D01*
X130249317Y-59912012D01*
X130179183Y-59862903D01*
X130174201Y-59860580D01*
X130174196Y-59860577D01*
X130074136Y-59813919D01*
X130020851Y-59767002D01*
X130001390Y-59698725D01*
X130021932Y-59630765D01*
X130074136Y-59585529D01*
X130173953Y-59538984D01*
X130183431Y-59533512D01*
X130227920Y-59502359D01*
X130236294Y-59491883D01*
X130229226Y-59478436D01*
X129552812Y-58802022D01*
X129538868Y-58794408D01*
X129537035Y-58794539D01*
X129530420Y-58798790D01*
X128850053Y-59479157D01*
X128843623Y-59490932D01*
X128852916Y-59502945D01*
X128896569Y-59533512D01*
X128906051Y-59538986D01*
X129005864Y-59585529D01*
X129059150Y-59632446D01*
X129078611Y-59700723D01*
X129058070Y-59768683D01*
X129005865Y-59813919D01*
X128905805Y-59860577D01*
X128905800Y-59860580D01*
X128900818Y-59862903D01*
X128801119Y-59932713D01*
X128729303Y-59983000D01*
X128718283Y-59990716D01*
X128560716Y-60148283D01*
X128557559Y-60152791D01*
X128557557Y-60152794D01*
X128513630Y-60215528D01*
X128432903Y-60330818D01*
X128430580Y-60335800D01*
X128430577Y-60335805D01*
X128363690Y-60479245D01*
X128338730Y-60532773D01*
X128337308Y-60538081D01*
X128337307Y-60538083D01*
X128329862Y-60565869D01*
X128281056Y-60748014D01*
X128261635Y-60970000D01*
X128281056Y-61191986D01*
X128297179Y-61252158D01*
X128330828Y-61377735D01*
X128338730Y-61407227D01*
X128341052Y-61412208D01*
X128341053Y-61412209D01*
X128430577Y-61604195D01*
X128430580Y-61604200D01*
X128432903Y-61609182D01*
X128560716Y-61791717D01*
X128718283Y-61949284D01*
X128722792Y-61952441D01*
X128722794Y-61952443D01*
X128788573Y-61998502D01*
X128900817Y-62077097D01*
X128905802Y-62079421D01*
X128905808Y-62079425D01*
X129005272Y-62125805D01*
X129058558Y-62172722D01*
X129078019Y-62240999D01*
X129057478Y-62308959D01*
X129005273Y-62354195D01*
X128905805Y-62400577D01*
X128905800Y-62400580D01*
X128900818Y-62402903D01*
X128810181Y-62466368D01*
X128732692Y-62520627D01*
X128718283Y-62530716D01*
X128560716Y-62688283D01*
X128557559Y-62692791D01*
X128557557Y-62692794D01*
X128512808Y-62756703D01*
X128432903Y-62870818D01*
X128430580Y-62875800D01*
X128430577Y-62875805D01*
X128364800Y-63016865D01*
X128338730Y-63072773D01*
X128337308Y-63078081D01*
X128337307Y-63078083D01*
X128327900Y-63113192D01*
X128281056Y-63288014D01*
X128261635Y-63510000D01*
X128281056Y-63731986D01*
X128282480Y-63737299D01*
X128330828Y-63917735D01*
X128338730Y-63947227D01*
X128341052Y-63952208D01*
X128341053Y-63952209D01*
X128430577Y-64144195D01*
X128430580Y-64144200D01*
X128432903Y-64149182D01*
X128560716Y-64331717D01*
X128718283Y-64489284D01*
X128722792Y-64492441D01*
X128722794Y-64492443D01*
X128792550Y-64541287D01*
X128900817Y-64617097D01*
X128905802Y-64619421D01*
X128905808Y-64619425D01*
X129005272Y-64665805D01*
X129058558Y-64712722D01*
X129078019Y-64780999D01*
X129057478Y-64848959D01*
X129005273Y-64894195D01*
X128905805Y-64940577D01*
X128905800Y-64940580D01*
X128900818Y-64942903D01*
X128891351Y-64949532D01*
X128754191Y-65045573D01*
X128718283Y-65070716D01*
X128560716Y-65228283D01*
X128557559Y-65232791D01*
X128557557Y-65232794D01*
X128541149Y-65256227D01*
X128432903Y-65410818D01*
X128430580Y-65415800D01*
X128430577Y-65415805D01*
X128364800Y-65556865D01*
X128338730Y-65612773D01*
X128337308Y-65618081D01*
X128337307Y-65618083D01*
X128329479Y-65647299D01*
X128281056Y-65828014D01*
X128261635Y-66050000D01*
X128281056Y-66271986D01*
X128338730Y-66487227D01*
X128341052Y-66492208D01*
X128341053Y-66492209D01*
X128430577Y-66684195D01*
X128430580Y-66684200D01*
X128432903Y-66689182D01*
X128560716Y-66871717D01*
X128718283Y-67029284D01*
X128722792Y-67032441D01*
X128722794Y-67032443D01*
X128798110Y-67085180D01*
X128900817Y-67157097D01*
X128905802Y-67159421D01*
X128905808Y-67159425D01*
X129005272Y-67205805D01*
X129058558Y-67252722D01*
X129078019Y-67320999D01*
X129057478Y-67388959D01*
X129005273Y-67434195D01*
X128905805Y-67480577D01*
X128905800Y-67480580D01*
X128900818Y-67482903D01*
X128891351Y-67489532D01*
X128748043Y-67589878D01*
X128718283Y-67610716D01*
X128560716Y-67768283D01*
X128557559Y-67772791D01*
X128557557Y-67772794D01*
X128504472Y-67848608D01*
X128432903Y-67950818D01*
X128430580Y-67955800D01*
X128430577Y-67955805D01*
X128348299Y-68132252D01*
X128338730Y-68152773D01*
X128337308Y-68158081D01*
X128337307Y-68158083D01*
X128328182Y-68192138D01*
X128281056Y-68368014D01*
X128261635Y-68590000D01*
X128281056Y-68811986D01*
X128338730Y-69027227D01*
X128341052Y-69032208D01*
X128341053Y-69032209D01*
X128430577Y-69224195D01*
X128430580Y-69224200D01*
X128432903Y-69229182D01*
X128560716Y-69411717D01*
X128718283Y-69569284D01*
X128722792Y-69572441D01*
X128722794Y-69572443D01*
X128798110Y-69625180D01*
X128900817Y-69697097D01*
X128905802Y-69699421D01*
X128905808Y-69699425D01*
X129005272Y-69745805D01*
X129058558Y-69792722D01*
X129078019Y-69860999D01*
X129057478Y-69928959D01*
X129005273Y-69974195D01*
X128905805Y-70020577D01*
X128905800Y-70020580D01*
X128900818Y-70022903D01*
X128718283Y-70150716D01*
X128560716Y-70308283D01*
X128557559Y-70312791D01*
X128557557Y-70312794D01*
X128528143Y-70354802D01*
X128432903Y-70490818D01*
X128430580Y-70495800D01*
X128430577Y-70495805D01*
X128409546Y-70540907D01*
X128338730Y-70692773D01*
X128281056Y-70908014D01*
X128261635Y-71130000D01*
X128281056Y-71351986D01*
X128338730Y-71567227D01*
X128341052Y-71572208D01*
X128341053Y-71572209D01*
X128430577Y-71764195D01*
X128430580Y-71764200D01*
X128432903Y-71769182D01*
X128453688Y-71798866D01*
X128529571Y-71907237D01*
X128560716Y-71951717D01*
X128718283Y-72109284D01*
X128900817Y-72237097D01*
X128905802Y-72239421D01*
X128905808Y-72239425D01*
X129005864Y-72286081D01*
X129059150Y-72332998D01*
X129078611Y-72401275D01*
X129058070Y-72469235D01*
X129005865Y-72514471D01*
X128906056Y-72561012D01*
X128896561Y-72566495D01*
X128852081Y-72597640D01*
X128843706Y-72608117D01*
X128850774Y-72621564D01*
X129527188Y-73297978D01*
X129541132Y-73305592D01*
X129542965Y-73305461D01*
X129549580Y-73301210D01*
X130229947Y-72620843D01*
X130236377Y-72609068D01*
X130227084Y-72597055D01*
X130183431Y-72566488D01*
X130173953Y-72561016D01*
X130074136Y-72514471D01*
X130020851Y-72467554D01*
X130001390Y-72399277D01*
X130021932Y-72331317D01*
X130074136Y-72286081D01*
X130174196Y-72239423D01*
X130174201Y-72239420D01*
X130179183Y-72237097D01*
X130361717Y-72109284D01*
X130420596Y-72050405D01*
X130482908Y-72016379D01*
X130509691Y-72013500D01*
X134211852Y-72013500D01*
X134279973Y-72033502D01*
X134300947Y-72050405D01*
X136372994Y-74122452D01*
X136393018Y-74148547D01*
X136420960Y-74196944D01*
X136425378Y-74201851D01*
X136425379Y-74201852D01*
X136543441Y-74332973D01*
X136548747Y-74338866D01*
X136625349Y-74394521D01*
X136687500Y-74439676D01*
X136703248Y-74451118D01*
X136709276Y-74453802D01*
X136709278Y-74453803D01*
X136784303Y-74487206D01*
X136877712Y-74528794D01*
X136989310Y-74552515D01*
X137058057Y-74567128D01*
X137058060Y-74567128D01*
X137064513Y-74568500D01*
X137071116Y-74568500D01*
X137074571Y-74568863D01*
X137140228Y-74595874D01*
X137180859Y-74654095D01*
X137183564Y-74725040D01*
X137150498Y-74783268D01*
X135821338Y-76112428D01*
X135759026Y-76146454D01*
X135688211Y-76141389D01*
X135631375Y-76098842D01*
X135606762Y-76034753D01*
X135605430Y-76020112D01*
X135549590Y-75830381D01*
X135457960Y-75655110D01*
X135334032Y-75500975D01*
X135182526Y-75373846D01*
X135177128Y-75370879D01*
X135177123Y-75370875D01*
X135014608Y-75281533D01*
X135014609Y-75281533D01*
X135009213Y-75278567D01*
X135003346Y-75276706D01*
X135003344Y-75276705D01*
X134826564Y-75220627D01*
X134826563Y-75220627D01*
X134820694Y-75218765D01*
X134666773Y-75201500D01*
X130359721Y-75201500D01*
X130287450Y-75178713D01*
X130233262Y-75140770D01*
X130179183Y-75102903D01*
X130174201Y-75100580D01*
X130174196Y-75100577D01*
X130074136Y-75053919D01*
X130020851Y-75007002D01*
X130001390Y-74938725D01*
X130021932Y-74870765D01*
X130074136Y-74825529D01*
X130173953Y-74778984D01*
X130183431Y-74773512D01*
X130227920Y-74742359D01*
X130236294Y-74731883D01*
X130229226Y-74718436D01*
X129552812Y-74042022D01*
X129538868Y-74034408D01*
X129537035Y-74034539D01*
X129530420Y-74038790D01*
X128850053Y-74719157D01*
X128843623Y-74730932D01*
X128852916Y-74742945D01*
X128896569Y-74773512D01*
X128906051Y-74778986D01*
X129005864Y-74825529D01*
X129059150Y-74872446D01*
X129078611Y-74940723D01*
X129058070Y-75008683D01*
X129005865Y-75053919D01*
X128905805Y-75100577D01*
X128905800Y-75100580D01*
X128900818Y-75102903D01*
X128846739Y-75140770D01*
X128727712Y-75224114D01*
X128718283Y-75230716D01*
X128560716Y-75388283D01*
X128557559Y-75392791D01*
X128557557Y-75392794D01*
X128527127Y-75436253D01*
X128432903Y-75570818D01*
X128430580Y-75575800D01*
X128430577Y-75575805D01*
X128396201Y-75649525D01*
X128338730Y-75772773D01*
X128337308Y-75778081D01*
X128337307Y-75778083D01*
X128324757Y-75824919D01*
X128281056Y-75988014D01*
X128261635Y-76210000D01*
X128281056Y-76431986D01*
X128292523Y-76474781D01*
X128337294Y-76641866D01*
X128338730Y-76647227D01*
X128341052Y-76652208D01*
X128341053Y-76652209D01*
X128430577Y-76844195D01*
X128430580Y-76844200D01*
X128432903Y-76849182D01*
X128485292Y-76924001D01*
X128536099Y-76996560D01*
X128560716Y-77031717D01*
X128718283Y-77189284D01*
X128722792Y-77192441D01*
X128722794Y-77192443D01*
X128773236Y-77227763D01*
X128900817Y-77317097D01*
X128905802Y-77319421D01*
X128905808Y-77319425D01*
X129005272Y-77365805D01*
X129058558Y-77412722D01*
X129078019Y-77480999D01*
X129057478Y-77548959D01*
X129005273Y-77594195D01*
X128905805Y-77640577D01*
X128905800Y-77640580D01*
X128900818Y-77642903D01*
X128846739Y-77680770D01*
X128732692Y-77760627D01*
X128718283Y-77770716D01*
X128560716Y-77928283D01*
X128557559Y-77932791D01*
X128557557Y-77932794D01*
X128504472Y-78008608D01*
X128432903Y-78110818D01*
X128430580Y-78115800D01*
X128430577Y-78115805D01*
X128422180Y-78133813D01*
X128338730Y-78312773D01*
X128281056Y-78528014D01*
X128261635Y-78750000D01*
X128281056Y-78971986D01*
X128292523Y-79014781D01*
X128333600Y-79168080D01*
X128338730Y-79187227D01*
X128341052Y-79192208D01*
X128341053Y-79192209D01*
X128430577Y-79384195D01*
X128430580Y-79384200D01*
X128432903Y-79389182D01*
X128485292Y-79464001D01*
X128553792Y-79561828D01*
X128560716Y-79571717D01*
X128718283Y-79729284D01*
X128722792Y-79732441D01*
X128722794Y-79732443D01*
X128788573Y-79778502D01*
X128900817Y-79857097D01*
X128905802Y-79859421D01*
X128905808Y-79859425D01*
X129005272Y-79905805D01*
X129058558Y-79952722D01*
X129078019Y-80020999D01*
X129057478Y-80088959D01*
X129005273Y-80134195D01*
X128905805Y-80180577D01*
X128905800Y-80180580D01*
X128900818Y-80182903D01*
X128812713Y-80244595D01*
X128760008Y-80281500D01*
X128718283Y-80310716D01*
X128560716Y-80468283D01*
X128557559Y-80472791D01*
X128557557Y-80472794D01*
X128504472Y-80548608D01*
X128432903Y-80650818D01*
X128430580Y-80655800D01*
X128430577Y-80655805D01*
X128422180Y-80673813D01*
X128338730Y-80852773D01*
X128281056Y-81068014D01*
X128261635Y-81290000D01*
X128281056Y-81511986D01*
X128292523Y-81554781D01*
X128337294Y-81721866D01*
X128338730Y-81727227D01*
X128341052Y-81732208D01*
X128341053Y-81732209D01*
X128430577Y-81924195D01*
X128430580Y-81924200D01*
X128432903Y-81929182D01*
X128488838Y-82009065D01*
X128536099Y-82076560D01*
X128560716Y-82111717D01*
X128718283Y-82269284D01*
X128722792Y-82272441D01*
X128722794Y-82272443D01*
X128792550Y-82321287D01*
X128900817Y-82397097D01*
X128905802Y-82399421D01*
X128905808Y-82399425D01*
X129005272Y-82445805D01*
X129058558Y-82492722D01*
X129078019Y-82560999D01*
X129057478Y-82628959D01*
X129005273Y-82674195D01*
X128905805Y-82720577D01*
X128905800Y-82720580D01*
X128900818Y-82722903D01*
X128865202Y-82747842D01*
X128727712Y-82844114D01*
X128718283Y-82850716D01*
X128560716Y-83008283D01*
X128557559Y-83012791D01*
X128557557Y-83012794D01*
X128525192Y-83059016D01*
X128432903Y-83190818D01*
X128430580Y-83195800D01*
X128430577Y-83195805D01*
X128367943Y-83330125D01*
X128338730Y-83392773D01*
X128281056Y-83608014D01*
X128261635Y-83830000D01*
X128281056Y-84051986D01*
X128292523Y-84094781D01*
X128333600Y-84248080D01*
X128338730Y-84267227D01*
X128341052Y-84272208D01*
X128341053Y-84272209D01*
X128430577Y-84464195D01*
X128430580Y-84464200D01*
X128432903Y-84469182D01*
X128484430Y-84542770D01*
X128528212Y-84605296D01*
X128560716Y-84651717D01*
X128718283Y-84809284D01*
X128722792Y-84812441D01*
X128722794Y-84812443D01*
X128751848Y-84832787D01*
X128900817Y-84937097D01*
X128905802Y-84939421D01*
X128905808Y-84939425D01*
X129005272Y-84985805D01*
X129058558Y-85032722D01*
X129078019Y-85100999D01*
X129057478Y-85168959D01*
X129005273Y-85214195D01*
X128905805Y-85260577D01*
X128905800Y-85260580D01*
X128900818Y-85262903D01*
X128865202Y-85287842D01*
X128732692Y-85380627D01*
X128718283Y-85390716D01*
X128560716Y-85548283D01*
X128432903Y-85730818D01*
X128430580Y-85735800D01*
X128430577Y-85735805D01*
X128395837Y-85810306D01*
X128338730Y-85932773D01*
X128281056Y-86148014D01*
X128261635Y-86370000D01*
X128281056Y-86591986D01*
X128338730Y-86807227D01*
X128341052Y-86812208D01*
X128341053Y-86812209D01*
X128430577Y-87004195D01*
X128430580Y-87004200D01*
X128432903Y-87009182D01*
X128560716Y-87191717D01*
X128718283Y-87349284D01*
X128722792Y-87352441D01*
X128722794Y-87352443D01*
X128760007Y-87378500D01*
X128900817Y-87477097D01*
X128905802Y-87479421D01*
X128905808Y-87479425D01*
X129005272Y-87525805D01*
X129058558Y-87572722D01*
X129078019Y-87640999D01*
X129057478Y-87708959D01*
X129005273Y-87754195D01*
X128905805Y-87800577D01*
X128905800Y-87800580D01*
X128900818Y-87802903D01*
X128812713Y-87864595D01*
X128760008Y-87901500D01*
X128718283Y-87930716D01*
X128560716Y-88088283D01*
X128432903Y-88270818D01*
X128430580Y-88275800D01*
X128430577Y-88275805D01*
X128405279Y-88330058D01*
X128338730Y-88472773D01*
X128337308Y-88478081D01*
X128337307Y-88478083D01*
X128333472Y-88492397D01*
X128281056Y-88688014D01*
X128261635Y-88910000D01*
X128281056Y-89131986D01*
X128338730Y-89347227D01*
X128341052Y-89352208D01*
X128341053Y-89352209D01*
X128430577Y-89544195D01*
X128430580Y-89544200D01*
X128432903Y-89549182D01*
X128469524Y-89601482D01*
X128535214Y-89695296D01*
X128560716Y-89731717D01*
X128718283Y-89889284D01*
X128722792Y-89892441D01*
X128722794Y-89892443D01*
X128766968Y-89923374D01*
X128900817Y-90017097D01*
X128905802Y-90019421D01*
X128905808Y-90019425D01*
X129005272Y-90065805D01*
X129058558Y-90112722D01*
X129078019Y-90180999D01*
X129057478Y-90248959D01*
X129005273Y-90294195D01*
X128905805Y-90340577D01*
X128905800Y-90340580D01*
X128900818Y-90342903D01*
X128718283Y-90470716D01*
X128560716Y-90628283D01*
X128432903Y-90810818D01*
X128430580Y-90815800D01*
X128430577Y-90815805D01*
X128430460Y-90816056D01*
X128338730Y-91012773D01*
X128337308Y-91018081D01*
X128337307Y-91018083D01*
X128321258Y-91077978D01*
X128281056Y-91228014D01*
X128261635Y-91450000D01*
X128281056Y-91671986D01*
X128338730Y-91887227D01*
X128341052Y-91892208D01*
X128341053Y-91892209D01*
X128430577Y-92084195D01*
X128430580Y-92084200D01*
X128432903Y-92089182D01*
X128560716Y-92271717D01*
X128718283Y-92429284D01*
X128900817Y-92557097D01*
X128905802Y-92559421D01*
X128905808Y-92559425D01*
X129005272Y-92605805D01*
X129058558Y-92652722D01*
X129078019Y-92720999D01*
X129057478Y-92788959D01*
X129005273Y-92834195D01*
X128905805Y-92880577D01*
X128905800Y-92880580D01*
X128900818Y-92882903D01*
X128718283Y-93010716D01*
X128560716Y-93168283D01*
X128432903Y-93350818D01*
X128430580Y-93355800D01*
X128430577Y-93355805D01*
X128341053Y-93547791D01*
X128338730Y-93552773D01*
X128281056Y-93768014D01*
X128261635Y-93990000D01*
X128281056Y-94211986D01*
X128338730Y-94427227D01*
X128341052Y-94432208D01*
X128341053Y-94432209D01*
X128430577Y-94624195D01*
X128430580Y-94624200D01*
X128432903Y-94629182D01*
X128560716Y-94811717D01*
X128718283Y-94969284D01*
X128900817Y-95097097D01*
X128905802Y-95099421D01*
X128905808Y-95099425D01*
X129005272Y-95145805D01*
X129058558Y-95192722D01*
X129078019Y-95260999D01*
X129057478Y-95328959D01*
X129005273Y-95374195D01*
X128905805Y-95420577D01*
X128905800Y-95420580D01*
X128900818Y-95422903D01*
X128718283Y-95550716D01*
X128560716Y-95708283D01*
X128432903Y-95890818D01*
X128430580Y-95895800D01*
X128430577Y-95895805D01*
X128341053Y-96087791D01*
X128338730Y-96092773D01*
X128281056Y-96308014D01*
X128261635Y-96530000D01*
X128281056Y-96751986D01*
X128338730Y-96967227D01*
X128341052Y-96972208D01*
X128341053Y-96972209D01*
X128430577Y-97164195D01*
X128430580Y-97164200D01*
X128432903Y-97169182D01*
X128560716Y-97351717D01*
X128718283Y-97509284D01*
X128900817Y-97637097D01*
X128905802Y-97639421D01*
X128905808Y-97639425D01*
X129005272Y-97685805D01*
X129058558Y-97732722D01*
X129078019Y-97800999D01*
X129057478Y-97868959D01*
X129005273Y-97914195D01*
X128905805Y-97960577D01*
X128905800Y-97960580D01*
X128900818Y-97962903D01*
X128718283Y-98090716D01*
X128560716Y-98248283D01*
X128432903Y-98430818D01*
X128430580Y-98435800D01*
X128430577Y-98435805D01*
X128341053Y-98627791D01*
X128338730Y-98632773D01*
X128281056Y-98848014D01*
X128261635Y-99070000D01*
X128281056Y-99291986D01*
X128338730Y-99507227D01*
X128341052Y-99512208D01*
X128341053Y-99512209D01*
X128430577Y-99704195D01*
X128430580Y-99704200D01*
X128432903Y-99709182D01*
X128436060Y-99713690D01*
X128543613Y-99867291D01*
X128560716Y-99891717D01*
X128718283Y-100049284D01*
X128900817Y-100177097D01*
X128905802Y-100179421D01*
X128905808Y-100179425D01*
X129005272Y-100225805D01*
X129058558Y-100272722D01*
X129078019Y-100340999D01*
X129057478Y-100408959D01*
X129005273Y-100454195D01*
X128905805Y-100500577D01*
X128905800Y-100500580D01*
X128900818Y-100502903D01*
X128718283Y-100630716D01*
X128560716Y-100788283D01*
X128432903Y-100970818D01*
X128430580Y-100975800D01*
X128430577Y-100975805D01*
X128430460Y-100976056D01*
X128338730Y-101172773D01*
X128281056Y-101388014D01*
X128261635Y-101610000D01*
X128281056Y-101831986D01*
X128338730Y-102047227D01*
X128341052Y-102052208D01*
X128341053Y-102052209D01*
X128430577Y-102244195D01*
X128430580Y-102244200D01*
X128432903Y-102249182D01*
X128560716Y-102431717D01*
X128718283Y-102589284D01*
X128900817Y-102717097D01*
X128905802Y-102719421D01*
X128905808Y-102719425D01*
X129005272Y-102765805D01*
X129058558Y-102812722D01*
X129078019Y-102880999D01*
X129057478Y-102948959D01*
X129005273Y-102994195D01*
X128905805Y-103040577D01*
X128905800Y-103040580D01*
X128900818Y-103042903D01*
X128718283Y-103170716D01*
X128560716Y-103328283D01*
X128432903Y-103510818D01*
X128430580Y-103515800D01*
X128430577Y-103515805D01*
X128351276Y-103685867D01*
X128338730Y-103712773D01*
X128281056Y-103928014D01*
X128261635Y-104150000D01*
X105418365Y-104150000D01*
X105398944Y-103928014D01*
X105341270Y-103712773D01*
X105328724Y-103685867D01*
X105249423Y-103515805D01*
X105249420Y-103515800D01*
X105247097Y-103510818D01*
X105119284Y-103328283D01*
X104961717Y-103170716D01*
X104779183Y-103042903D01*
X104774201Y-103040580D01*
X104774196Y-103040577D01*
X104674136Y-102993919D01*
X104620851Y-102947002D01*
X104601390Y-102878725D01*
X104621932Y-102810765D01*
X104674136Y-102765529D01*
X104773953Y-102718984D01*
X104783431Y-102713512D01*
X104827920Y-102682359D01*
X104836294Y-102671883D01*
X104829226Y-102658436D01*
X104152812Y-101982022D01*
X104138868Y-101974408D01*
X104137035Y-101974539D01*
X104130420Y-101978790D01*
X103450053Y-102659157D01*
X103443623Y-102670932D01*
X103452916Y-102682945D01*
X103496569Y-102713512D01*
X103506051Y-102718986D01*
X103605864Y-102765529D01*
X103659150Y-102812446D01*
X103678611Y-102880723D01*
X103658070Y-102948683D01*
X103605865Y-102993919D01*
X103505805Y-103040577D01*
X103505800Y-103040580D01*
X103500818Y-103042903D01*
X103318283Y-103170716D01*
X103160716Y-103328283D01*
X103032903Y-103510818D01*
X103030580Y-103515800D01*
X103030577Y-103515805D01*
X102951276Y-103685867D01*
X102938730Y-103712773D01*
X102881056Y-103928014D01*
X102861635Y-104150000D01*
X50800000Y-104150000D01*
X50800000Y-101615475D01*
X102862616Y-101615475D01*
X102881072Y-101826419D01*
X102882975Y-101837214D01*
X102937779Y-102041745D01*
X102941525Y-102052037D01*
X103031012Y-102243944D01*
X103036495Y-102253439D01*
X103067640Y-102297919D01*
X103078117Y-102306294D01*
X103091564Y-102299226D01*
X103767978Y-101622812D01*
X103774356Y-101611132D01*
X104504408Y-101611132D01*
X104504539Y-101612965D01*
X104508790Y-101619580D01*
X105189157Y-102299947D01*
X105200932Y-102306377D01*
X105212947Y-102297081D01*
X105243505Y-102253439D01*
X105248988Y-102243944D01*
X105338475Y-102052037D01*
X105342221Y-102041745D01*
X105397025Y-101837214D01*
X105398928Y-101826419D01*
X105417384Y-101615475D01*
X105417384Y-101604525D01*
X105398928Y-101393581D01*
X105397025Y-101382786D01*
X105342221Y-101178255D01*
X105338475Y-101167963D01*
X105248988Y-100976056D01*
X105243505Y-100966561D01*
X105212360Y-100922081D01*
X105201883Y-100913706D01*
X105188436Y-100920774D01*
X104512022Y-101597188D01*
X104504408Y-101611132D01*
X103774356Y-101611132D01*
X103775592Y-101608868D01*
X103775461Y-101607035D01*
X103771210Y-101600420D01*
X103090843Y-100920053D01*
X103079068Y-100913623D01*
X103067053Y-100922919D01*
X103036495Y-100966561D01*
X103031012Y-100976056D01*
X102941525Y-101167963D01*
X102937779Y-101178255D01*
X102882975Y-101382786D01*
X102881072Y-101393581D01*
X102862616Y-101604525D01*
X102862616Y-101615475D01*
X50800000Y-101615475D01*
X50800000Y-99070000D01*
X102861635Y-99070000D01*
X102881056Y-99291986D01*
X102938730Y-99507227D01*
X102941052Y-99512208D01*
X102941053Y-99512209D01*
X103030577Y-99704195D01*
X103030580Y-99704200D01*
X103032903Y-99709182D01*
X103036060Y-99713690D01*
X103143613Y-99867291D01*
X103160716Y-99891717D01*
X103318283Y-100049284D01*
X103500817Y-100177097D01*
X103505802Y-100179421D01*
X103505808Y-100179425D01*
X103605864Y-100226081D01*
X103659150Y-100272998D01*
X103678611Y-100341275D01*
X103658070Y-100409235D01*
X103605865Y-100454471D01*
X103506056Y-100501012D01*
X103496561Y-100506495D01*
X103452081Y-100537640D01*
X103443706Y-100548117D01*
X103450774Y-100561564D01*
X104127188Y-101237978D01*
X104141132Y-101245592D01*
X104142965Y-101245461D01*
X104149580Y-101241210D01*
X104829947Y-100560843D01*
X104836377Y-100549068D01*
X104827084Y-100537055D01*
X104783431Y-100506488D01*
X104773953Y-100501016D01*
X104674136Y-100454471D01*
X104620851Y-100407554D01*
X104601390Y-100339277D01*
X104621932Y-100271317D01*
X104674136Y-100226081D01*
X104774196Y-100179423D01*
X104774201Y-100179420D01*
X104779183Y-100177097D01*
X104961717Y-100049284D01*
X105119284Y-99891717D01*
X105136388Y-99867291D01*
X105243940Y-99713690D01*
X105247097Y-99709182D01*
X105249420Y-99704200D01*
X105249423Y-99704195D01*
X105338947Y-99512209D01*
X105338948Y-99512208D01*
X105341270Y-99507227D01*
X105398944Y-99291986D01*
X105418365Y-99070000D01*
X105398944Y-98848014D01*
X105341270Y-98632773D01*
X105338947Y-98627791D01*
X105249423Y-98435805D01*
X105249420Y-98435800D01*
X105247097Y-98430818D01*
X105119284Y-98248283D01*
X104961717Y-98090716D01*
X104779183Y-97962903D01*
X104774201Y-97960580D01*
X104774196Y-97960577D01*
X104674728Y-97914195D01*
X104621443Y-97867278D01*
X104601982Y-97799001D01*
X104622524Y-97731041D01*
X104674728Y-97685805D01*
X104774196Y-97639423D01*
X104774201Y-97639420D01*
X104779183Y-97637097D01*
X104961717Y-97509284D01*
X105119284Y-97351717D01*
X105247097Y-97169182D01*
X105249420Y-97164200D01*
X105249423Y-97164195D01*
X105338947Y-96972209D01*
X105338948Y-96972208D01*
X105341270Y-96967227D01*
X105398944Y-96751986D01*
X105418365Y-96530000D01*
X105398944Y-96308014D01*
X105341270Y-96092773D01*
X105338947Y-96087791D01*
X105249423Y-95895805D01*
X105249420Y-95895800D01*
X105247097Y-95890818D01*
X105119284Y-95708283D01*
X104961717Y-95550716D01*
X104779183Y-95422903D01*
X104774201Y-95420580D01*
X104774196Y-95420577D01*
X104674728Y-95374195D01*
X104621443Y-95327278D01*
X104601982Y-95259001D01*
X104622524Y-95191041D01*
X104674728Y-95145805D01*
X104774196Y-95099423D01*
X104774201Y-95099420D01*
X104779183Y-95097097D01*
X104961717Y-94969284D01*
X105119284Y-94811717D01*
X105247097Y-94629182D01*
X105249420Y-94624200D01*
X105249423Y-94624195D01*
X105338947Y-94432209D01*
X105338948Y-94432208D01*
X105341270Y-94427227D01*
X105398944Y-94211986D01*
X105418365Y-93990000D01*
X105398944Y-93768014D01*
X105341270Y-93552773D01*
X105338947Y-93547791D01*
X105249423Y-93355805D01*
X105249420Y-93355800D01*
X105247097Y-93350818D01*
X105119284Y-93168283D01*
X104961717Y-93010716D01*
X104779183Y-92882903D01*
X104774201Y-92880580D01*
X104774196Y-92880577D01*
X104674136Y-92833919D01*
X104620851Y-92787002D01*
X104601390Y-92718725D01*
X104621932Y-92650765D01*
X104674136Y-92605529D01*
X104773953Y-92558984D01*
X104783431Y-92553512D01*
X104827920Y-92522359D01*
X104836294Y-92511883D01*
X104829226Y-92498436D01*
X104152812Y-91822022D01*
X104138868Y-91814408D01*
X104137035Y-91814539D01*
X104130420Y-91818790D01*
X103450053Y-92499157D01*
X103443623Y-92510932D01*
X103452916Y-92522945D01*
X103496569Y-92553512D01*
X103506051Y-92558986D01*
X103605864Y-92605529D01*
X103659150Y-92652446D01*
X103678611Y-92720723D01*
X103658070Y-92788683D01*
X103605865Y-92833919D01*
X103505805Y-92880577D01*
X103505800Y-92880580D01*
X103500818Y-92882903D01*
X103318283Y-93010716D01*
X103160716Y-93168283D01*
X103032903Y-93350818D01*
X103030580Y-93355800D01*
X103030577Y-93355805D01*
X102941053Y-93547791D01*
X102938730Y-93552773D01*
X102881056Y-93768014D01*
X102861635Y-93990000D01*
X102881056Y-94211986D01*
X102938730Y-94427227D01*
X102941052Y-94432208D01*
X102941053Y-94432209D01*
X103030577Y-94624195D01*
X103030580Y-94624200D01*
X103032903Y-94629182D01*
X103160716Y-94811717D01*
X103318283Y-94969284D01*
X103500817Y-95097097D01*
X103505802Y-95099421D01*
X103505808Y-95099425D01*
X103605272Y-95145805D01*
X103658558Y-95192722D01*
X103678019Y-95260999D01*
X103657478Y-95328959D01*
X103605273Y-95374195D01*
X103505805Y-95420577D01*
X103505800Y-95420580D01*
X103500818Y-95422903D01*
X103318283Y-95550716D01*
X103160716Y-95708283D01*
X103032903Y-95890818D01*
X103030580Y-95895800D01*
X103030577Y-95895805D01*
X102941053Y-96087791D01*
X102938730Y-96092773D01*
X102881056Y-96308014D01*
X102861635Y-96530000D01*
X102881056Y-96751986D01*
X102938730Y-96967227D01*
X102941052Y-96972208D01*
X102941053Y-96972209D01*
X103030577Y-97164195D01*
X103030580Y-97164200D01*
X103032903Y-97169182D01*
X103160716Y-97351717D01*
X103318283Y-97509284D01*
X103500817Y-97637097D01*
X103505802Y-97639421D01*
X103505808Y-97639425D01*
X103605272Y-97685805D01*
X103658558Y-97732722D01*
X103678019Y-97800999D01*
X103657478Y-97868959D01*
X103605273Y-97914195D01*
X103505805Y-97960577D01*
X103505800Y-97960580D01*
X103500818Y-97962903D01*
X103318283Y-98090716D01*
X103160716Y-98248283D01*
X103032903Y-98430818D01*
X103030580Y-98435800D01*
X103030577Y-98435805D01*
X102941053Y-98627791D01*
X102938730Y-98632773D01*
X102881056Y-98848014D01*
X102861635Y-99070000D01*
X50800000Y-99070000D01*
X50800000Y-91455475D01*
X102862616Y-91455475D01*
X102881072Y-91666419D01*
X102882975Y-91677214D01*
X102937779Y-91881745D01*
X102941525Y-91892037D01*
X103031012Y-92083944D01*
X103036495Y-92093439D01*
X103067640Y-92137919D01*
X103078117Y-92146294D01*
X103091564Y-92139226D01*
X103767978Y-91462812D01*
X103774356Y-91451132D01*
X104504408Y-91451132D01*
X104504539Y-91452965D01*
X104508790Y-91459580D01*
X105189157Y-92139947D01*
X105200932Y-92146377D01*
X105212947Y-92137081D01*
X105243505Y-92093439D01*
X105248988Y-92083944D01*
X105338475Y-91892037D01*
X105342221Y-91881745D01*
X105397025Y-91677214D01*
X105398928Y-91666419D01*
X105417384Y-91455475D01*
X105417384Y-91444525D01*
X105398928Y-91233581D01*
X105397025Y-91222786D01*
X105342221Y-91018255D01*
X105338475Y-91007963D01*
X105248988Y-90816056D01*
X105243505Y-90806561D01*
X105212360Y-90762081D01*
X105201883Y-90753706D01*
X105188436Y-90760774D01*
X104512022Y-91437188D01*
X104504408Y-91451132D01*
X103774356Y-91451132D01*
X103775592Y-91448868D01*
X103775461Y-91447035D01*
X103771210Y-91440420D01*
X103090843Y-90760053D01*
X103079068Y-90753623D01*
X103067053Y-90762919D01*
X103036495Y-90806561D01*
X103031012Y-90816056D01*
X102941525Y-91007963D01*
X102937779Y-91018255D01*
X102882975Y-91222786D01*
X102881072Y-91233581D01*
X102862616Y-91444525D01*
X102862616Y-91455475D01*
X50800000Y-91455475D01*
X50800000Y-90724669D01*
X67692001Y-90724669D01*
X67692371Y-90731490D01*
X67697895Y-90782352D01*
X67701521Y-90797604D01*
X67746676Y-90918054D01*
X67755214Y-90933649D01*
X67831715Y-91035724D01*
X67844276Y-91048285D01*
X67946351Y-91124786D01*
X67961946Y-91133324D01*
X68082394Y-91178478D01*
X68097649Y-91182105D01*
X68148514Y-91187631D01*
X68155328Y-91188000D01*
X68927885Y-91188000D01*
X68943124Y-91183525D01*
X68944329Y-91182135D01*
X68946000Y-91174452D01*
X68946000Y-91169884D01*
X69454000Y-91169884D01*
X69458475Y-91185123D01*
X69459865Y-91186328D01*
X69467548Y-91187999D01*
X70244669Y-91187999D01*
X70251490Y-91187629D01*
X70302352Y-91182105D01*
X70317604Y-91178479D01*
X70438054Y-91133324D01*
X70453649Y-91124786D01*
X70555724Y-91048285D01*
X70568285Y-91035724D01*
X70644786Y-90933649D01*
X70653324Y-90918054D01*
X70698478Y-90797606D01*
X70702105Y-90782351D01*
X70707631Y-90731486D01*
X70708000Y-90724672D01*
X70708000Y-90724669D01*
X81692001Y-90724669D01*
X81692371Y-90731490D01*
X81697895Y-90782352D01*
X81701521Y-90797604D01*
X81746676Y-90918054D01*
X81755214Y-90933649D01*
X81831715Y-91035724D01*
X81844276Y-91048285D01*
X81946351Y-91124786D01*
X81961946Y-91133324D01*
X82082394Y-91178478D01*
X82097649Y-91182105D01*
X82148514Y-91187631D01*
X82155328Y-91188000D01*
X82927885Y-91188000D01*
X82943124Y-91183525D01*
X82944329Y-91182135D01*
X82946000Y-91174452D01*
X82946000Y-91169884D01*
X83454000Y-91169884D01*
X83458475Y-91185123D01*
X83459865Y-91186328D01*
X83467548Y-91187999D01*
X84244669Y-91187999D01*
X84251490Y-91187629D01*
X84302352Y-91182105D01*
X84317604Y-91178479D01*
X84438054Y-91133324D01*
X84453649Y-91124786D01*
X84555724Y-91048285D01*
X84568285Y-91035724D01*
X84644786Y-90933649D01*
X84653324Y-90918054D01*
X84698478Y-90797606D01*
X84702105Y-90782351D01*
X84707631Y-90731486D01*
X84708000Y-90724672D01*
X84708000Y-90552115D01*
X84703525Y-90536876D01*
X84702135Y-90535671D01*
X84694452Y-90534000D01*
X83472115Y-90534000D01*
X83456876Y-90538475D01*
X83455671Y-90539865D01*
X83454000Y-90547548D01*
X83454000Y-91169884D01*
X82946000Y-91169884D01*
X82946000Y-90552115D01*
X82941525Y-90536876D01*
X82940135Y-90535671D01*
X82932452Y-90534000D01*
X81710116Y-90534000D01*
X81694877Y-90538475D01*
X81693672Y-90539865D01*
X81692001Y-90547548D01*
X81692001Y-90724669D01*
X70708000Y-90724669D01*
X70708000Y-90552115D01*
X70703525Y-90536876D01*
X70702135Y-90535671D01*
X70694452Y-90534000D01*
X69472115Y-90534000D01*
X69456876Y-90538475D01*
X69455671Y-90539865D01*
X69454000Y-90547548D01*
X69454000Y-91169884D01*
X68946000Y-91169884D01*
X68946000Y-90552115D01*
X68941525Y-90536876D01*
X68940135Y-90535671D01*
X68932452Y-90534000D01*
X67710116Y-90534000D01*
X67694877Y-90538475D01*
X67693672Y-90539865D01*
X67692001Y-90547548D01*
X67692001Y-90724669D01*
X50800000Y-90724669D01*
X50800000Y-89458134D01*
X67691500Y-89458134D01*
X67698255Y-89520316D01*
X67720397Y-89579379D01*
X67728683Y-89601482D01*
X67733866Y-89672289D01*
X67728683Y-89689942D01*
X67701522Y-89762394D01*
X67697895Y-89777649D01*
X67692369Y-89828514D01*
X67692000Y-89835328D01*
X67692000Y-90007885D01*
X67696475Y-90023124D01*
X67697865Y-90024329D01*
X67705548Y-90026000D01*
X70689884Y-90026000D01*
X70705123Y-90021525D01*
X70706328Y-90020135D01*
X70707999Y-90012452D01*
X70707999Y-90007885D01*
X81692000Y-90007885D01*
X81696475Y-90023124D01*
X81697865Y-90024329D01*
X81705548Y-90026000D01*
X82927885Y-90026000D01*
X82943124Y-90021525D01*
X82944329Y-90020135D01*
X82946000Y-90012452D01*
X82946000Y-90007885D01*
X83454000Y-90007885D01*
X83458475Y-90023124D01*
X83459865Y-90024329D01*
X83467548Y-90026000D01*
X84689884Y-90026000D01*
X84705123Y-90021525D01*
X84706328Y-90020135D01*
X84707999Y-90012452D01*
X84707999Y-89835331D01*
X84707629Y-89828510D01*
X84702105Y-89777648D01*
X84698479Y-89762397D01*
X84671050Y-89689230D01*
X84665867Y-89618423D01*
X84671050Y-89600770D01*
X84698478Y-89527606D01*
X84702105Y-89512351D01*
X84707631Y-89461486D01*
X84708000Y-89454672D01*
X84708000Y-89282115D01*
X84703525Y-89266876D01*
X84702135Y-89265671D01*
X84694452Y-89264000D01*
X83472115Y-89264000D01*
X83456876Y-89268475D01*
X83455671Y-89269865D01*
X83454000Y-89277548D01*
X83454000Y-90007885D01*
X82946000Y-90007885D01*
X82946000Y-89282115D01*
X82941525Y-89266876D01*
X82940135Y-89265671D01*
X82932452Y-89264000D01*
X81710116Y-89264000D01*
X81694877Y-89268475D01*
X81693672Y-89269865D01*
X81692001Y-89277548D01*
X81692001Y-89454669D01*
X81692371Y-89461490D01*
X81697895Y-89512352D01*
X81701521Y-89527603D01*
X81728950Y-89600770D01*
X81734133Y-89671577D01*
X81728950Y-89689230D01*
X81701522Y-89762394D01*
X81697895Y-89777649D01*
X81692369Y-89828514D01*
X81692000Y-89835328D01*
X81692000Y-90007885D01*
X70707999Y-90007885D01*
X70707999Y-89835331D01*
X70707629Y-89828510D01*
X70702105Y-89777648D01*
X70698479Y-89762396D01*
X70671317Y-89689942D01*
X70666134Y-89619135D01*
X70671317Y-89601482D01*
X70679603Y-89579379D01*
X70701745Y-89520316D01*
X70708500Y-89458134D01*
X70708500Y-88737885D01*
X81692000Y-88737885D01*
X81696475Y-88753124D01*
X81697865Y-88754329D01*
X81705548Y-88756000D01*
X82927885Y-88756000D01*
X82943124Y-88751525D01*
X82944329Y-88750135D01*
X82946000Y-88742452D01*
X82946000Y-88737885D01*
X83454000Y-88737885D01*
X83458475Y-88753124D01*
X83459865Y-88754329D01*
X83467548Y-88756000D01*
X84689884Y-88756000D01*
X84705123Y-88751525D01*
X84706328Y-88750135D01*
X84707999Y-88742452D01*
X84707999Y-88565331D01*
X84707629Y-88558510D01*
X84702105Y-88507648D01*
X84698479Y-88492397D01*
X84671050Y-88419230D01*
X84665867Y-88348423D01*
X84671050Y-88330770D01*
X84698478Y-88257606D01*
X84702105Y-88242351D01*
X84707631Y-88191486D01*
X84708000Y-88184672D01*
X84708000Y-88012115D01*
X84703525Y-87996876D01*
X84702135Y-87995671D01*
X84694452Y-87994000D01*
X83472115Y-87994000D01*
X83456876Y-87998475D01*
X83455671Y-87999865D01*
X83454000Y-88007548D01*
X83454000Y-88737885D01*
X82946000Y-88737885D01*
X82946000Y-88012115D01*
X82941525Y-87996876D01*
X82940135Y-87995671D01*
X82932452Y-87994000D01*
X81710116Y-87994000D01*
X81694877Y-87998475D01*
X81693672Y-87999865D01*
X81692001Y-88007548D01*
X81692001Y-88184669D01*
X81692371Y-88191490D01*
X81697895Y-88242352D01*
X81701521Y-88257603D01*
X81728950Y-88330770D01*
X81734133Y-88401577D01*
X81728950Y-88419230D01*
X81701522Y-88492394D01*
X81697895Y-88507649D01*
X81692369Y-88558514D01*
X81692000Y-88565328D01*
X81692000Y-88737885D01*
X70708500Y-88737885D01*
X70708500Y-88561866D01*
X70701745Y-88499684D01*
X70671317Y-88418517D01*
X70666134Y-88347711D01*
X70671317Y-88330058D01*
X70698478Y-88257606D01*
X70702105Y-88242351D01*
X70707631Y-88191486D01*
X70708000Y-88184672D01*
X70708000Y-88012115D01*
X70703525Y-87996876D01*
X70702135Y-87995671D01*
X70694452Y-87994000D01*
X67710116Y-87994000D01*
X67694877Y-87998475D01*
X67693672Y-87999865D01*
X67692001Y-88007548D01*
X67692001Y-88184669D01*
X67692371Y-88191490D01*
X67697895Y-88242352D01*
X67701521Y-88257604D01*
X67728683Y-88330058D01*
X67733866Y-88400865D01*
X67728684Y-88418516D01*
X67698255Y-88499684D01*
X67691500Y-88561866D01*
X67691500Y-89458134D01*
X50800000Y-89458134D01*
X50800000Y-87467885D01*
X67692000Y-87467885D01*
X67696475Y-87483124D01*
X67697865Y-87484329D01*
X67705548Y-87486000D01*
X68927885Y-87486000D01*
X68943124Y-87481525D01*
X68944329Y-87480135D01*
X68946000Y-87472452D01*
X68946000Y-87467885D01*
X69454000Y-87467885D01*
X69458475Y-87483124D01*
X69459865Y-87484329D01*
X69467548Y-87486000D01*
X70689884Y-87486000D01*
X70705123Y-87481525D01*
X70706328Y-87480135D01*
X70707999Y-87472452D01*
X70707999Y-87467885D01*
X81692000Y-87467885D01*
X81696475Y-87483124D01*
X81697865Y-87484329D01*
X81705548Y-87486000D01*
X82927885Y-87486000D01*
X82943124Y-87481525D01*
X82944329Y-87480135D01*
X82946000Y-87472452D01*
X82946000Y-87467885D01*
X83454000Y-87467885D01*
X83458475Y-87483124D01*
X83459865Y-87484329D01*
X83467548Y-87486000D01*
X84689884Y-87486000D01*
X84705123Y-87481525D01*
X84706328Y-87480135D01*
X84707999Y-87472452D01*
X84707999Y-87295331D01*
X84707629Y-87288510D01*
X84702105Y-87237648D01*
X84698479Y-87222396D01*
X84653324Y-87101946D01*
X84644786Y-87086351D01*
X84568285Y-86984276D01*
X84555724Y-86971715D01*
X84453649Y-86895214D01*
X84438054Y-86886676D01*
X84317606Y-86841522D01*
X84302351Y-86837895D01*
X84251486Y-86832369D01*
X84244672Y-86832000D01*
X83472115Y-86832000D01*
X83456876Y-86836475D01*
X83455671Y-86837865D01*
X83454000Y-86845548D01*
X83454000Y-87467885D01*
X82946000Y-87467885D01*
X82946000Y-86850116D01*
X82941525Y-86834877D01*
X82940135Y-86833672D01*
X82932452Y-86832001D01*
X82155331Y-86832001D01*
X82148510Y-86832371D01*
X82097648Y-86837895D01*
X82082396Y-86841521D01*
X81961946Y-86886676D01*
X81946351Y-86895214D01*
X81844276Y-86971715D01*
X81831715Y-86984276D01*
X81755214Y-87086351D01*
X81746676Y-87101946D01*
X81701522Y-87222394D01*
X81697895Y-87237649D01*
X81692369Y-87288514D01*
X81692000Y-87295328D01*
X81692000Y-87467885D01*
X70707999Y-87467885D01*
X70707999Y-87295331D01*
X70707629Y-87288510D01*
X70702105Y-87237648D01*
X70698479Y-87222396D01*
X70653324Y-87101946D01*
X70644786Y-87086351D01*
X70568285Y-86984276D01*
X70555724Y-86971715D01*
X70453649Y-86895214D01*
X70438054Y-86886676D01*
X70317606Y-86841522D01*
X70302351Y-86837895D01*
X70251486Y-86832369D01*
X70244672Y-86832000D01*
X69472115Y-86832000D01*
X69456876Y-86836475D01*
X69455671Y-86837865D01*
X69454000Y-86845548D01*
X69454000Y-87467885D01*
X68946000Y-87467885D01*
X68946000Y-86850116D01*
X68941525Y-86834877D01*
X68940135Y-86833672D01*
X68932452Y-86832001D01*
X68155331Y-86832001D01*
X68148510Y-86832371D01*
X68097648Y-86837895D01*
X68082396Y-86841521D01*
X67961946Y-86886676D01*
X67946351Y-86895214D01*
X67844276Y-86971715D01*
X67831715Y-86984276D01*
X67755214Y-87086351D01*
X67746676Y-87101946D01*
X67701522Y-87222394D01*
X67697895Y-87237649D01*
X67692369Y-87288514D01*
X67692000Y-87295328D01*
X67692000Y-87467885D01*
X50800000Y-87467885D01*
X50800000Y-82618134D01*
X67691500Y-82618134D01*
X67698255Y-82680316D01*
X67749385Y-82816705D01*
X67836739Y-82933261D01*
X67953295Y-83020615D01*
X68089684Y-83071745D01*
X68151866Y-83078500D01*
X70248134Y-83078500D01*
X70310316Y-83071745D01*
X70446705Y-83020615D01*
X70563261Y-82933261D01*
X70650615Y-82816705D01*
X70701745Y-82680316D01*
X70708500Y-82618134D01*
X81691500Y-82618134D01*
X81698255Y-82680316D01*
X81749385Y-82816705D01*
X81836739Y-82933261D01*
X81953295Y-83020615D01*
X82089684Y-83071745D01*
X82151866Y-83078500D01*
X84248134Y-83078500D01*
X84310316Y-83071745D01*
X84446705Y-83020615D01*
X84563261Y-82933261D01*
X84650615Y-82816705D01*
X84701745Y-82680316D01*
X84708500Y-82618134D01*
X84708500Y-81721866D01*
X84701745Y-81659684D01*
X84671584Y-81579230D01*
X84666401Y-81508423D01*
X84671584Y-81490770D01*
X84701745Y-81410316D01*
X84708500Y-81348134D01*
X84708500Y-80451866D01*
X84701745Y-80389684D01*
X84671317Y-80308517D01*
X84666134Y-80237711D01*
X84671317Y-80220058D01*
X84698478Y-80147606D01*
X84702105Y-80132351D01*
X84707631Y-80081486D01*
X84708000Y-80074672D01*
X84708000Y-79902115D01*
X84703525Y-79886876D01*
X84702135Y-79885671D01*
X84694452Y-79884000D01*
X81710116Y-79884000D01*
X81694877Y-79888475D01*
X81693672Y-79889865D01*
X81692001Y-79897548D01*
X81692001Y-80074669D01*
X81692371Y-80081490D01*
X81697895Y-80132352D01*
X81701521Y-80147604D01*
X81728683Y-80220058D01*
X81733866Y-80290865D01*
X81728684Y-80308516D01*
X81698255Y-80389684D01*
X81691500Y-80451866D01*
X81691500Y-81348134D01*
X81698255Y-81410316D01*
X81728416Y-81490770D01*
X81733599Y-81561577D01*
X81728416Y-81579229D01*
X81698255Y-81659684D01*
X81691500Y-81721866D01*
X81691500Y-82618134D01*
X70708500Y-82618134D01*
X70708500Y-81721866D01*
X70701745Y-81659684D01*
X70671584Y-81579230D01*
X70666401Y-81508423D01*
X70671584Y-81490770D01*
X70701745Y-81410316D01*
X70708500Y-81348134D01*
X70708500Y-80451866D01*
X70701745Y-80389684D01*
X70671317Y-80308517D01*
X70666134Y-80237711D01*
X70671317Y-80220058D01*
X70698478Y-80147606D01*
X70702105Y-80132351D01*
X70707631Y-80081486D01*
X70708000Y-80074672D01*
X70708000Y-79902115D01*
X70703525Y-79886876D01*
X70702135Y-79885671D01*
X70694452Y-79884000D01*
X67710116Y-79884000D01*
X67694877Y-79888475D01*
X67693672Y-79889865D01*
X67692001Y-79897548D01*
X67692001Y-80074669D01*
X67692371Y-80081490D01*
X67697895Y-80132352D01*
X67701521Y-80147604D01*
X67728683Y-80220058D01*
X67733866Y-80290865D01*
X67728684Y-80308516D01*
X67698255Y-80389684D01*
X67691500Y-80451866D01*
X67691500Y-81348134D01*
X67698255Y-81410316D01*
X67728416Y-81490770D01*
X67733599Y-81561577D01*
X67728416Y-81579229D01*
X67698255Y-81659684D01*
X67691500Y-81721866D01*
X67691500Y-82618134D01*
X50800000Y-82618134D01*
X50800000Y-60952925D01*
X57406645Y-60952925D01*
X57407204Y-60959065D01*
X57410981Y-61000570D01*
X57411500Y-61011990D01*
X57411500Y-73598157D01*
X57410763Y-73611764D01*
X57407533Y-73641500D01*
X57406676Y-73649388D01*
X57407641Y-73660420D01*
X57411050Y-73699388D01*
X57411379Y-73704214D01*
X57411500Y-73706686D01*
X57411500Y-73709769D01*
X57411801Y-73712837D01*
X57415690Y-73752506D01*
X57415812Y-73753819D01*
X57418692Y-73786739D01*
X57423913Y-73846413D01*
X57425400Y-73851532D01*
X57425920Y-73856833D01*
X57452791Y-73945834D01*
X57453126Y-73946967D01*
X57471151Y-74009006D01*
X57479091Y-74036336D01*
X57481544Y-74041068D01*
X57483084Y-74046169D01*
X57485978Y-74051612D01*
X57526731Y-74128260D01*
X57527343Y-74129426D01*
X57529809Y-74134183D01*
X57570108Y-74211926D01*
X57573431Y-74216089D01*
X57575934Y-74220796D01*
X57634755Y-74292918D01*
X57635446Y-74293774D01*
X57666738Y-74332973D01*
X57669242Y-74335477D01*
X57669884Y-74336195D01*
X57673585Y-74340528D01*
X57700935Y-74374062D01*
X57705682Y-74377989D01*
X57705684Y-74377991D01*
X57736262Y-74403287D01*
X57745042Y-74411277D01*
X62442075Y-79108309D01*
X62444452Y-79110262D01*
X62444457Y-79110266D01*
X62465620Y-79127649D01*
X62556261Y-79202103D01*
X62561694Y-79205016D01*
X62670770Y-79263502D01*
X62730563Y-79295563D01*
X62839219Y-79328783D01*
X62913800Y-79351585D01*
X62913802Y-79351585D01*
X62919698Y-79353388D01*
X62938926Y-79355341D01*
X63110335Y-79372752D01*
X63110339Y-79372752D01*
X63116463Y-79373374D01*
X63313362Y-79354762D01*
X63319257Y-79353005D01*
X63319260Y-79353004D01*
X63496992Y-79300019D01*
X63496991Y-79300019D01*
X63502896Y-79298259D01*
X63508343Y-79295387D01*
X63508353Y-79295383D01*
X63579174Y-79258043D01*
X63637938Y-79243500D01*
X67566000Y-79243500D01*
X67634121Y-79263502D01*
X67680614Y-79317158D01*
X67685764Y-79340834D01*
X67686896Y-79340502D01*
X67696475Y-79373124D01*
X67697865Y-79374329D01*
X67705548Y-79376000D01*
X70689884Y-79376000D01*
X70705123Y-79371525D01*
X70706328Y-79370135D01*
X70707999Y-79362452D01*
X70707999Y-79185331D01*
X70707629Y-79178510D01*
X70702105Y-79127648D01*
X70698479Y-79112396D01*
X70671317Y-79039942D01*
X70666134Y-78969135D01*
X70671317Y-78951482D01*
X70701745Y-78870316D01*
X70708500Y-78808134D01*
X81691500Y-78808134D01*
X81698255Y-78870316D01*
X81728683Y-78951482D01*
X81733866Y-79022289D01*
X81728683Y-79039942D01*
X81701522Y-79112394D01*
X81697895Y-79127649D01*
X81692369Y-79178514D01*
X81692000Y-79185328D01*
X81692000Y-79357885D01*
X81696475Y-79373124D01*
X81697865Y-79374329D01*
X81705548Y-79376000D01*
X84689884Y-79376000D01*
X84705123Y-79371525D01*
X84706328Y-79370135D01*
X84707999Y-79362452D01*
X84707999Y-79185331D01*
X84707629Y-79178510D01*
X84702105Y-79127648D01*
X84698479Y-79112396D01*
X84671317Y-79039942D01*
X84666134Y-78969135D01*
X84671317Y-78951482D01*
X84701745Y-78870316D01*
X84708500Y-78808134D01*
X84708500Y-77911866D01*
X84701745Y-77849684D01*
X84671584Y-77769230D01*
X84666401Y-77698423D01*
X84671584Y-77680770D01*
X84698971Y-77607715D01*
X84701745Y-77600316D01*
X84708500Y-77538134D01*
X84708500Y-76641866D01*
X84701745Y-76579684D01*
X84671584Y-76499230D01*
X84666401Y-76428423D01*
X84671584Y-76410770D01*
X84680195Y-76387801D01*
X84701745Y-76330316D01*
X84708500Y-76268134D01*
X84708500Y-75559500D01*
X84728502Y-75491379D01*
X84782158Y-75444886D01*
X84834500Y-75433500D01*
X85692799Y-75433500D01*
X85718996Y-75436253D01*
X85798148Y-75453078D01*
X85798153Y-75453078D01*
X85804605Y-75454450D01*
X85995579Y-75454450D01*
X86002031Y-75453078D01*
X86002036Y-75453078D01*
X86094140Y-75433500D01*
X86182380Y-75414744D01*
X86217003Y-75399329D01*
X86350814Y-75339753D01*
X86350816Y-75339752D01*
X86356844Y-75337068D01*
X86404719Y-75302285D01*
X86439926Y-75276705D01*
X86511345Y-75224816D01*
X86521244Y-75213822D01*
X86634713Y-75087802D01*
X86634714Y-75087801D01*
X86639132Y-75082894D01*
X86699700Y-74977988D01*
X86731315Y-74923229D01*
X86731316Y-74923228D01*
X86734619Y-74917506D01*
X86793634Y-74735878D01*
X86795392Y-74719157D01*
X86812906Y-74552515D01*
X86813596Y-74545950D01*
X86802426Y-74439676D01*
X86794324Y-74362585D01*
X86794324Y-74362583D01*
X86793634Y-74356022D01*
X86734619Y-74174394D01*
X86707984Y-74128260D01*
X86678812Y-74077734D01*
X86639132Y-74009006D01*
X86593673Y-73958518D01*
X86515767Y-73871995D01*
X86515766Y-73871994D01*
X86511345Y-73867084D01*
X86356844Y-73754832D01*
X86350816Y-73752148D01*
X86350814Y-73752147D01*
X86188411Y-73679841D01*
X86188410Y-73679841D01*
X86182380Y-73677156D01*
X86088438Y-73657188D01*
X86002036Y-73638822D01*
X86002031Y-73638822D01*
X85995579Y-73637450D01*
X85804605Y-73637450D01*
X85798152Y-73638822D01*
X85798148Y-73638822D01*
X85680888Y-73663747D01*
X85654691Y-73666500D01*
X84834000Y-73666500D01*
X84765879Y-73646498D01*
X84719386Y-73592842D01*
X84714236Y-73569166D01*
X84713104Y-73569498D01*
X84703525Y-73536876D01*
X84702135Y-73535671D01*
X84694452Y-73534000D01*
X81710116Y-73534000D01*
X81694877Y-73538475D01*
X81693672Y-73539865D01*
X81692001Y-73547548D01*
X81692001Y-73724669D01*
X81692371Y-73731490D01*
X81697895Y-73782352D01*
X81701521Y-73797604D01*
X81728683Y-73870058D01*
X81733866Y-73940865D01*
X81728684Y-73958516D01*
X81698255Y-74039684D01*
X81691500Y-74101866D01*
X81691500Y-74998134D01*
X81698255Y-75060316D01*
X81701029Y-75067715D01*
X81728416Y-75140770D01*
X81733599Y-75211577D01*
X81728416Y-75229229D01*
X81698255Y-75309684D01*
X81691500Y-75371866D01*
X81691500Y-76268134D01*
X81698255Y-76330316D01*
X81719805Y-76387801D01*
X81728416Y-76410770D01*
X81733599Y-76481577D01*
X81728416Y-76499229D01*
X81698255Y-76579684D01*
X81691500Y-76641866D01*
X81691500Y-77538134D01*
X81698255Y-77600316D01*
X81701029Y-77607715D01*
X81728416Y-77680770D01*
X81733599Y-77751577D01*
X81728416Y-77769229D01*
X81698255Y-77849684D01*
X81691500Y-77911866D01*
X81691500Y-78808134D01*
X70708500Y-78808134D01*
X70708500Y-77911866D01*
X70701745Y-77849684D01*
X70671584Y-77769230D01*
X70666401Y-77698423D01*
X70671584Y-77680770D01*
X70698971Y-77607715D01*
X70701745Y-77600316D01*
X70708500Y-77538134D01*
X70708500Y-76641866D01*
X70701745Y-76579684D01*
X70671584Y-76499230D01*
X70666401Y-76428423D01*
X70671584Y-76410770D01*
X70680195Y-76387801D01*
X70701745Y-76330316D01*
X70708500Y-76268134D01*
X70708500Y-75371866D01*
X70701745Y-75309684D01*
X70671584Y-75229230D01*
X70666401Y-75158423D01*
X70671584Y-75140770D01*
X70698971Y-75067715D01*
X70701745Y-75060316D01*
X70708500Y-74998134D01*
X70708500Y-74101866D01*
X70701745Y-74039684D01*
X70671317Y-73958517D01*
X70666134Y-73887711D01*
X70671317Y-73870058D01*
X70698478Y-73797606D01*
X70702105Y-73782351D01*
X70707631Y-73731486D01*
X70708000Y-73724672D01*
X70708000Y-73552115D01*
X70703525Y-73536876D01*
X70702135Y-73535671D01*
X70694452Y-73534000D01*
X67710116Y-73534000D01*
X67694877Y-73538475D01*
X67693672Y-73539865D01*
X67689122Y-73560783D01*
X67686230Y-73560154D01*
X67671999Y-73608621D01*
X67618343Y-73655114D01*
X67566001Y-73666500D01*
X67524926Y-73666500D01*
X67456805Y-73646498D01*
X67435831Y-73629596D01*
X67085405Y-73279171D01*
X67051380Y-73216858D01*
X67048500Y-73190075D01*
X67048500Y-73007885D01*
X67692000Y-73007885D01*
X67696475Y-73023124D01*
X67697865Y-73024329D01*
X67705548Y-73026000D01*
X68927885Y-73026000D01*
X68943124Y-73021525D01*
X68944329Y-73020135D01*
X68946000Y-73012452D01*
X68946000Y-73007885D01*
X69454000Y-73007885D01*
X69458475Y-73023124D01*
X69459865Y-73024329D01*
X69467548Y-73026000D01*
X70689884Y-73026000D01*
X70705123Y-73021525D01*
X70706328Y-73020135D01*
X70707999Y-73012452D01*
X70707999Y-73007885D01*
X81692000Y-73007885D01*
X81696475Y-73023124D01*
X81697865Y-73024329D01*
X81705548Y-73026000D01*
X82927885Y-73026000D01*
X82943124Y-73021525D01*
X82944329Y-73020135D01*
X82946000Y-73012452D01*
X82946000Y-73007885D01*
X83454000Y-73007885D01*
X83458475Y-73023124D01*
X83459865Y-73024329D01*
X83467548Y-73026000D01*
X84689884Y-73026000D01*
X84705123Y-73021525D01*
X84706328Y-73020135D01*
X84707999Y-73012452D01*
X84707999Y-72835331D01*
X84707629Y-72828510D01*
X84702105Y-72777648D01*
X84698479Y-72762396D01*
X84653324Y-72641946D01*
X84644786Y-72626351D01*
X84568285Y-72524276D01*
X84555724Y-72511715D01*
X84453649Y-72435214D01*
X84438054Y-72426676D01*
X84317606Y-72381522D01*
X84302351Y-72377895D01*
X84251486Y-72372369D01*
X84244672Y-72372000D01*
X83472115Y-72372000D01*
X83456876Y-72376475D01*
X83455671Y-72377865D01*
X83454000Y-72385548D01*
X83454000Y-73007885D01*
X82946000Y-73007885D01*
X82946000Y-72390116D01*
X82941525Y-72374877D01*
X82940135Y-72373672D01*
X82932452Y-72372001D01*
X82155331Y-72372001D01*
X82148510Y-72372371D01*
X82097648Y-72377895D01*
X82082396Y-72381521D01*
X81961946Y-72426676D01*
X81946351Y-72435214D01*
X81844276Y-72511715D01*
X81831715Y-72524276D01*
X81755214Y-72626351D01*
X81746676Y-72641946D01*
X81701522Y-72762394D01*
X81697895Y-72777649D01*
X81692369Y-72828514D01*
X81692000Y-72835328D01*
X81692000Y-73007885D01*
X70707999Y-73007885D01*
X70707999Y-72835331D01*
X70707629Y-72828510D01*
X70702105Y-72777648D01*
X70698479Y-72762396D01*
X70653324Y-72641946D01*
X70644786Y-72626351D01*
X70568285Y-72524276D01*
X70555724Y-72511715D01*
X70453649Y-72435214D01*
X70438054Y-72426676D01*
X70317606Y-72381522D01*
X70302351Y-72377895D01*
X70251486Y-72372369D01*
X70244672Y-72372000D01*
X69472115Y-72372000D01*
X69456876Y-72376475D01*
X69455671Y-72377865D01*
X69454000Y-72385548D01*
X69454000Y-73007885D01*
X68946000Y-73007885D01*
X68946000Y-72390116D01*
X68941525Y-72374877D01*
X68940135Y-72373672D01*
X68932452Y-72372001D01*
X68155331Y-72372001D01*
X68148510Y-72372371D01*
X68097648Y-72377895D01*
X68082396Y-72381521D01*
X67961946Y-72426676D01*
X67946351Y-72435214D01*
X67844276Y-72511715D01*
X67831715Y-72524276D01*
X67755214Y-72626351D01*
X67746676Y-72641946D01*
X67701522Y-72762394D01*
X67697895Y-72777649D01*
X67692369Y-72828514D01*
X67692000Y-72835328D01*
X67692000Y-73007885D01*
X67048500Y-73007885D01*
X67048500Y-69714500D01*
X67068502Y-69646379D01*
X67122158Y-69599886D01*
X67174500Y-69588500D01*
X83350075Y-69588500D01*
X83418196Y-69608502D01*
X83439170Y-69625405D01*
X87854595Y-74040829D01*
X87888621Y-74103141D01*
X87891500Y-74129924D01*
X87891500Y-86298157D01*
X87890763Y-86311764D01*
X87886676Y-86349388D01*
X87887213Y-86355523D01*
X87891050Y-86399388D01*
X87891379Y-86404214D01*
X87891500Y-86406686D01*
X87891500Y-86409769D01*
X87891801Y-86412837D01*
X87895690Y-86452506D01*
X87895812Y-86453819D01*
X87898223Y-86481373D01*
X87903913Y-86546413D01*
X87905400Y-86551532D01*
X87905920Y-86556833D01*
X87932791Y-86645834D01*
X87933126Y-86646967D01*
X87959091Y-86736336D01*
X87961544Y-86741068D01*
X87963084Y-86746169D01*
X87965976Y-86751608D01*
X87965978Y-86751612D01*
X88006731Y-86828260D01*
X88007343Y-86829426D01*
X88015700Y-86845548D01*
X88050108Y-86911926D01*
X88053431Y-86916089D01*
X88055934Y-86920796D01*
X88114755Y-86992918D01*
X88115446Y-86993774D01*
X88146738Y-87032973D01*
X88149242Y-87035477D01*
X88149884Y-87036195D01*
X88153585Y-87040528D01*
X88180935Y-87074062D01*
X88185682Y-87077989D01*
X88185684Y-87077991D01*
X88216262Y-87103287D01*
X88225042Y-87111277D01*
X90693145Y-89579379D01*
X90702247Y-89589522D01*
X90725968Y-89619025D01*
X90730696Y-89622992D01*
X90764421Y-89651291D01*
X90768070Y-89654473D01*
X90769883Y-89656117D01*
X90772075Y-89658309D01*
X90805276Y-89685580D01*
X90806164Y-89686318D01*
X90841437Y-89715915D01*
X90872753Y-89742193D01*
X90872756Y-89742195D01*
X90877474Y-89746154D01*
X90882147Y-89748723D01*
X90886262Y-89752103D01*
X90891691Y-89755014D01*
X90891694Y-89755016D01*
X90968180Y-89796028D01*
X90969338Y-89796657D01*
X91027280Y-89828510D01*
X91050787Y-89841433D01*
X91055865Y-89843044D01*
X91060563Y-89845563D01*
X91149498Y-89872753D01*
X91150702Y-89873128D01*
X91239306Y-89901235D01*
X91244597Y-89901828D01*
X91249698Y-89903388D01*
X91342311Y-89912795D01*
X91343431Y-89912915D01*
X91393227Y-89918500D01*
X91396756Y-89918500D01*
X91397739Y-89918555D01*
X91403426Y-89919003D01*
X91423683Y-89921060D01*
X91440336Y-89922752D01*
X91440339Y-89922752D01*
X91446463Y-89923374D01*
X91492112Y-89919059D01*
X91503969Y-89918500D01*
X103320279Y-89918500D01*
X103392550Y-89941287D01*
X103500817Y-90017097D01*
X103505802Y-90019421D01*
X103505808Y-90019425D01*
X103605864Y-90066081D01*
X103659150Y-90112998D01*
X103678611Y-90181275D01*
X103658070Y-90249235D01*
X103605865Y-90294471D01*
X103506056Y-90341012D01*
X103496561Y-90346495D01*
X103452081Y-90377640D01*
X103443706Y-90388117D01*
X103450774Y-90401564D01*
X104127188Y-91077978D01*
X104141132Y-91085592D01*
X104142965Y-91085461D01*
X104149580Y-91081210D01*
X104829947Y-90400843D01*
X104836377Y-90389068D01*
X104827084Y-90377055D01*
X104783431Y-90346488D01*
X104773953Y-90341016D01*
X104674136Y-90294471D01*
X104620851Y-90247554D01*
X104601390Y-90179277D01*
X104621932Y-90111317D01*
X104674136Y-90066081D01*
X104774196Y-90019423D01*
X104774201Y-90019420D01*
X104779183Y-90017097D01*
X104913032Y-89923374D01*
X104957206Y-89892443D01*
X104957208Y-89892441D01*
X104961717Y-89889284D01*
X105119284Y-89731717D01*
X105144787Y-89695296D01*
X105210476Y-89601482D01*
X105247097Y-89549182D01*
X105249420Y-89544200D01*
X105249423Y-89544195D01*
X105338947Y-89352209D01*
X105338948Y-89352208D01*
X105341270Y-89347227D01*
X105398944Y-89131986D01*
X105418365Y-88910000D01*
X105398944Y-88688014D01*
X105346528Y-88492397D01*
X105342693Y-88478083D01*
X105342692Y-88478081D01*
X105341270Y-88472773D01*
X105274721Y-88330058D01*
X105249423Y-88275805D01*
X105249420Y-88275800D01*
X105247097Y-88270818D01*
X105119284Y-88088283D01*
X104961717Y-87930716D01*
X104779183Y-87802903D01*
X104774201Y-87800580D01*
X104774196Y-87800577D01*
X104674728Y-87754195D01*
X104621443Y-87707278D01*
X104601982Y-87639001D01*
X104622524Y-87571041D01*
X104674728Y-87525805D01*
X104774196Y-87479423D01*
X104774201Y-87479420D01*
X104779183Y-87477097D01*
X104919993Y-87378500D01*
X104957206Y-87352443D01*
X104957208Y-87352441D01*
X104961717Y-87349284D01*
X105119284Y-87191717D01*
X105247097Y-87009182D01*
X105249420Y-87004200D01*
X105249423Y-87004195D01*
X105338947Y-86812209D01*
X105338948Y-86812208D01*
X105341270Y-86807227D01*
X105398944Y-86591986D01*
X105418365Y-86370000D01*
X105398944Y-86148014D01*
X105341270Y-85932773D01*
X105284163Y-85810306D01*
X105249423Y-85735805D01*
X105249420Y-85735800D01*
X105247097Y-85730818D01*
X105119284Y-85548283D01*
X104961717Y-85390716D01*
X104944650Y-85378765D01*
X104814799Y-85287842D01*
X104779183Y-85262903D01*
X104774201Y-85260580D01*
X104774196Y-85260577D01*
X104674728Y-85214195D01*
X104621443Y-85167278D01*
X104601982Y-85099001D01*
X104622524Y-85031041D01*
X104674728Y-84985805D01*
X104774196Y-84939423D01*
X104774201Y-84939420D01*
X104779183Y-84937097D01*
X104928152Y-84832787D01*
X104957206Y-84812443D01*
X104957208Y-84812441D01*
X104961717Y-84809284D01*
X105119284Y-84651717D01*
X105151789Y-84605296D01*
X105195570Y-84542770D01*
X105247097Y-84469182D01*
X105249420Y-84464200D01*
X105249423Y-84464195D01*
X105338947Y-84272209D01*
X105338948Y-84272208D01*
X105341270Y-84267227D01*
X105346401Y-84248080D01*
X105387477Y-84094781D01*
X105398944Y-84051986D01*
X105418365Y-83830000D01*
X105398944Y-83608014D01*
X105341270Y-83392773D01*
X105312057Y-83330125D01*
X105249423Y-83195805D01*
X105249420Y-83195800D01*
X105247097Y-83190818D01*
X105154808Y-83059016D01*
X105122443Y-83012794D01*
X105122441Y-83012791D01*
X105119284Y-83008283D01*
X104961717Y-82850716D01*
X104952289Y-82844114D01*
X104814129Y-82747373D01*
X104779183Y-82722903D01*
X104774201Y-82720580D01*
X104774196Y-82720577D01*
X104674728Y-82674195D01*
X104621443Y-82627278D01*
X104601982Y-82559001D01*
X104622524Y-82491041D01*
X104674728Y-82445805D01*
X104774196Y-82399423D01*
X104774201Y-82399420D01*
X104779183Y-82397097D01*
X104887450Y-82321287D01*
X104957206Y-82272443D01*
X104957208Y-82272441D01*
X104961717Y-82269284D01*
X105119284Y-82111717D01*
X105143902Y-82076560D01*
X105191162Y-82009065D01*
X105247097Y-81929182D01*
X105249420Y-81924200D01*
X105249423Y-81924195D01*
X105338947Y-81732209D01*
X105338948Y-81732208D01*
X105341270Y-81727227D01*
X105342707Y-81721866D01*
X105387477Y-81554781D01*
X105398944Y-81511986D01*
X105418365Y-81290000D01*
X105398944Y-81068014D01*
X105341270Y-80852773D01*
X105257820Y-80673813D01*
X105249423Y-80655805D01*
X105249420Y-80655800D01*
X105247097Y-80650818D01*
X105175528Y-80548608D01*
X105122443Y-80472794D01*
X105122441Y-80472791D01*
X105119284Y-80468283D01*
X104961717Y-80310716D01*
X104918021Y-80280119D01*
X104814129Y-80207373D01*
X104779183Y-80182903D01*
X104774201Y-80180580D01*
X104774196Y-80180577D01*
X104674728Y-80134195D01*
X104621443Y-80087278D01*
X104601982Y-80019001D01*
X104622524Y-79951041D01*
X104674728Y-79905805D01*
X104774196Y-79859423D01*
X104774201Y-79859420D01*
X104779183Y-79857097D01*
X104891427Y-79778502D01*
X104957206Y-79732443D01*
X104957208Y-79732441D01*
X104961717Y-79729284D01*
X105119284Y-79571717D01*
X105126209Y-79561828D01*
X105194708Y-79464001D01*
X105247097Y-79389182D01*
X105249420Y-79384200D01*
X105249423Y-79384195D01*
X105338947Y-79192209D01*
X105338948Y-79192208D01*
X105341270Y-79187227D01*
X105346401Y-79168080D01*
X105387477Y-79014781D01*
X105398944Y-78971986D01*
X105418365Y-78750000D01*
X105398944Y-78528014D01*
X105341270Y-78312773D01*
X105257820Y-78133813D01*
X105249423Y-78115805D01*
X105249420Y-78115800D01*
X105247097Y-78110818D01*
X105175528Y-78008608D01*
X105122443Y-77932794D01*
X105122441Y-77932791D01*
X105119284Y-77928283D01*
X104961717Y-77770716D01*
X104944650Y-77758765D01*
X104814129Y-77667373D01*
X104779183Y-77642903D01*
X104774201Y-77640580D01*
X104774196Y-77640577D01*
X104674728Y-77594195D01*
X104621443Y-77547278D01*
X104601982Y-77479001D01*
X104622524Y-77411041D01*
X104674728Y-77365805D01*
X104774196Y-77319423D01*
X104774201Y-77319420D01*
X104779183Y-77317097D01*
X104906764Y-77227763D01*
X104957206Y-77192443D01*
X104957208Y-77192441D01*
X104961717Y-77189284D01*
X105119284Y-77031717D01*
X105143902Y-76996560D01*
X105194708Y-76924001D01*
X105247097Y-76849182D01*
X105249420Y-76844200D01*
X105249423Y-76844195D01*
X105338947Y-76652209D01*
X105338948Y-76652208D01*
X105341270Y-76647227D01*
X105342707Y-76641866D01*
X105387477Y-76474781D01*
X105398944Y-76431986D01*
X105418365Y-76210000D01*
X105398944Y-75988014D01*
X105355243Y-75824919D01*
X105342693Y-75778083D01*
X105342692Y-75778081D01*
X105341270Y-75772773D01*
X105283799Y-75649525D01*
X105249423Y-75575805D01*
X105249420Y-75575800D01*
X105247097Y-75570818D01*
X105152873Y-75436253D01*
X105122443Y-75392794D01*
X105122441Y-75392791D01*
X105119284Y-75388283D01*
X104961717Y-75230716D01*
X104952289Y-75224114D01*
X104833262Y-75140770D01*
X104779183Y-75102903D01*
X104774201Y-75100580D01*
X104774196Y-75100577D01*
X104674728Y-75054195D01*
X104621443Y-75007278D01*
X104601982Y-74939001D01*
X104622524Y-74871041D01*
X104674728Y-74825805D01*
X104774196Y-74779423D01*
X104774201Y-74779420D01*
X104779183Y-74777097D01*
X104953631Y-74654946D01*
X104957206Y-74652443D01*
X104957208Y-74652441D01*
X104961717Y-74649284D01*
X105119284Y-74491717D01*
X105150430Y-74447237D01*
X105207048Y-74366377D01*
X105247097Y-74309182D01*
X105249420Y-74304200D01*
X105249423Y-74304195D01*
X105338947Y-74112209D01*
X105338948Y-74112208D01*
X105341270Y-74107227D01*
X105342707Y-74101866D01*
X105368903Y-74004098D01*
X105398944Y-73891986D01*
X105417886Y-73675475D01*
X128262616Y-73675475D01*
X128281072Y-73886419D01*
X128282975Y-73897214D01*
X128337779Y-74101745D01*
X128341525Y-74112037D01*
X128431012Y-74303944D01*
X128436495Y-74313439D01*
X128467640Y-74357919D01*
X128478117Y-74366294D01*
X128491564Y-74359226D01*
X129167978Y-73682812D01*
X129174356Y-73671132D01*
X129904408Y-73671132D01*
X129904539Y-73672965D01*
X129908790Y-73679580D01*
X130589157Y-74359947D01*
X130600932Y-74366377D01*
X130612947Y-74357081D01*
X130643505Y-74313439D01*
X130648988Y-74303944D01*
X130738475Y-74112037D01*
X130742221Y-74101745D01*
X130797025Y-73897214D01*
X130798928Y-73886419D01*
X130817384Y-73675475D01*
X130817384Y-73664525D01*
X130798928Y-73453581D01*
X130797025Y-73442786D01*
X130742221Y-73238255D01*
X130738475Y-73227963D01*
X130648988Y-73036056D01*
X130643505Y-73026561D01*
X130612360Y-72982081D01*
X130601883Y-72973706D01*
X130588436Y-72980774D01*
X129912022Y-73657188D01*
X129904408Y-73671132D01*
X129174356Y-73671132D01*
X129175592Y-73668868D01*
X129175461Y-73667035D01*
X129171210Y-73660420D01*
X128490843Y-72980053D01*
X128479068Y-72973623D01*
X128467053Y-72982919D01*
X128436495Y-73026561D01*
X128431012Y-73036056D01*
X128341525Y-73227963D01*
X128337779Y-73238255D01*
X128282975Y-73442786D01*
X128281072Y-73453581D01*
X128262616Y-73664525D01*
X128262616Y-73675475D01*
X105417886Y-73675475D01*
X105418365Y-73670000D01*
X105398944Y-73448014D01*
X105356187Y-73288444D01*
X105342693Y-73238083D01*
X105342692Y-73238081D01*
X105341270Y-73232773D01*
X105333849Y-73216858D01*
X105249423Y-73035805D01*
X105249420Y-73035800D01*
X105247097Y-73030818D01*
X105119284Y-72848283D01*
X104961717Y-72690716D01*
X104779183Y-72562903D01*
X104774201Y-72560580D01*
X104774196Y-72560577D01*
X104674728Y-72514195D01*
X104621443Y-72467278D01*
X104601982Y-72399001D01*
X104622524Y-72331041D01*
X104674728Y-72285805D01*
X104774196Y-72239423D01*
X104774201Y-72239420D01*
X104779183Y-72237097D01*
X104961717Y-72109284D01*
X105119284Y-71951717D01*
X105150430Y-71907237D01*
X105226312Y-71798866D01*
X105247097Y-71769182D01*
X105249420Y-71764200D01*
X105249423Y-71764195D01*
X105338947Y-71572209D01*
X105338948Y-71572208D01*
X105341270Y-71567227D01*
X105398944Y-71351986D01*
X105418365Y-71130000D01*
X105398944Y-70908014D01*
X105341270Y-70692773D01*
X105270454Y-70540907D01*
X105249423Y-70495805D01*
X105249420Y-70495800D01*
X105247097Y-70490818D01*
X105151857Y-70354802D01*
X105122443Y-70312794D01*
X105122441Y-70312791D01*
X105119284Y-70308283D01*
X104961717Y-70150716D01*
X104779183Y-70022903D01*
X104774201Y-70020580D01*
X104774196Y-70020577D01*
X104674728Y-69974195D01*
X104621443Y-69927278D01*
X104601982Y-69859001D01*
X104622524Y-69791041D01*
X104674728Y-69745805D01*
X104774196Y-69699423D01*
X104774201Y-69699420D01*
X104779183Y-69697097D01*
X104881890Y-69625180D01*
X104957206Y-69572443D01*
X104957208Y-69572441D01*
X104961717Y-69569284D01*
X105119284Y-69411717D01*
X105247097Y-69229182D01*
X105249420Y-69224200D01*
X105249423Y-69224195D01*
X105338947Y-69032209D01*
X105338948Y-69032208D01*
X105341270Y-69027227D01*
X105398944Y-68811986D01*
X105418365Y-68590000D01*
X105398944Y-68368014D01*
X105351818Y-68192138D01*
X105342693Y-68158083D01*
X105342692Y-68158081D01*
X105341270Y-68152773D01*
X105331701Y-68132252D01*
X105249423Y-67955805D01*
X105249420Y-67955800D01*
X105247097Y-67950818D01*
X105175528Y-67848608D01*
X105122443Y-67772794D01*
X105122441Y-67772791D01*
X105119284Y-67768283D01*
X104961717Y-67610716D01*
X104928375Y-67587369D01*
X104788650Y-67489532D01*
X104779183Y-67482903D01*
X104774201Y-67480580D01*
X104774196Y-67480577D01*
X104674728Y-67434195D01*
X104621443Y-67387278D01*
X104601982Y-67319001D01*
X104622524Y-67251041D01*
X104674728Y-67205805D01*
X104774196Y-67159423D01*
X104774201Y-67159420D01*
X104779183Y-67157097D01*
X104881890Y-67085180D01*
X104957206Y-67032443D01*
X104957208Y-67032441D01*
X104961717Y-67029284D01*
X105119284Y-66871717D01*
X105247097Y-66689182D01*
X105249420Y-66684200D01*
X105249423Y-66684195D01*
X105338947Y-66492209D01*
X105338948Y-66492208D01*
X105341270Y-66487227D01*
X105398944Y-66271986D01*
X105418365Y-66050000D01*
X105398944Y-65828014D01*
X105350521Y-65647299D01*
X105342693Y-65618083D01*
X105342692Y-65618081D01*
X105341270Y-65612773D01*
X105315200Y-65556865D01*
X105249423Y-65415805D01*
X105249420Y-65415800D01*
X105247097Y-65410818D01*
X105138851Y-65256227D01*
X105122443Y-65232794D01*
X105122441Y-65232791D01*
X105119284Y-65228283D01*
X104961717Y-65070716D01*
X104928138Y-65047203D01*
X104788650Y-64949532D01*
X104779183Y-64942903D01*
X104774201Y-64940580D01*
X104774196Y-64940577D01*
X104674728Y-64894195D01*
X104621443Y-64847278D01*
X104601982Y-64779001D01*
X104622524Y-64711041D01*
X104674728Y-64665805D01*
X104774196Y-64619423D01*
X104774201Y-64619420D01*
X104779183Y-64617097D01*
X104887450Y-64541287D01*
X104957206Y-64492443D01*
X104957208Y-64492441D01*
X104961717Y-64489284D01*
X105119284Y-64331717D01*
X105247097Y-64149182D01*
X105249420Y-64144200D01*
X105249423Y-64144195D01*
X105338947Y-63952209D01*
X105338948Y-63952208D01*
X105341270Y-63947227D01*
X105349173Y-63917735D01*
X105397520Y-63737299D01*
X105398944Y-63731986D01*
X105418365Y-63510000D01*
X105398944Y-63288014D01*
X105352100Y-63113192D01*
X105342693Y-63078083D01*
X105342692Y-63078081D01*
X105341270Y-63072773D01*
X105315200Y-63016865D01*
X105249423Y-62875805D01*
X105249420Y-62875800D01*
X105247097Y-62870818D01*
X105167192Y-62756703D01*
X105122443Y-62692794D01*
X105122441Y-62692791D01*
X105119284Y-62688283D01*
X104961717Y-62530716D01*
X104944650Y-62518765D01*
X104788650Y-62409532D01*
X104779183Y-62402903D01*
X104774201Y-62400580D01*
X104774196Y-62400577D01*
X104674728Y-62354195D01*
X104621443Y-62307278D01*
X104601982Y-62239001D01*
X104622524Y-62171041D01*
X104674728Y-62125805D01*
X104774196Y-62079423D01*
X104774201Y-62079420D01*
X104779183Y-62077097D01*
X104891427Y-61998502D01*
X104957206Y-61952443D01*
X104957208Y-61952441D01*
X104961717Y-61949284D01*
X105119284Y-61791717D01*
X105247097Y-61609182D01*
X105249420Y-61604200D01*
X105249423Y-61604195D01*
X105338947Y-61412209D01*
X105338948Y-61412208D01*
X105341270Y-61407227D01*
X105349173Y-61377735D01*
X105382821Y-61252158D01*
X105398944Y-61191986D01*
X105418365Y-60970000D01*
X105398944Y-60748014D01*
X105350138Y-60565869D01*
X105342693Y-60538083D01*
X105342692Y-60538081D01*
X105341270Y-60532773D01*
X105316310Y-60479245D01*
X105249423Y-60335805D01*
X105249420Y-60335800D01*
X105247097Y-60330818D01*
X105166370Y-60215528D01*
X105122443Y-60152794D01*
X105122441Y-60152791D01*
X105119284Y-60148283D01*
X104961717Y-59990716D01*
X104933028Y-59970627D01*
X104878881Y-59932713D01*
X104834553Y-59877255D01*
X104827244Y-59806636D01*
X104859275Y-59743276D01*
X104920477Y-59707291D01*
X104946342Y-59704094D01*
X104946320Y-59703684D01*
X104949718Y-59703500D01*
X104953134Y-59703500D01*
X105015316Y-59696745D01*
X105151705Y-59645615D01*
X105268261Y-59558261D01*
X105355615Y-59441705D01*
X105406745Y-59305316D01*
X105413500Y-59243134D01*
X105413500Y-58634925D01*
X105433502Y-58566804D01*
X105450405Y-58545830D01*
X105560760Y-58435475D01*
X128262616Y-58435475D01*
X128281072Y-58646419D01*
X128282975Y-58657214D01*
X128337779Y-58861745D01*
X128341525Y-58872037D01*
X128431012Y-59063944D01*
X128436495Y-59073439D01*
X128467640Y-59117919D01*
X128478117Y-59126294D01*
X128491564Y-59119226D01*
X129167978Y-58442812D01*
X129174356Y-58431132D01*
X129904408Y-58431132D01*
X129904539Y-58432965D01*
X129908790Y-58439580D01*
X130589157Y-59119947D01*
X130600932Y-59126377D01*
X130612947Y-59117081D01*
X130643505Y-59073439D01*
X130648988Y-59063944D01*
X130738475Y-58872037D01*
X130742221Y-58861745D01*
X130797025Y-58657214D01*
X130798928Y-58646419D01*
X130817384Y-58435475D01*
X130817384Y-58424525D01*
X130798928Y-58213581D01*
X130797025Y-58202786D01*
X130742221Y-57998255D01*
X130738475Y-57987963D01*
X130648988Y-57796056D01*
X130643505Y-57786561D01*
X130612360Y-57742081D01*
X130601883Y-57733706D01*
X130588436Y-57740774D01*
X129912022Y-58417188D01*
X129904408Y-58431132D01*
X129174356Y-58431132D01*
X129175592Y-58428868D01*
X129175461Y-58427035D01*
X129171210Y-58420420D01*
X128490843Y-57740053D01*
X128479068Y-57733623D01*
X128467053Y-57742919D01*
X128436495Y-57786561D01*
X128431012Y-57796056D01*
X128341525Y-57987963D01*
X128337779Y-57998255D01*
X128282975Y-58202786D01*
X128281072Y-58213581D01*
X128262616Y-58424525D01*
X128262616Y-58435475D01*
X105560760Y-58435475D01*
X106628118Y-57368117D01*
X128843706Y-57368117D01*
X128850774Y-57381564D01*
X129527188Y-58057978D01*
X129541132Y-58065592D01*
X129542965Y-58065461D01*
X129549580Y-58061210D01*
X130229947Y-57380843D01*
X130236377Y-57369068D01*
X130227084Y-57357055D01*
X130183431Y-57326488D01*
X130173953Y-57321016D01*
X129982038Y-57231525D01*
X129971745Y-57227779D01*
X129767214Y-57172975D01*
X129756419Y-57171072D01*
X129545475Y-57152616D01*
X129534525Y-57152616D01*
X129323581Y-57171072D01*
X129312786Y-57172975D01*
X129108255Y-57227779D01*
X129097963Y-57231525D01*
X128906056Y-57321012D01*
X128896561Y-57326495D01*
X128852081Y-57357640D01*
X128843706Y-57368117D01*
X106628118Y-57368117D01*
X109610829Y-54385405D01*
X109673141Y-54351379D01*
X109699924Y-54348500D01*
X162090075Y-54348500D01*
X162158196Y-54368502D01*
X162179170Y-54385405D01*
X166962075Y-59168309D01*
X167076261Y-59262103D01*
X167250563Y-59355562D01*
X167256456Y-59357364D01*
X167256459Y-59357365D01*
X167329329Y-59379644D01*
X167381584Y-59411043D01*
X167416946Y-59446405D01*
X167450972Y-59508717D01*
X167445907Y-59579532D01*
X167403360Y-59636368D01*
X167336840Y-59661179D01*
X167327851Y-59661500D01*
X165707069Y-59661500D01*
X165688121Y-59660067D01*
X165680780Y-59658950D01*
X165673883Y-59657901D01*
X165673881Y-59657901D01*
X165666651Y-59656801D01*
X165659359Y-59657394D01*
X165659356Y-59657394D01*
X165613982Y-59661085D01*
X165603767Y-59661500D01*
X165595707Y-59661500D01*
X165582417Y-59663049D01*
X165567493Y-59664789D01*
X165563118Y-59665222D01*
X165497661Y-59670546D01*
X165497658Y-59670547D01*
X165490363Y-59671140D01*
X165483399Y-59673396D01*
X165477440Y-59674587D01*
X165471585Y-59675971D01*
X165464319Y-59676818D01*
X165395673Y-59701735D01*
X165391545Y-59703152D01*
X165329064Y-59723393D01*
X165329062Y-59723394D01*
X165322101Y-59725649D01*
X165315846Y-59729445D01*
X165310372Y-59731951D01*
X165304942Y-59734670D01*
X165298063Y-59737167D01*
X165237016Y-59777191D01*
X165233327Y-59779518D01*
X165213135Y-59791771D01*
X165175693Y-59814491D01*
X165175688Y-59814495D01*
X165170892Y-59817405D01*
X165162516Y-59824803D01*
X165162493Y-59824777D01*
X165159503Y-59827426D01*
X165156264Y-59830134D01*
X165150148Y-59834144D01*
X165145121Y-59839451D01*
X165145117Y-59839454D01*
X165096872Y-59890383D01*
X165094494Y-59892825D01*
X162371212Y-62616107D01*
X162308315Y-62650258D01*
X162291943Y-62653738D01*
X162291934Y-62653741D01*
X162285479Y-62655113D01*
X162279450Y-62657797D01*
X162279448Y-62657798D01*
X162121847Y-62727967D01*
X162121845Y-62727968D01*
X162115817Y-62730652D01*
X162110476Y-62734532D01*
X162110475Y-62734533D01*
X161970910Y-62835932D01*
X161970908Y-62835934D01*
X161965566Y-62839815D01*
X161961145Y-62844725D01*
X161961144Y-62844726D01*
X161856840Y-62960568D01*
X161841296Y-62977831D01*
X161786481Y-63072773D01*
X161756375Y-63124919D01*
X161748436Y-63138669D01*
X161746394Y-63144954D01*
X161694988Y-63303167D01*
X161691046Y-63315298D01*
X161676500Y-63453694D01*
X161676500Y-70879210D01*
X161670333Y-70918146D01*
X161666458Y-70930072D01*
X161646496Y-71120000D01*
X161666458Y-71309928D01*
X161725473Y-71491556D01*
X161820960Y-71656944D01*
X161948747Y-71798866D01*
X162103248Y-71911118D01*
X162109276Y-71913802D01*
X162109278Y-71913803D01*
X162184303Y-71947206D01*
X162277712Y-71988794D01*
X162371112Y-72008647D01*
X162458056Y-72027128D01*
X162458061Y-72027128D01*
X162464513Y-72028500D01*
X162655487Y-72028500D01*
X162661939Y-72027128D01*
X162661944Y-72027128D01*
X162748888Y-72008647D01*
X162842288Y-71988794D01*
X162935697Y-71947206D01*
X163010722Y-71913803D01*
X163010724Y-71913802D01*
X163016752Y-71911118D01*
X163171253Y-71798866D01*
X163299040Y-71656944D01*
X163394527Y-71491556D01*
X163453542Y-71309928D01*
X163473504Y-71120000D01*
X163453542Y-70930072D01*
X163449667Y-70918146D01*
X163443500Y-70879210D01*
X163443500Y-63741371D01*
X163463502Y-63673250D01*
X163480405Y-63652276D01*
X164059036Y-63073645D01*
X164121348Y-63039619D01*
X164192163Y-63044684D01*
X164248999Y-63087231D01*
X164273810Y-63153751D01*
X164267964Y-63201675D01*
X164264104Y-63213555D01*
X164234988Y-63303167D01*
X164231046Y-63315298D01*
X164216500Y-63453694D01*
X164216500Y-73419210D01*
X164210333Y-73458146D01*
X164206458Y-73470072D01*
X164205768Y-73476633D01*
X164205768Y-73476635D01*
X164192996Y-73598157D01*
X164186496Y-73660000D01*
X164187186Y-73666565D01*
X164200959Y-73797604D01*
X164206458Y-73849928D01*
X164265473Y-74031556D01*
X164268776Y-74037278D01*
X164268777Y-74037279D01*
X164273729Y-74045856D01*
X164360960Y-74196944D01*
X164365378Y-74201851D01*
X164365379Y-74201852D01*
X164483441Y-74332973D01*
X164488747Y-74338866D01*
X164565349Y-74394521D01*
X164627500Y-74439676D01*
X164643248Y-74451118D01*
X164649276Y-74453802D01*
X164649278Y-74453803D01*
X164724303Y-74487206D01*
X164817712Y-74528794D01*
X164911113Y-74548647D01*
X164998056Y-74567128D01*
X164998061Y-74567128D01*
X165004513Y-74568500D01*
X165195487Y-74568500D01*
X165201939Y-74567128D01*
X165201944Y-74567128D01*
X165288887Y-74548647D01*
X165382288Y-74528794D01*
X165475697Y-74487206D01*
X165550722Y-74453803D01*
X165550724Y-74453802D01*
X165556752Y-74451118D01*
X165572501Y-74439676D01*
X165634651Y-74394521D01*
X165711253Y-74338866D01*
X165716559Y-74332973D01*
X165834621Y-74201852D01*
X165834622Y-74201851D01*
X165839040Y-74196944D01*
X165926271Y-74045856D01*
X165931223Y-74037279D01*
X165931224Y-74037278D01*
X165934527Y-74031556D01*
X165993542Y-73849928D01*
X165999042Y-73797604D01*
X166012814Y-73666565D01*
X166013504Y-73660000D01*
X166007004Y-73598157D01*
X165994232Y-73476635D01*
X165994232Y-73476633D01*
X165993542Y-73470072D01*
X165989667Y-73458146D01*
X165983500Y-73419210D01*
X165983500Y-63741371D01*
X166003502Y-63673250D01*
X166020405Y-63652276D01*
X167457276Y-62215405D01*
X167519588Y-62181379D01*
X167546371Y-62178500D01*
X172134880Y-62178500D01*
X172208940Y-62202563D01*
X172250679Y-62232888D01*
X172256707Y-62235572D01*
X172256709Y-62235573D01*
X172421537Y-62308959D01*
X172429944Y-62312702D01*
X172525914Y-62333101D01*
X172615428Y-62352128D01*
X172615432Y-62352128D01*
X172621885Y-62353500D01*
X172818115Y-62353500D01*
X172824568Y-62352128D01*
X172824572Y-62352128D01*
X172914086Y-62333101D01*
X173010056Y-62312702D01*
X173018463Y-62308959D01*
X173183291Y-62235573D01*
X173183293Y-62235572D01*
X173189321Y-62232888D01*
X173194663Y-62229007D01*
X173342730Y-62121430D01*
X173342732Y-62121428D01*
X173348074Y-62117547D01*
X173452755Y-62001287D01*
X173474958Y-61976628D01*
X173474959Y-61976627D01*
X173479377Y-61971720D01*
X173577492Y-61801780D01*
X173638130Y-61615155D01*
X173658642Y-61420000D01*
X173657823Y-61412209D01*
X173638820Y-61231409D01*
X173638820Y-61231408D01*
X173638130Y-61224845D01*
X173627454Y-61191986D01*
X173579534Y-61044505D01*
X173577492Y-61038220D01*
X173559048Y-61006273D01*
X173545611Y-60983000D01*
X173528873Y-60914004D01*
X173545611Y-60857000D01*
X173574188Y-60807503D01*
X173574189Y-60807502D01*
X173577492Y-60801780D01*
X173602745Y-60724059D01*
X173636090Y-60621434D01*
X173636090Y-60621433D01*
X173638130Y-60615155D01*
X173647313Y-60527791D01*
X173657952Y-60426565D01*
X173658642Y-60420000D01*
X173655659Y-60391622D01*
X173638820Y-60231409D01*
X173638820Y-60231408D01*
X173638130Y-60224845D01*
X173633221Y-60209735D01*
X173587114Y-60067835D01*
X173577492Y-60038220D01*
X173569886Y-60025045D01*
X173545611Y-59983000D01*
X173528873Y-59914004D01*
X173545611Y-59857000D01*
X173574188Y-59807503D01*
X173574189Y-59807502D01*
X173577492Y-59801780D01*
X173608193Y-59707291D01*
X173636090Y-59621434D01*
X173636090Y-59621433D01*
X173638130Y-59615155D01*
X173658642Y-59420000D01*
X173638130Y-59224845D01*
X173608584Y-59133911D01*
X173606556Y-59062946D01*
X173610435Y-59050747D01*
X173643478Y-58962605D01*
X173647105Y-58947351D01*
X173652631Y-58896486D01*
X173653000Y-58889672D01*
X173653000Y-58692115D01*
X173648525Y-58676876D01*
X173647135Y-58675671D01*
X173639452Y-58674000D01*
X173322324Y-58674000D01*
X173254203Y-58653998D01*
X173248263Y-58649936D01*
X173194663Y-58610993D01*
X173194662Y-58610992D01*
X173189321Y-58607112D01*
X173183293Y-58604428D01*
X173183291Y-58604427D01*
X173016087Y-58529983D01*
X173016086Y-58529983D01*
X173010056Y-58527298D01*
X172914085Y-58506899D01*
X172824572Y-58487872D01*
X172824568Y-58487872D01*
X172818115Y-58486500D01*
X172621885Y-58486500D01*
X172615432Y-58487872D01*
X172615428Y-58487872D01*
X172525915Y-58506899D01*
X172429944Y-58527298D01*
X172423914Y-58529983D01*
X172423913Y-58529983D01*
X172256709Y-58604427D01*
X172256707Y-58604428D01*
X172250679Y-58607112D01*
X172226616Y-58624595D01*
X172208940Y-58637437D01*
X172134880Y-58661500D01*
X169183148Y-58661500D01*
X169115027Y-58641498D01*
X169094052Y-58624595D01*
X168631543Y-58162085D01*
X168623145Y-58147885D01*
X171787000Y-58147885D01*
X171791475Y-58163124D01*
X171792865Y-58164329D01*
X171800548Y-58166000D01*
X172447885Y-58166000D01*
X172463124Y-58161525D01*
X172464329Y-58160135D01*
X172466000Y-58152452D01*
X172466000Y-58147885D01*
X172974000Y-58147885D01*
X172978475Y-58163124D01*
X172979865Y-58164329D01*
X172987548Y-58166000D01*
X173634884Y-58166000D01*
X173650123Y-58161525D01*
X173651328Y-58160135D01*
X173652999Y-58152452D01*
X173652999Y-57950331D01*
X173652629Y-57943510D01*
X173647105Y-57892648D01*
X173643479Y-57877396D01*
X173598324Y-57756946D01*
X173589786Y-57741351D01*
X173513285Y-57639276D01*
X173500724Y-57626715D01*
X173398649Y-57550214D01*
X173383054Y-57541676D01*
X173262606Y-57496522D01*
X173247351Y-57492895D01*
X173196486Y-57487369D01*
X173189672Y-57487000D01*
X172992115Y-57487000D01*
X172976876Y-57491475D01*
X172975671Y-57492865D01*
X172974000Y-57500548D01*
X172974000Y-58147885D01*
X172466000Y-58147885D01*
X172466000Y-57505116D01*
X172461525Y-57489877D01*
X172460135Y-57488672D01*
X172452452Y-57487001D01*
X172250331Y-57487001D01*
X172243510Y-57487371D01*
X172192648Y-57492895D01*
X172177396Y-57496521D01*
X172056946Y-57541676D01*
X172041351Y-57550214D01*
X171939276Y-57626715D01*
X171926715Y-57639276D01*
X171850214Y-57741351D01*
X171841676Y-57756946D01*
X171796522Y-57877394D01*
X171792895Y-57892649D01*
X171787369Y-57943514D01*
X171787000Y-57950328D01*
X171787000Y-58147885D01*
X168623145Y-58147885D01*
X168599642Y-58108143D01*
X168587242Y-58065461D01*
X168580909Y-58043664D01*
X168489892Y-57868074D01*
X168432401Y-57796056D01*
X168395458Y-57749777D01*
X168395451Y-57749770D01*
X168393262Y-57747027D01*
X163316855Y-52670621D01*
X163307753Y-52660478D01*
X163287897Y-52635782D01*
X163284032Y-52630975D01*
X163245578Y-52598708D01*
X163241931Y-52595528D01*
X163240119Y-52593885D01*
X163237925Y-52591691D01*
X163204651Y-52564358D01*
X163203853Y-52563696D01*
X163132526Y-52503846D01*
X163127856Y-52501278D01*
X163123739Y-52497897D01*
X163041914Y-52454023D01*
X163040755Y-52453394D01*
X162964619Y-52411538D01*
X162964611Y-52411535D01*
X162959213Y-52408567D01*
X162954131Y-52406955D01*
X162949437Y-52404438D01*
X162860469Y-52377238D01*
X162859441Y-52376918D01*
X162770694Y-52348765D01*
X162765398Y-52348171D01*
X162760302Y-52346613D01*
X162667743Y-52337210D01*
X162666607Y-52337089D01*
X162632992Y-52333319D01*
X162620270Y-52331892D01*
X162620266Y-52331892D01*
X162616773Y-52331500D01*
X162613246Y-52331500D01*
X162612261Y-52331445D01*
X162606581Y-52330998D01*
X162577175Y-52328011D01*
X162569663Y-52327248D01*
X162569661Y-52327248D01*
X162563538Y-52326626D01*
X162521259Y-52330623D01*
X162517891Y-52330941D01*
X162506033Y-52331500D01*
X109291843Y-52331500D01*
X109278236Y-52330763D01*
X109246738Y-52327341D01*
X109246733Y-52327341D01*
X109240612Y-52326676D01*
X109214362Y-52328973D01*
X109190612Y-52331050D01*
X109185786Y-52331379D01*
X109183314Y-52331500D01*
X109180231Y-52331500D01*
X109168262Y-52332674D01*
X109137494Y-52335690D01*
X109136181Y-52335812D01*
X109091916Y-52339685D01*
X109043587Y-52343913D01*
X109038468Y-52345400D01*
X109033167Y-52345920D01*
X108944166Y-52372791D01*
X108943033Y-52373126D01*
X108859586Y-52397370D01*
X108859582Y-52397372D01*
X108853664Y-52399091D01*
X108848932Y-52401544D01*
X108843831Y-52403084D01*
X108838388Y-52405978D01*
X108761740Y-52446731D01*
X108760574Y-52447343D01*
X108683547Y-52487271D01*
X108678074Y-52490108D01*
X108673911Y-52493431D01*
X108669204Y-52495934D01*
X108597082Y-52554755D01*
X108596226Y-52555446D01*
X108557027Y-52586738D01*
X108554523Y-52589242D01*
X108553805Y-52589884D01*
X108549472Y-52593585D01*
X108515938Y-52620935D01*
X108512011Y-52625682D01*
X108512009Y-52625684D01*
X108486713Y-52656262D01*
X108478723Y-52665042D01*
X104024171Y-57119595D01*
X103961859Y-57153621D01*
X103935076Y-57156500D01*
X103326866Y-57156500D01*
X103264684Y-57163255D01*
X103128295Y-57214385D01*
X103011739Y-57301739D01*
X102961991Y-57368117D01*
X102959782Y-57371065D01*
X102902923Y-57413580D01*
X102858956Y-57421500D01*
X99111842Y-57421500D01*
X99098235Y-57420763D01*
X99066737Y-57417341D01*
X99066732Y-57417341D01*
X99060611Y-57416676D01*
X99042611Y-57418251D01*
X99010609Y-57421050D01*
X99005784Y-57421379D01*
X99003313Y-57421500D01*
X99000231Y-57421500D01*
X98977763Y-57423703D01*
X98957489Y-57425691D01*
X98956174Y-57425813D01*
X98923913Y-57428636D01*
X98863587Y-57433913D01*
X98858468Y-57435400D01*
X98853167Y-57435920D01*
X98764194Y-57462782D01*
X98763054Y-57463120D01*
X98673663Y-57489091D01*
X98668929Y-57491545D01*
X98663831Y-57493084D01*
X98658387Y-57495978D01*
X98658386Y-57495979D01*
X98581831Y-57536684D01*
X98580663Y-57537298D01*
X98555746Y-57550214D01*
X98498074Y-57580108D01*
X98493911Y-57583431D01*
X98489204Y-57585934D01*
X98417082Y-57644755D01*
X98416226Y-57645446D01*
X98377027Y-57676738D01*
X98374523Y-57679242D01*
X98373805Y-57679884D01*
X98369472Y-57683585D01*
X98335938Y-57710935D01*
X98332011Y-57715682D01*
X98332009Y-57715684D01*
X98306713Y-57746262D01*
X98298723Y-57755042D01*
X95850621Y-60203145D01*
X95840478Y-60212247D01*
X95810975Y-60235968D01*
X95798383Y-60250975D01*
X95778709Y-60274421D01*
X95775528Y-60278069D01*
X95773885Y-60279881D01*
X95771691Y-60282075D01*
X95744358Y-60315349D01*
X95743696Y-60316147D01*
X95683846Y-60387474D01*
X95681278Y-60392144D01*
X95677897Y-60396261D01*
X95646860Y-60454145D01*
X95634023Y-60478086D01*
X95633394Y-60479245D01*
X95591538Y-60555381D01*
X95591535Y-60555388D01*
X95588567Y-60560787D01*
X95586955Y-60565869D01*
X95584438Y-60570563D01*
X95557238Y-60659531D01*
X95556918Y-60660559D01*
X95528765Y-60749306D01*
X95528171Y-60754602D01*
X95526613Y-60759698D01*
X95525990Y-60765834D01*
X95517218Y-60852187D01*
X95517089Y-60853393D01*
X95511500Y-60903227D01*
X95511500Y-60906754D01*
X95511445Y-60907739D01*
X95510998Y-60913419D01*
X95506626Y-60956462D01*
X95509135Y-60983000D01*
X95510941Y-61002109D01*
X95511500Y-61013967D01*
X95511500Y-66089769D01*
X95511800Y-66092825D01*
X95511800Y-66092832D01*
X95512530Y-66100273D01*
X95525920Y-66236833D01*
X95583084Y-66426169D01*
X95675934Y-66600796D01*
X95743953Y-66684195D01*
X95797040Y-66749287D01*
X95797043Y-66749290D01*
X95800935Y-66754062D01*
X95805682Y-66757989D01*
X95805684Y-66757991D01*
X95948575Y-66876201D01*
X95948579Y-66876203D01*
X95953325Y-66880130D01*
X96127299Y-66974198D01*
X96316232Y-67032682D01*
X96322357Y-67033326D01*
X96322358Y-67033326D01*
X96506796Y-67052711D01*
X96506798Y-67052711D01*
X96512925Y-67053355D01*
X96595424Y-67045847D01*
X96703749Y-67035989D01*
X96703752Y-67035988D01*
X96709888Y-67035430D01*
X96715794Y-67033692D01*
X96715798Y-67033691D01*
X96820924Y-67002751D01*
X96899619Y-66979590D01*
X96905077Y-66976737D01*
X96905081Y-66976735D01*
X96995853Y-66929280D01*
X97074890Y-66887960D01*
X97229025Y-66764032D01*
X97356154Y-66612526D01*
X97359121Y-66607128D01*
X97359125Y-66607123D01*
X97448467Y-66444608D01*
X97451433Y-66439213D01*
X97453846Y-66431608D01*
X97509373Y-66256564D01*
X97509373Y-66256563D01*
X97511235Y-66250694D01*
X97528500Y-66096773D01*
X97528500Y-61429925D01*
X97548502Y-61361804D01*
X97565405Y-61340830D01*
X99430829Y-59475405D01*
X99493141Y-59441380D01*
X99519924Y-59438500D01*
X102858956Y-59438500D01*
X102927077Y-59458502D01*
X102959782Y-59488935D01*
X103011739Y-59558261D01*
X103128295Y-59645615D01*
X103264684Y-59696745D01*
X103326866Y-59703500D01*
X103330282Y-59703500D01*
X103333680Y-59703684D01*
X103333614Y-59704899D01*
X103396969Y-59723502D01*
X103443462Y-59777158D01*
X103453566Y-59847432D01*
X103424072Y-59912012D01*
X103401119Y-59932713D01*
X103329303Y-59983000D01*
X103318283Y-59990716D01*
X103160716Y-60148283D01*
X103157559Y-60152791D01*
X103157557Y-60152794D01*
X103113630Y-60215528D01*
X103032903Y-60330818D01*
X103030580Y-60335800D01*
X103030577Y-60335805D01*
X102963690Y-60479245D01*
X102938730Y-60532773D01*
X102937308Y-60538081D01*
X102937307Y-60538083D01*
X102929862Y-60565869D01*
X102881056Y-60748014D01*
X102861635Y-60970000D01*
X102881056Y-61191986D01*
X102897179Y-61252158D01*
X102930828Y-61377735D01*
X102938730Y-61407227D01*
X102941052Y-61412208D01*
X102941053Y-61412209D01*
X103030577Y-61604195D01*
X103030580Y-61604200D01*
X103032903Y-61609182D01*
X103160716Y-61791717D01*
X103318283Y-61949284D01*
X103322792Y-61952441D01*
X103322794Y-61952443D01*
X103388573Y-61998502D01*
X103500817Y-62077097D01*
X103505802Y-62079421D01*
X103505808Y-62079425D01*
X103605272Y-62125805D01*
X103658558Y-62172722D01*
X103678019Y-62240999D01*
X103657478Y-62308959D01*
X103605273Y-62354195D01*
X103505805Y-62400577D01*
X103505800Y-62400580D01*
X103500818Y-62402903D01*
X103410181Y-62466368D01*
X103332692Y-62520627D01*
X103318283Y-62530716D01*
X103160716Y-62688283D01*
X103157559Y-62692791D01*
X103157557Y-62692794D01*
X103112808Y-62756703D01*
X103032903Y-62870818D01*
X103030580Y-62875800D01*
X103030577Y-62875805D01*
X102964800Y-63016865D01*
X102938730Y-63072773D01*
X102937308Y-63078081D01*
X102937307Y-63078083D01*
X102927900Y-63113192D01*
X102881056Y-63288014D01*
X102861635Y-63510000D01*
X102881056Y-63731986D01*
X102882480Y-63737299D01*
X102930828Y-63917735D01*
X102938730Y-63947227D01*
X102941052Y-63952208D01*
X102941053Y-63952209D01*
X103030577Y-64144195D01*
X103030580Y-64144200D01*
X103032903Y-64149182D01*
X103160716Y-64331717D01*
X103318283Y-64489284D01*
X103322792Y-64492441D01*
X103322794Y-64492443D01*
X103392550Y-64541287D01*
X103500817Y-64617097D01*
X103505802Y-64619421D01*
X103505808Y-64619425D01*
X103605272Y-64665805D01*
X103658558Y-64712722D01*
X103678019Y-64780999D01*
X103657478Y-64848959D01*
X103605273Y-64894195D01*
X103505805Y-64940577D01*
X103505800Y-64940580D01*
X103500818Y-64942903D01*
X103491351Y-64949532D01*
X103354191Y-65045573D01*
X103318283Y-65070716D01*
X103160716Y-65228283D01*
X103157559Y-65232791D01*
X103157557Y-65232794D01*
X103141149Y-65256227D01*
X103032903Y-65410818D01*
X103030580Y-65415800D01*
X103030577Y-65415805D01*
X102964800Y-65556865D01*
X102938730Y-65612773D01*
X102937308Y-65618081D01*
X102937307Y-65618083D01*
X102929479Y-65647299D01*
X102881056Y-65828014D01*
X102861635Y-66050000D01*
X102881056Y-66271986D01*
X102938730Y-66487227D01*
X102941052Y-66492208D01*
X102941053Y-66492209D01*
X103030577Y-66684195D01*
X103030580Y-66684200D01*
X103032903Y-66689182D01*
X103160716Y-66871717D01*
X103318283Y-67029284D01*
X103322792Y-67032441D01*
X103322794Y-67032443D01*
X103398110Y-67085180D01*
X103500817Y-67157097D01*
X103505802Y-67159421D01*
X103505808Y-67159425D01*
X103605272Y-67205805D01*
X103658558Y-67252722D01*
X103678019Y-67320999D01*
X103657478Y-67388959D01*
X103605273Y-67434195D01*
X103505805Y-67480577D01*
X103505800Y-67480580D01*
X103500818Y-67482903D01*
X103491351Y-67489532D01*
X103348043Y-67589878D01*
X103318283Y-67610716D01*
X103160716Y-67768283D01*
X103157559Y-67772791D01*
X103157557Y-67772794D01*
X103104472Y-67848608D01*
X103032903Y-67950818D01*
X103030580Y-67955800D01*
X103030577Y-67955805D01*
X102948299Y-68132252D01*
X102938730Y-68152773D01*
X102937308Y-68158081D01*
X102937307Y-68158083D01*
X102928182Y-68192138D01*
X102881056Y-68368014D01*
X102861635Y-68590000D01*
X102881056Y-68811986D01*
X102938730Y-69027227D01*
X102941052Y-69032208D01*
X102941053Y-69032209D01*
X103030577Y-69224195D01*
X103030580Y-69224200D01*
X103032903Y-69229182D01*
X103160716Y-69411717D01*
X103318283Y-69569284D01*
X103322792Y-69572441D01*
X103322794Y-69572443D01*
X103398110Y-69625180D01*
X103500817Y-69697097D01*
X103505802Y-69699421D01*
X103505808Y-69699425D01*
X103605272Y-69745805D01*
X103658558Y-69792722D01*
X103678019Y-69860999D01*
X103657478Y-69928959D01*
X103605273Y-69974195D01*
X103505805Y-70020577D01*
X103505800Y-70020580D01*
X103500818Y-70022903D01*
X103318283Y-70150716D01*
X103160716Y-70308283D01*
X103157559Y-70312791D01*
X103157557Y-70312794D01*
X103128143Y-70354802D01*
X103032903Y-70490818D01*
X103030580Y-70495800D01*
X103030577Y-70495805D01*
X103009546Y-70540907D01*
X102938730Y-70692773D01*
X102881056Y-70908014D01*
X102861635Y-71130000D01*
X102881056Y-71351986D01*
X102938730Y-71567227D01*
X102941052Y-71572208D01*
X102941053Y-71572209D01*
X103030577Y-71764195D01*
X103030580Y-71764200D01*
X103032903Y-71769182D01*
X103053688Y-71798866D01*
X103129571Y-71907237D01*
X103160716Y-71951717D01*
X103318283Y-72109284D01*
X103500817Y-72237097D01*
X103505802Y-72239421D01*
X103505808Y-72239425D01*
X103605272Y-72285805D01*
X103658558Y-72332722D01*
X103678019Y-72400999D01*
X103657478Y-72468959D01*
X103605273Y-72514195D01*
X103505805Y-72560577D01*
X103505800Y-72560580D01*
X103500818Y-72562903D01*
X103318283Y-72690716D01*
X103160716Y-72848283D01*
X103032903Y-73030818D01*
X103030580Y-73035800D01*
X103030577Y-73035805D01*
X102946151Y-73216858D01*
X102938730Y-73232773D01*
X102937308Y-73238081D01*
X102937307Y-73238083D01*
X102923813Y-73288444D01*
X102881056Y-73448014D01*
X102861635Y-73670000D01*
X102881056Y-73891986D01*
X102911097Y-74004098D01*
X102937294Y-74101866D01*
X102938730Y-74107227D01*
X102941052Y-74112208D01*
X102941053Y-74112209D01*
X103030577Y-74304195D01*
X103030580Y-74304200D01*
X103032903Y-74309182D01*
X103072952Y-74366377D01*
X103129571Y-74447237D01*
X103160716Y-74491717D01*
X103318283Y-74649284D01*
X103322792Y-74652441D01*
X103322794Y-74652443D01*
X103326369Y-74654946D01*
X103500817Y-74777097D01*
X103505802Y-74779421D01*
X103505808Y-74779425D01*
X103605272Y-74825805D01*
X103658558Y-74872722D01*
X103678019Y-74940999D01*
X103657478Y-75008959D01*
X103605273Y-75054195D01*
X103505805Y-75100577D01*
X103505800Y-75100580D01*
X103500818Y-75102903D01*
X103446739Y-75140770D01*
X103327712Y-75224114D01*
X103318283Y-75230716D01*
X103160716Y-75388283D01*
X103157559Y-75392791D01*
X103157557Y-75392794D01*
X103127127Y-75436253D01*
X103032903Y-75570818D01*
X103030580Y-75575800D01*
X103030577Y-75575805D01*
X102996201Y-75649525D01*
X102938730Y-75772773D01*
X102937308Y-75778081D01*
X102937307Y-75778083D01*
X102924757Y-75824919D01*
X102881056Y-75988014D01*
X102861635Y-76210000D01*
X102881056Y-76431986D01*
X102892523Y-76474781D01*
X102937294Y-76641866D01*
X102938730Y-76647227D01*
X102941052Y-76652208D01*
X102941053Y-76652209D01*
X103030577Y-76844195D01*
X103030580Y-76844200D01*
X103032903Y-76849182D01*
X103085292Y-76924001D01*
X103136099Y-76996560D01*
X103160716Y-77031717D01*
X103318283Y-77189284D01*
X103322792Y-77192441D01*
X103322794Y-77192443D01*
X103373236Y-77227763D01*
X103500817Y-77317097D01*
X103505802Y-77319421D01*
X103505808Y-77319425D01*
X103605272Y-77365805D01*
X103658558Y-77412722D01*
X103678019Y-77480999D01*
X103657478Y-77548959D01*
X103605273Y-77594195D01*
X103505805Y-77640577D01*
X103505800Y-77640580D01*
X103500818Y-77642903D01*
X103446739Y-77680770D01*
X103332692Y-77760627D01*
X103318283Y-77770716D01*
X103160716Y-77928283D01*
X103157559Y-77932791D01*
X103157557Y-77932794D01*
X103104472Y-78008608D01*
X103032903Y-78110818D01*
X103030580Y-78115800D01*
X103030577Y-78115805D01*
X103022180Y-78133813D01*
X102938730Y-78312773D01*
X102881056Y-78528014D01*
X102861635Y-78750000D01*
X102881056Y-78971986D01*
X102892523Y-79014781D01*
X102933600Y-79168080D01*
X102938730Y-79187227D01*
X102941052Y-79192208D01*
X102941053Y-79192209D01*
X103030577Y-79384195D01*
X103030580Y-79384200D01*
X103032903Y-79389182D01*
X103085292Y-79464001D01*
X103153792Y-79561828D01*
X103160716Y-79571717D01*
X103318283Y-79729284D01*
X103322792Y-79732441D01*
X103322794Y-79732443D01*
X103388573Y-79778502D01*
X103500817Y-79857097D01*
X103505802Y-79859421D01*
X103505808Y-79859425D01*
X103605272Y-79905805D01*
X103658558Y-79952722D01*
X103678019Y-80020999D01*
X103657478Y-80088959D01*
X103605273Y-80134195D01*
X103505805Y-80180577D01*
X103505800Y-80180580D01*
X103500818Y-80182903D01*
X103400289Y-80253295D01*
X103392551Y-80258713D01*
X103320280Y-80281500D01*
X97654500Y-80281500D01*
X97586379Y-80261498D01*
X97539886Y-80207842D01*
X97528500Y-80155500D01*
X97528500Y-73721842D01*
X97529237Y-73708235D01*
X97532659Y-73676737D01*
X97532659Y-73676732D01*
X97533324Y-73670611D01*
X97531368Y-73648255D01*
X97528950Y-73620609D01*
X97528621Y-73615784D01*
X97528500Y-73613313D01*
X97528500Y-73610231D01*
X97524309Y-73567489D01*
X97524187Y-73566174D01*
X97516623Y-73479719D01*
X97516087Y-73473587D01*
X97514600Y-73468468D01*
X97514080Y-73463167D01*
X97487218Y-73374194D01*
X97486862Y-73372994D01*
X97460909Y-73283663D01*
X97458455Y-73278929D01*
X97456916Y-73273831D01*
X97438000Y-73238255D01*
X97413316Y-73191831D01*
X97412702Y-73190663D01*
X97372726Y-73113541D01*
X97372725Y-73113540D01*
X97369892Y-73108074D01*
X97366569Y-73103911D01*
X97364066Y-73099204D01*
X97305245Y-73027082D01*
X97304554Y-73026226D01*
X97273262Y-72987027D01*
X97270758Y-72984523D01*
X97270116Y-72983805D01*
X97266415Y-72979472D01*
X97239065Y-72945938D01*
X97203737Y-72916712D01*
X97194958Y-72908723D01*
X84576855Y-60290621D01*
X84567753Y-60280478D01*
X84547897Y-60255782D01*
X84544032Y-60250975D01*
X84505578Y-60218708D01*
X84501931Y-60215528D01*
X84500119Y-60213885D01*
X84497925Y-60211691D01*
X84464651Y-60184358D01*
X84463853Y-60183696D01*
X84392526Y-60123846D01*
X84387856Y-60121278D01*
X84383739Y-60117897D01*
X84301914Y-60074023D01*
X84300755Y-60073394D01*
X84224619Y-60031538D01*
X84224611Y-60031535D01*
X84219213Y-60028567D01*
X84214131Y-60026955D01*
X84209437Y-60024438D01*
X84120469Y-59997238D01*
X84119441Y-59996918D01*
X84030694Y-59968765D01*
X84025398Y-59968171D01*
X84020302Y-59966613D01*
X83927743Y-59957210D01*
X83926607Y-59957089D01*
X83892992Y-59953319D01*
X83880270Y-59951892D01*
X83880266Y-59951892D01*
X83876773Y-59951500D01*
X83873246Y-59951500D01*
X83872261Y-59951445D01*
X83866581Y-59950998D01*
X83837175Y-59948011D01*
X83829663Y-59947248D01*
X83829661Y-59947248D01*
X83823538Y-59946626D01*
X83781259Y-59950623D01*
X83777891Y-59950941D01*
X83766033Y-59951500D01*
X58479873Y-59951500D01*
X58466703Y-59950810D01*
X58433204Y-59947289D01*
X58433202Y-59947289D01*
X58427075Y-59946645D01*
X58376827Y-59951218D01*
X58372793Y-59951500D01*
X58370231Y-59951500D01*
X58367173Y-59951800D01*
X58367169Y-59951800D01*
X58325404Y-59955895D01*
X58324529Y-59955977D01*
X58312432Y-59957078D01*
X58230112Y-59964570D01*
X58226703Y-59965573D01*
X58223167Y-59965920D01*
X58132279Y-59993361D01*
X58131610Y-59993561D01*
X58040381Y-60020410D01*
X58037228Y-60022058D01*
X58033831Y-60023084D01*
X58028401Y-60025971D01*
X58028399Y-60025972D01*
X58022650Y-60029029D01*
X57949899Y-60067711D01*
X57949319Y-60068016D01*
X57865110Y-60112040D01*
X57862342Y-60114265D01*
X57859204Y-60115934D01*
X57854426Y-60119831D01*
X57785628Y-60175941D01*
X57784944Y-60176494D01*
X57715782Y-60232102D01*
X57715776Y-60232108D01*
X57710975Y-60235968D01*
X57708692Y-60238689D01*
X57705938Y-60240935D01*
X57702011Y-60245682D01*
X57702009Y-60245684D01*
X57645441Y-60314064D01*
X57644935Y-60314671D01*
X57583846Y-60387474D01*
X57582134Y-60390589D01*
X57579870Y-60393325D01*
X57575347Y-60401691D01*
X57534700Y-60476865D01*
X57534298Y-60477603D01*
X57488567Y-60560787D01*
X57487494Y-60564170D01*
X57485802Y-60567299D01*
X57473020Y-60608591D01*
X57457725Y-60658002D01*
X57457468Y-60658822D01*
X57428765Y-60749306D01*
X57428369Y-60752837D01*
X57427318Y-60756232D01*
X57426674Y-60762363D01*
X57417394Y-60850651D01*
X57417299Y-60851524D01*
X57416685Y-60857000D01*
X57411500Y-60903227D01*
X57411500Y-60905800D01*
X57411180Y-60909776D01*
X57406645Y-60952925D01*
X50800000Y-60952925D01*
X50800000Y-50846485D01*
X55756854Y-50846485D01*
X55757156Y-50850320D01*
X55775108Y-51078417D01*
X55782370Y-51170695D01*
X55847206Y-51489378D01*
X55950398Y-51797784D01*
X56090405Y-52091316D01*
X56265141Y-52365597D01*
X56267584Y-52368560D01*
X56267585Y-52368562D01*
X56457304Y-52598709D01*
X56472001Y-52616538D01*
X56707902Y-52840399D01*
X56969326Y-53033843D01*
X57110851Y-53113914D01*
X57249019Y-53192086D01*
X57249023Y-53192088D01*
X57252376Y-53193985D01*
X57552832Y-53318438D01*
X57656288Y-53347129D01*
X57862500Y-53404317D01*
X57862508Y-53404319D01*
X57866216Y-53405347D01*
X58187856Y-53453416D01*
X58191154Y-53453560D01*
X58302918Y-53458440D01*
X58302922Y-53458440D01*
X58304294Y-53458500D01*
X58502598Y-53458500D01*
X58744605Y-53443698D01*
X58748388Y-53442997D01*
X58748395Y-53442996D01*
X58948459Y-53405916D01*
X59064372Y-53384433D01*
X59273682Y-53318438D01*
X59370860Y-53287798D01*
X59370863Y-53287797D01*
X59374532Y-53286640D01*
X59378029Y-53285046D01*
X59378035Y-53285044D01*
X59666954Y-53153376D01*
X59666958Y-53153374D01*
X59670462Y-53151777D01*
X59947751Y-52981854D01*
X59950755Y-52979464D01*
X59950760Y-52979461D01*
X60075007Y-52880630D01*
X60202264Y-52779405D01*
X60204958Y-52776664D01*
X60204962Y-52776660D01*
X60427513Y-52550190D01*
X60427517Y-52550185D01*
X60430208Y-52547447D01*
X60582269Y-52349278D01*
X60625835Y-52292502D01*
X60625837Y-52292498D01*
X60628185Y-52289439D01*
X60793242Y-52009227D01*
X60922920Y-51710988D01*
X61015285Y-51399169D01*
X61068961Y-51078417D01*
X61079087Y-50846485D01*
X177676854Y-50846485D01*
X177677156Y-50850320D01*
X177695108Y-51078417D01*
X177702370Y-51170695D01*
X177767206Y-51489378D01*
X177870398Y-51797784D01*
X178010405Y-52091316D01*
X178185141Y-52365597D01*
X178187584Y-52368560D01*
X178187585Y-52368562D01*
X178377304Y-52598709D01*
X178392001Y-52616538D01*
X178627902Y-52840399D01*
X178889326Y-53033843D01*
X179030851Y-53113914D01*
X179169019Y-53192086D01*
X179169023Y-53192088D01*
X179172376Y-53193985D01*
X179472832Y-53318438D01*
X179576288Y-53347129D01*
X179782500Y-53404317D01*
X179782508Y-53404319D01*
X179786216Y-53405347D01*
X180107856Y-53453416D01*
X180111154Y-53453560D01*
X180222918Y-53458440D01*
X180222922Y-53458440D01*
X180224294Y-53458500D01*
X180422598Y-53458500D01*
X180664605Y-53443698D01*
X180668388Y-53442997D01*
X180668395Y-53442996D01*
X180868459Y-53405916D01*
X180984372Y-53384433D01*
X181193682Y-53318438D01*
X181290860Y-53287798D01*
X181290863Y-53287797D01*
X181294532Y-53286640D01*
X181298029Y-53285046D01*
X181298035Y-53285044D01*
X181586954Y-53153376D01*
X181586958Y-53153374D01*
X181590462Y-53151777D01*
X181867751Y-52981854D01*
X181870755Y-52979464D01*
X181870760Y-52979461D01*
X181995008Y-52880629D01*
X182122264Y-52779405D01*
X182124958Y-52776664D01*
X182124962Y-52776660D01*
X182347513Y-52550190D01*
X182347517Y-52550185D01*
X182350208Y-52547447D01*
X182502269Y-52349278D01*
X182545835Y-52292502D01*
X182545837Y-52292498D01*
X182548185Y-52289439D01*
X182713242Y-52009227D01*
X182842920Y-51710988D01*
X182935285Y-51399169D01*
X182988961Y-51078417D01*
X183003146Y-50753515D01*
X182990388Y-50591410D01*
X182977932Y-50433140D01*
X182977932Y-50433137D01*
X182977630Y-50429305D01*
X182912794Y-50110622D01*
X182809602Y-49802216D01*
X182669595Y-49508684D01*
X182494859Y-49234403D01*
X182347470Y-49055606D01*
X182290442Y-48986425D01*
X182290438Y-48986420D01*
X182287999Y-48983462D01*
X182052098Y-48759601D01*
X181790674Y-48566157D01*
X181585781Y-48450234D01*
X181510981Y-48407914D01*
X181510977Y-48407912D01*
X181507624Y-48406015D01*
X181207168Y-48281562D01*
X181103712Y-48252871D01*
X180897500Y-48195683D01*
X180897492Y-48195681D01*
X180893784Y-48194653D01*
X180572144Y-48146584D01*
X180568846Y-48146440D01*
X180457082Y-48141560D01*
X180457078Y-48141560D01*
X180455706Y-48141500D01*
X180257402Y-48141500D01*
X180015395Y-48156302D01*
X180011612Y-48157003D01*
X180011605Y-48157004D01*
X179855512Y-48185934D01*
X179695628Y-48215567D01*
X179511058Y-48273762D01*
X179389140Y-48312202D01*
X179389137Y-48312203D01*
X179385468Y-48313360D01*
X179381971Y-48314954D01*
X179381965Y-48314956D01*
X179093046Y-48446624D01*
X179093042Y-48446626D01*
X179089538Y-48448223D01*
X178812249Y-48618146D01*
X178809245Y-48620536D01*
X178809240Y-48620539D01*
X178684992Y-48719371D01*
X178557736Y-48820595D01*
X178555042Y-48823336D01*
X178555038Y-48823340D01*
X178332487Y-49049810D01*
X178332483Y-49049815D01*
X178329792Y-49052553D01*
X178131815Y-49310561D01*
X177966758Y-49590773D01*
X177837080Y-49889012D01*
X177744715Y-50200831D01*
X177691039Y-50521583D01*
X177676854Y-50846485D01*
X61079087Y-50846485D01*
X61083146Y-50753515D01*
X61070388Y-50591410D01*
X61057932Y-50433140D01*
X61057932Y-50433137D01*
X61057630Y-50429305D01*
X60992794Y-50110622D01*
X60889602Y-49802216D01*
X60749595Y-49508684D01*
X60574859Y-49234403D01*
X60427470Y-49055606D01*
X60370442Y-48986425D01*
X60370438Y-48986420D01*
X60367999Y-48983462D01*
X60132098Y-48759601D01*
X59870674Y-48566157D01*
X59665781Y-48450234D01*
X59590981Y-48407914D01*
X59590977Y-48407912D01*
X59587624Y-48406015D01*
X59287168Y-48281562D01*
X59183712Y-48252871D01*
X58977500Y-48195683D01*
X58977492Y-48195681D01*
X58973784Y-48194653D01*
X58652144Y-48146584D01*
X58648846Y-48146440D01*
X58537082Y-48141560D01*
X58537078Y-48141560D01*
X58535706Y-48141500D01*
X58337402Y-48141500D01*
X58095395Y-48156302D01*
X58091612Y-48157003D01*
X58091605Y-48157004D01*
X57935512Y-48185934D01*
X57775628Y-48215567D01*
X57591058Y-48273762D01*
X57469140Y-48312202D01*
X57469137Y-48312203D01*
X57465468Y-48313360D01*
X57461971Y-48314954D01*
X57461965Y-48314956D01*
X57173046Y-48446624D01*
X57173042Y-48446626D01*
X57169538Y-48448223D01*
X56892249Y-48618146D01*
X56889245Y-48620536D01*
X56889240Y-48620539D01*
X56764993Y-48719370D01*
X56637736Y-48820595D01*
X56635042Y-48823336D01*
X56635038Y-48823340D01*
X56412487Y-49049810D01*
X56412483Y-49049815D01*
X56409792Y-49052553D01*
X56211815Y-49310561D01*
X56046758Y-49590773D01*
X55917080Y-49889012D01*
X55824715Y-50200831D01*
X55771039Y-50521583D01*
X55756854Y-50846485D01*
X50800000Y-50846485D01*
X50800000Y-43306000D01*
X50820002Y-43237879D01*
X50873658Y-43191386D01*
X50926000Y-43180000D01*
X187834000Y-43180000D01*
X187902121Y-43200002D01*
G37*
%TD.AperFunction*%
%TA.AperFunction,Conductor*%
G36*
X156413621Y-64528502D02*
G01*
X156460114Y-64582158D01*
X156471500Y-64634500D01*
X156471500Y-77060500D01*
X156451498Y-77128621D01*
X156397842Y-77175114D01*
X156345500Y-77186500D01*
X152914490Y-77186500D01*
X152842219Y-77163713D01*
X152742186Y-77093669D01*
X152742184Y-77093668D01*
X152737677Y-77090512D01*
X152732695Y-77088189D01*
X152732690Y-77088186D01*
X152627627Y-77039195D01*
X152574342Y-76992278D01*
X152554881Y-76924001D01*
X152575423Y-76856041D01*
X152627627Y-76810805D01*
X152732690Y-76761814D01*
X152732695Y-76761811D01*
X152737677Y-76759488D01*
X152898002Y-76647227D01*
X152915270Y-76635136D01*
X152915273Y-76635134D01*
X152919781Y-76631977D01*
X153076977Y-76474781D01*
X153090183Y-76455922D01*
X153201331Y-76297185D01*
X153201332Y-76297183D01*
X153204488Y-76292676D01*
X153206811Y-76287694D01*
X153206814Y-76287689D01*
X153296117Y-76096178D01*
X153296118Y-76096177D01*
X153298440Y-76091196D01*
X153355978Y-75876463D01*
X153375353Y-75655000D01*
X153355978Y-75433537D01*
X153301234Y-75229230D01*
X153299863Y-75224114D01*
X153299862Y-75224112D01*
X153298440Y-75218804D01*
X153262052Y-75140770D01*
X153206814Y-75022311D01*
X153206811Y-75022306D01*
X153204488Y-75017324D01*
X153198471Y-75008730D01*
X153131287Y-74912782D01*
X153108500Y-74840511D01*
X153108500Y-69349924D01*
X153128502Y-69281803D01*
X153144117Y-69262428D01*
X153144065Y-69262381D01*
X153144867Y-69261496D01*
X153145405Y-69260829D01*
X153148309Y-69257925D01*
X153242103Y-69143739D01*
X153335562Y-68969437D01*
X153393387Y-68780302D01*
X153405258Y-68663437D01*
X153412752Y-68589666D01*
X153412752Y-68589661D01*
X153413374Y-68583538D01*
X153394761Y-68386638D01*
X153349612Y-68235186D01*
X153340019Y-68203007D01*
X153340018Y-68203005D01*
X153338259Y-68197104D01*
X153246018Y-68022154D01*
X153238869Y-68013325D01*
X153125432Y-67873243D01*
X153125431Y-67873242D01*
X153121553Y-67868453D01*
X153034521Y-67795941D01*
X152974338Y-67745798D01*
X152974337Y-67745797D01*
X152969604Y-67741854D01*
X152795959Y-67647178D01*
X152679608Y-67610716D01*
X152613114Y-67589878D01*
X152613111Y-67589877D01*
X152607232Y-67588035D01*
X152601109Y-67587370D01*
X152601105Y-67587369D01*
X152416737Y-67567341D01*
X152416733Y-67567341D01*
X152410612Y-67566676D01*
X152213587Y-67583913D01*
X152207670Y-67585632D01*
X152207665Y-67585633D01*
X152111452Y-67613586D01*
X152023664Y-67639091D01*
X151848074Y-67730108D01*
X151727027Y-67826738D01*
X151724534Y-67829231D01*
X151430616Y-68123150D01*
X151420473Y-68132252D01*
X151390975Y-68155968D01*
X151387008Y-68160696D01*
X151358709Y-68194421D01*
X151355528Y-68198069D01*
X151353885Y-68199881D01*
X151351691Y-68202075D01*
X151324358Y-68235349D01*
X151323696Y-68236147D01*
X151263846Y-68307474D01*
X151261278Y-68312144D01*
X151257897Y-68316261D01*
X151227209Y-68373494D01*
X151214023Y-68398086D01*
X151213394Y-68399245D01*
X151171538Y-68475381D01*
X151171535Y-68475389D01*
X151168567Y-68480787D01*
X151166955Y-68485869D01*
X151164438Y-68490563D01*
X151137238Y-68579531D01*
X151136918Y-68580559D01*
X151108765Y-68669306D01*
X151108171Y-68674602D01*
X151106613Y-68679698D01*
X151105990Y-68685834D01*
X151097218Y-68772187D01*
X151097089Y-68773393D01*
X151091500Y-68823227D01*
X151091500Y-68826754D01*
X151091445Y-68827739D01*
X151090998Y-68833419D01*
X151086626Y-68876462D01*
X151087206Y-68882593D01*
X151090941Y-68922109D01*
X151091500Y-68933967D01*
X151091500Y-74840511D01*
X151068714Y-74912781D01*
X151065406Y-74917506D01*
X151059213Y-74926350D01*
X151003756Y-74970679D01*
X150933136Y-74977988D01*
X150869776Y-74945958D01*
X150833790Y-74884757D01*
X150829999Y-74854080D01*
X150829999Y-74848331D01*
X150829629Y-74841510D01*
X150824105Y-74790648D01*
X150820479Y-74775396D01*
X150775324Y-74654946D01*
X150766786Y-74639351D01*
X150690285Y-74537276D01*
X150677724Y-74524715D01*
X150575649Y-74448214D01*
X150560054Y-74439676D01*
X150439606Y-74394522D01*
X150424351Y-74390895D01*
X150373486Y-74385369D01*
X150366672Y-74385000D01*
X149832115Y-74385000D01*
X149816876Y-74389475D01*
X149815671Y-74390865D01*
X149814000Y-74398548D01*
X149814000Y-75783000D01*
X149793998Y-75851121D01*
X149740342Y-75897614D01*
X149688000Y-75909000D01*
X148308116Y-75909000D01*
X148292877Y-75913475D01*
X148291672Y-75914865D01*
X148290001Y-75922548D01*
X148290001Y-76461669D01*
X148290371Y-76468490D01*
X148295895Y-76519352D01*
X148299521Y-76534604D01*
X148344676Y-76655054D01*
X148353214Y-76670649D01*
X148429715Y-76772724D01*
X148442276Y-76785285D01*
X148544351Y-76861786D01*
X148559946Y-76870324D01*
X148680394Y-76915478D01*
X148695649Y-76919105D01*
X148746514Y-76924631D01*
X148753328Y-76925000D01*
X148759079Y-76925000D01*
X148827200Y-76945002D01*
X148873693Y-76998658D01*
X148883797Y-77068932D01*
X148854303Y-77133512D01*
X148831352Y-77154211D01*
X148817779Y-77163715D01*
X148745511Y-77186500D01*
X145386842Y-77186500D01*
X145373235Y-77185763D01*
X145341737Y-77182341D01*
X145341732Y-77182341D01*
X145335611Y-77181676D01*
X145317611Y-77183251D01*
X145285609Y-77186050D01*
X145280784Y-77186379D01*
X145278313Y-77186500D01*
X145275231Y-77186500D01*
X145252763Y-77188703D01*
X145232489Y-77190691D01*
X145231174Y-77190813D01*
X145198913Y-77193636D01*
X145138587Y-77198913D01*
X145133468Y-77200400D01*
X145128167Y-77200920D01*
X145039194Y-77227782D01*
X145038054Y-77228120D01*
X144948663Y-77254091D01*
X144943929Y-77256545D01*
X144938831Y-77258084D01*
X144933387Y-77260978D01*
X144933386Y-77260979D01*
X144856831Y-77301684D01*
X144855663Y-77302298D01*
X144822622Y-77319425D01*
X144773074Y-77345108D01*
X144768911Y-77348431D01*
X144764204Y-77350934D01*
X144692082Y-77409755D01*
X144691226Y-77410446D01*
X144652027Y-77441738D01*
X144649523Y-77444242D01*
X144648805Y-77444884D01*
X144644472Y-77448585D01*
X144610938Y-77475935D01*
X144607011Y-77480682D01*
X144607009Y-77480684D01*
X144581713Y-77511262D01*
X144573723Y-77520042D01*
X140095775Y-81997991D01*
X135821338Y-86272428D01*
X135759026Y-86306454D01*
X135688211Y-86301389D01*
X135631375Y-86258842D01*
X135606762Y-86194753D01*
X135605430Y-86180112D01*
X135599828Y-86161076D01*
X135551330Y-85996294D01*
X135549590Y-85990381D01*
X135511154Y-85916859D01*
X135499280Y-85894147D01*
X135457960Y-85815110D01*
X135334032Y-85660975D01*
X135182526Y-85533846D01*
X135177128Y-85530879D01*
X135177123Y-85530875D01*
X135014608Y-85441533D01*
X135014609Y-85441533D01*
X135009213Y-85438567D01*
X135003346Y-85436706D01*
X135003344Y-85436705D01*
X134826564Y-85380627D01*
X134826563Y-85380627D01*
X134820694Y-85378765D01*
X134666773Y-85361500D01*
X130359721Y-85361500D01*
X130287450Y-85338713D01*
X130214799Y-85287842D01*
X130179183Y-85262903D01*
X130174201Y-85260580D01*
X130174196Y-85260577D01*
X130074728Y-85214195D01*
X130021443Y-85167278D01*
X130001982Y-85099001D01*
X130022524Y-85031041D01*
X130074728Y-84985805D01*
X130174196Y-84939423D01*
X130174201Y-84939420D01*
X130179183Y-84937097D01*
X130328152Y-84832787D01*
X130357206Y-84812443D01*
X130357208Y-84812441D01*
X130361717Y-84809284D01*
X130519284Y-84651717D01*
X130551789Y-84605296D01*
X130595570Y-84542770D01*
X130647097Y-84469182D01*
X130649420Y-84464200D01*
X130649423Y-84464195D01*
X130738947Y-84272209D01*
X130738948Y-84272208D01*
X130741270Y-84267227D01*
X130746401Y-84248080D01*
X130787477Y-84094781D01*
X130798944Y-84051986D01*
X130818365Y-83830000D01*
X130798944Y-83608014D01*
X130741270Y-83392773D01*
X130712057Y-83330125D01*
X130649423Y-83195805D01*
X130649420Y-83195800D01*
X130647097Y-83190818D01*
X130554808Y-83059016D01*
X130522443Y-83012794D01*
X130522441Y-83012791D01*
X130519284Y-83008283D01*
X130361717Y-82850716D01*
X130352289Y-82844114D01*
X130214129Y-82747373D01*
X130179183Y-82722903D01*
X130174201Y-82720580D01*
X130174196Y-82720577D01*
X130074728Y-82674195D01*
X130021443Y-82627278D01*
X130001982Y-82559001D01*
X130022524Y-82491041D01*
X130074728Y-82445805D01*
X130174196Y-82399423D01*
X130174201Y-82399420D01*
X130179183Y-82397097D01*
X130287450Y-82321287D01*
X130359721Y-82298500D01*
X132008157Y-82298500D01*
X132021764Y-82299237D01*
X132053262Y-82302659D01*
X132053267Y-82302659D01*
X132059388Y-82303324D01*
X132085638Y-82301027D01*
X132109388Y-82298950D01*
X132114214Y-82298621D01*
X132116686Y-82298500D01*
X132119769Y-82298500D01*
X132131738Y-82297326D01*
X132162506Y-82294310D01*
X132163819Y-82294188D01*
X132208084Y-82290315D01*
X132256413Y-82286087D01*
X132261532Y-82284600D01*
X132266833Y-82284080D01*
X132355834Y-82257209D01*
X132356967Y-82256874D01*
X132440414Y-82232630D01*
X132440418Y-82232628D01*
X132446336Y-82230909D01*
X132451068Y-82228456D01*
X132456169Y-82226916D01*
X132480089Y-82214198D01*
X132538260Y-82183269D01*
X132539426Y-82182657D01*
X132616453Y-82142729D01*
X132621926Y-82139892D01*
X132626089Y-82136569D01*
X132630796Y-82134066D01*
X132702918Y-82075245D01*
X132703774Y-82074554D01*
X132742973Y-82043262D01*
X132745477Y-82040758D01*
X132746195Y-82040116D01*
X132750528Y-82036415D01*
X132784062Y-82009065D01*
X132788252Y-82004001D01*
X132813287Y-81973738D01*
X132821277Y-81964958D01*
X139403350Y-75382885D01*
X148290000Y-75382885D01*
X148294475Y-75398124D01*
X148295865Y-75399329D01*
X148303548Y-75401000D01*
X149287885Y-75401000D01*
X149303124Y-75396525D01*
X149304329Y-75395135D01*
X149306000Y-75387452D01*
X149306000Y-74403116D01*
X149301525Y-74387877D01*
X149300135Y-74386672D01*
X149292452Y-74385001D01*
X148753331Y-74385001D01*
X148746510Y-74385371D01*
X148695648Y-74390895D01*
X148680396Y-74394521D01*
X148559946Y-74439676D01*
X148544351Y-74448214D01*
X148442276Y-74524715D01*
X148429715Y-74537276D01*
X148353214Y-74639351D01*
X148344676Y-74654946D01*
X148299522Y-74775394D01*
X148295895Y-74790649D01*
X148290369Y-74841514D01*
X148290000Y-74848328D01*
X148290000Y-75382885D01*
X139403350Y-75382885D01*
X141517849Y-73268386D01*
X150240829Y-64545405D01*
X150303141Y-64511379D01*
X150329924Y-64508500D01*
X156345500Y-64508500D01*
X156413621Y-64528502D01*
G37*
%TD.AperFunction*%
%TD*%
M02*
