M48
; DRILL file {KiCad (6.0.4)} date Tue May 23 16:29:32 2023
; FORMAT={-:-/ absolute / inch / decimal}
; #@! TF.CreationDate,2023-05-23T16:29:32+02:00
; #@! TF.GenerationSoftware,Kicad,Pcbnew,(6.0.4)
; #@! TF.FileFunction,Plated,1,2,PTH
FMAT,2
INCH
; #@! TA.AperFunction,Plated,PTH,ViaDrill
T1C0.0157
; #@! TA.AperFunction,Plated,PTH,ComponentDrill
T2C0.0197
; #@! TA.AperFunction,Plated,PTH,ComponentDrill
T3C0.0300
; #@! TA.AperFunction,Plated,PTH,ComponentDrill
T4C0.0402
; #@! TA.AperFunction,Plated,PTH,ComponentDrill
T5C0.0520
%
G90
G05
T1
X3.3819Y-2.9349
X3.8Y-2.6
X5.2Y-2.9
X5.2Y-3.1
X5.3Y-3.0
X5.3Y-3.4
X5.4Y-2.9
X5.5Y-2.5
X5.7Y-2.8
X5.7Y-3.2
X5.8Y-3.3
X6.0Y-2.1
X6.0Y-2.7
X6.0Y-3.4
X6.4Y-2.8
X6.5Y-2.9
T2
X6.8Y-2.3
X6.8Y-2.3394
X6.8Y-2.3787
X6.8Y-2.4181
T3
X5.8882Y-2.9785
X5.8882Y-3.0785
X5.8882Y-3.1785
X5.8882Y-3.2785
X5.9882Y-2.9785
X5.9882Y-3.0785
X5.9882Y-3.1785
X5.9882Y-3.2785
T4
X4.1Y-2.3004
X4.1Y-2.4004
X4.1Y-2.5004
X4.1Y-2.6004
X4.1Y-2.7004
X4.1Y-2.8004
X4.1Y-2.9004
X4.1Y-3.0004
X4.1Y-3.1004
X4.1Y-3.2004
X4.1Y-3.3004
X4.1Y-3.4004
X4.1Y-3.5004
X4.1Y-3.6004
X4.1Y-3.7004
X4.1Y-3.8004
X4.1Y-3.9004
X4.1Y-4.0004
X4.1Y-4.1004
X5.1Y-2.3004
X5.1Y-2.4004
X5.1Y-2.5004
X5.1Y-2.6004
X5.1Y-2.7004
X5.1Y-2.8004
X5.1Y-2.9004
X5.1Y-3.0004
X5.1Y-3.1004
X5.1Y-3.2004
X5.1Y-3.3004
X5.1Y-3.4004
X5.1Y-3.5004
X5.1Y-3.6004
X5.1Y-3.7004
X5.1Y-3.8004
X5.1Y-3.9004
X5.1Y-4.0004
X5.1Y-4.1004
T5
X6.3Y-4.0
X6.4969Y-4.0
T0
M30
